<svg xmlns="http://www.w3.org/2000/svg" xmlns:xlink="http://www.w3.org/1999/xlink" contentStyleType="text/css" data-diagram-type="CLASS" height="371px" preserveAspectRatio="none" style="width:1861px;height:371px;background:#FFFFFF;" version="1.1" viewBox="0 0 1861 371" width="1861px" zoomAndPan="magnify"><defs/><g><!--cluster org.quurz.plugins.data--><g class="cluster" data-entity="org.quurz.plugins.data" data-source-line="10" data-uid="ent0002" id="cluster_org.quurz.plugins.data"><path d="M16.5,4 L160.4121,4 A3.75,3.75 0 0 1 162.9121,6.5 L169.9121,26.4063 L1135.5,26.4063 A2.5,2.5 0 0 1 1138,28.9063 L1138,335.5 A2.5,2.5 0 0 1 1135.5,338 L16.5,338 A2.5,2.5 0 0 1 14,335.5 L14,6.5 A2.5,2.5 0 0 1 16.5,4" fill="none" style="stroke:#000000;stroke-width:1.5;"/><line style="stroke:#000000;stroke-width:1.5;" x1="14" x2="169.9121" y1="26.4063" y2="26.4063"/><text fill="#000000" font-family="sans-serif" font-size="14" font-weight="bold" lengthAdjust="spacing" textLength="142.9121" x="18" y="18.9883">org.quurz.plugins.data</text></g><!--cluster java.io--><g class="cluster" data-entity="java.io" data-source-line="35" data-uid="ent0006" id="cluster_java.io"><path d="M1148.5,37 L1190.9395,37 A3.75,3.75 0 0 1 1193.4395,39.5 L1200.4395,59.4063 L1261.5,59.4063 A2.5,2.5 0 0 1 1264,61.9063 L1264,117.5 A2.5,2.5 0 0 1 1261.5,120 L1148.5,120 A2.5,2.5 0 0 1 1146,117.5 L1146,39.5 A2.5,2.5 0 0 1 1148.5,37" fill="none" style="stroke:#000000;stroke-width:1.5;"/><line style="stroke:#000000;stroke-width:1.5;" x1="1146" x2="1200.4395" y1="59.4063" y2="59.4063"/><text fill="#000000" font-family="sans-serif" font-size="14" font-weight="bold" lengthAdjust="spacing" textLength="41.4395" x="1150" y="51.9883">java.io</text></g><!--cluster org.quurz.foomp.base.types--><g class="cluster" data-entity="org.quurz.foomp.base.types" data-source-line="39" data-uid="ent0008" id="cluster_org.quurz.foomp.base.types"><path d="M1274.5,29 L1454.0889,29 A3.75,3.75 0 0 1 1456.5889,31.5 L1463.5889,51.4063 L1851.5,51.4063 A2.5,2.5 0 0 1 1854,53.9063 L1854,125.5 A2.5,2.5 0 0 1 1851.5,128 L1274.5,128 A2.5,2.5 0 0 1 1272,125.5 L1272,31.5 A2.5,2.5 0 0 1 1274.5,29" fill="none" style="stroke:#000000;stroke-width:1.5;"/><line style="stroke:#000000;stroke-width:1.5;" x1="1272" x2="1463.5889" y1="51.4063" y2="51.4063"/><text fill="#000000" font-family="sans-serif" font-size="14" font-weight="bold" lengthAdjust="spacing" textLength="178.5889" x="1276" y="43.9883">org.quurz.foomp.base.types</text></g><!--class PluginId--><g class="entity" data-entity="PluginId" data-source-line="12" data-uid="ent0003" id="entity_PluginId"><a href="PluginId.html" target="_top" title="PluginId.html" xlink:actuate="onRequest" xlink:href="PluginId.html" xlink:show="new" xlink:title="PluginId.html" xlink:type="simple"><rect fill="#F1F1F1" height="130.0313" rx="2.5" ry="2.5" style="stroke:#181818;stroke-width:0.5;" width="277.6855" x="852" y="200"/><ellipse cx="961.2656" cy="216" fill="#ADD1B2" rx="11" ry="11" style="stroke:#181818;stroke-width:1;"/><path d="M961.3125,222.2031 C962.8125,222.2031 964.0469,221.6406 964.9531,220.5781 L963.5781,219.0625 C963.0313,219.6563 962.375,220.0469 961.5781,220.0469 C959.9063,220.0469 958.75,218.7188 958.75,216.4375 C958.75,214.2188 959.9063,212.875 961.4688,212.875 C962.2813,212.875 962.875,213.1875 963.4063,213.6719 L964.7813,212.125 C964.0313,211.3906 962.875,210.7188 961.4688,210.7188 C958.5156,210.7188 956.1875,212.8594 956.1875,216.5313 C956.1875,220.25 958.5625,222.2031 961.3125,222.2031 Z " fill="#000000"/><text fill="#000000" font-family="sans-serif" font-size="14" lengthAdjust="spacing" textLength="50.6543" x="981.7656" y="220.7852">PluginId</text><line style="stroke:#181818;stroke-width:0.5;" x1="853" x2="1128.6855" y1="232" y2="232"/><line style="stroke:#181818;stroke-width:0.5;" x1="853" x2="1128.6855" y1="240" y2="240"/><ellipse cx="863" cy="253.7031" fill="#84BE84" rx="3" ry="3" style="stroke:#038048;stroke-width:1;"/><text fill="#000000" font-family="sans-serif" font-size="14" lengthAdjust="spacing" text-decoration="underline" textLength="251.6855" x="872" y="256.9883">pluginId(String, String, SemVer): PluginId</text><ellipse cx="863" cy="270.1094" fill="#84BE84" rx="3" ry="3" style="stroke:#038048;stroke-width:1;"/><text fill="#000000" font-family="sans-serif" font-size="14" lengthAdjust="spacing" textLength="110.8721" x="872" y="273.3945">getGroup(): String</text><ellipse cx="863" cy="286.5156" fill="#84BE84" rx="3" ry="3" style="stroke:#038048;stroke-width:1;"/><text fill="#000000" font-family="sans-serif" font-size="14" lengthAdjust="spacing" textLength="110.332" x="872" y="289.8008">getName(): String</text><ellipse cx="863" cy="302.9219" fill="#84BE84" rx="3" ry="3" style="stroke:#038048;stroke-width:1;"/><text fill="#000000" font-family="sans-serif" font-size="14" lengthAdjust="spacing" textLength="132.918" x="872" y="306.207">getVersion(): SemVer</text><ellipse cx="863" cy="319.3281" fill="#84BE84" rx="3" ry="3" style="stroke:#038048;stroke-width:1;"/><text fill="#000000" font-family="sans-serif" font-size="14" lengthAdjust="spacing" textLength="132.5693" x="872" y="322.6133">eq(PluginId): boolean</text></a></g><!--class PluginMetaData--><g class="entity" data-entity="PluginMetaData" data-source-line="20" data-uid="ent0004" id="entity_PluginMetaData"><a href="PluginMetaData.html" target="_top" title="PluginMetaData.html" xlink:actuate="onRequest" xlink:href="PluginMetaData.html" xlink:show="new" xlink:title="PluginMetaData.html" xlink:type="simple"><rect fill="#F1F1F1" height="113.625" rx="2.5" ry="2.5" style="stroke:#181818;stroke-width:0.5;" width="492.0811" x="638" y="31"/><ellipse cx="829.895" cy="47" fill="#ADD1B2" rx="11" ry="11" style="stroke:#181818;stroke-width:1;"/><path d="M829.9419,53.2031 C831.4419,53.2031 832.6763,52.6406 833.5825,51.5781 L832.2075,50.0625 C831.6606,50.6563 831.0044,51.0469 830.2075,51.0469 C828.5356,51.0469 827.3794,49.7188 827.3794,47.4375 C827.3794,45.2188 828.5356,43.875 830.0981,43.875 C830.9106,43.875 831.5044,44.1875 832.0356,44.6719 L833.4106,43.125 C832.6606,42.3906 831.5044,41.7188 830.0981,41.7188 C827.145,41.7188 824.8169,43.8594 824.8169,47.5313 C824.8169,51.25 827.1919,53.2031 829.9419,53.2031 Z " fill="#000000"/><text fill="#000000" font-family="sans-serif" font-size="14" lengthAdjust="spacing" textLength="99.791" x="850.395" y="51.7852">PluginMetaData</text><line style="stroke:#181818;stroke-width:0.5;" x1="639" x2="1129.0811" y1="63" y2="63"/><line style="stroke:#181818;stroke-width:0.5;" x1="639" x2="1129.0811" y1="71" y2="71"/><ellipse cx="649" cy="84.7031" fill="#84BE84" rx="3" ry="3" style="stroke:#038048;stroke-width:1;"/><text fill="#000000" font-family="sans-serif" font-size="14" lengthAdjust="spacing" text-decoration="underline" textLength="466.0811" x="658" y="87.9883">pluginMetaData(String, String, String, String, String, String): PluginMetaData</text><ellipse cx="649" cy="101.1094" fill="#84BE84" rx="3" ry="3" style="stroke:#038048;stroke-width:1;"/><text fill="#000000" font-family="sans-serif" font-size="14" lengthAdjust="spacing" textLength="126.7041" x="658" y="104.3945">getContract(): String</text><ellipse cx="649" cy="117.5156" fill="#84BE84" rx="3" ry="3" style="stroke:#038048;stroke-width:1;"/><text fill="#000000" font-family="sans-serif" font-size="14" lengthAdjust="spacing" textLength="171.1309" x="658" y="120.8008">getImplementation(): String</text><ellipse cx="649" cy="133.9219" fill="#84BE84" rx="3" ry="3" style="stroke:#038048;stroke-width:1;"/><text fill="#000000" font-family="sans-serif" font-size="14" lengthAdjust="spacing" textLength="143.9033" x="658" y="137.207">getDescription(): String</text></a></g><!--class PluginMetaDataValidator--><g class="entity" data-entity="PluginMetaDataValidator" data-source-line="27" data-uid="ent0005" id="entity_PluginMetaDataValidator"><a href="PluginMetaDataValidator.html" target="_top" title="PluginMetaDataValidator.html" xlink:actuate="onRequest" xlink:href="PluginMetaDataValidator.html" xlink:show="new" xlink:title="PluginMetaDataValidator.html" xlink:type="simple"><rect fill="#F1F1F1" height="97.2188" rx="2.5" ry="2.5" style="stroke:#181818;stroke-width:0.5;" width="597.2451" x="22.5" y="39.5"/><ellipse cx="238.8984" cy="55.5" fill="#ADD1B2" rx="11" ry="11" style="stroke:#181818;stroke-width:1;"/><path d="M238.9453,61.7031 C240.4453,61.7031 241.6797,61.1406 242.5859,60.0781 L241.2109,58.5625 C240.6641,59.1563 240.0078,59.5469 239.2109,59.5469 C237.5391,59.5469 236.3828,58.2188 236.3828,55.9375 C236.3828,53.7188 237.5391,52.375 239.1016,52.375 C239.9141,52.375 240.5078,52.6875 241.0391,53.1719 L242.4141,51.625 C241.6641,50.8906 240.5078,50.2188 239.1016,50.2188 C236.1484,50.2188 233.8203,52.3594 233.8203,56.0313 C233.8203,59.75 236.1953,61.7031 238.9453,61.7031 Z " fill="#000000"/><text fill="#000000" font-family="sans-serif" font-size="14" lengthAdjust="spacing" textLength="155.9482" x="259.3984" y="60.2852">PluginMetaDataValidator</text><line style="stroke:#181818;stroke-width:0.5;" x1="23.5" x2="618.7451" y1="71.5" y2="71.5"/><line style="stroke:#181818;stroke-width:0.5;" x1="23.5" x2="618.7451" y1="79.5" y2="79.5"/><ellipse cx="33.5" cy="93.2031" fill="#84BE84" rx="3" ry="3" style="stroke:#038048;stroke-width:1;"/><text fill="#000000" font-family="sans-serif" font-size="14" lengthAdjust="spacing" text-decoration="underline" textLength="531.2275" x="42.5" y="96.4883">loadAndValidatePluginMetadata(String): Result&lt;Either&lt;List&lt;Error&gt;, PluginMetaData&gt;&gt;</text><ellipse cx="33.5" cy="109.6094" fill="#84BE84" rx="3" ry="3" style="stroke:#038048;stroke-width:1;"/><text fill="#000000" font-family="sans-serif" font-size="14" lengthAdjust="spacing" text-decoration="underline" textLength="523.332" x="42.5" y="112.8945">loadAndValidatePluginMetadata(Path): Result&lt;Either&lt;List&lt;Error&gt;, PluginMetaData&gt;&gt;</text><ellipse cx="33.5" cy="126.0156" fill="#84BE84" rx="3" ry="3" style="stroke:#038048;stroke-width:1;"/><text fill="#000000" font-family="sans-serif" font-size="14" lengthAdjust="spacing" text-decoration="underline" textLength="571.2451" x="42.5" y="129.3008">loadAndValidatePluginMetadata(InputStream): Result&lt;Either&lt;List&lt;Error&gt;, PluginMetaData&gt;&gt;</text></a></g><!--class Serializable--><g class="entity" data-entity="Serializable" data-source-line="36" data-uid="ent0007" id="entity_Serializable"><rect fill="#F1F1F1" height="48" rx="2.5" ry="2.5" style="stroke:#181818;stroke-width:0.5;" width="101.4189" x="1154.5" y="64"/><ellipse cx="1169.5" cy="80" fill="#B4A7E5" rx="11" ry="11" style="stroke:#181818;stroke-width:1;"/><path d="M1165.7656,86 L1173.4375,86 L1173.4375,83.8906 L1170.8594,83.8906 L1170.8594,77.0313 L1173.4375,77.0313 L1173.4375,74.9219 L1165.7656,74.9219 L1165.7656,77.0313 L1168.3438,77.0313 L1168.3438,83.8906 L1165.7656,83.8906 L1165.7656,86 Z " fill="#000000"/><text fill="#000000" font-family="sans-serif" font-size="14" font-style="italic" lengthAdjust="spacing" textLength="69.4189" x="1183.5" y="84.7852">Serializable</text><line style="stroke:#181818;stroke-width:0.5;" x1="1155.5" x2="1254.9189" y1="96" y2="96"/><line style="stroke:#181818;stroke-width:0.5;" x1="1155.5" x2="1254.9189" y1="104" y2="104"/></g><!--class Eq--><g class="entity" data-entity="Eq" data-source-line="40" data-uid="ent0009" id="entity_Eq"><rect fill="#F1F1F1" height="64.4063" rx="2.5" ry="2.5" style="stroke:#181818;stroke-width:0.5;" width="565.5127" x="1280" y="56"/><ellipse cx="1496.895" cy="72" fill="#B4A7E5" rx="11" ry="11" style="stroke:#181818;stroke-width:1;"/><path d="M1493.1606,78 L1500.8325,78 L1500.8325,75.8906 L1498.2544,75.8906 L1498.2544,69.0313 L1500.8325,69.0313 L1500.8325,66.9219 L1493.1606,66.9219 L1493.1606,69.0313 L1495.7388,69.0313 L1495.7388,75.8906 L1493.1606,75.8906 L1493.1606,78 Z " fill="#000000"/><text fill="#000000" font-family="sans-serif" font-size="14" font-style="italic" lengthAdjust="spacing" textLength="15.4355" x="1517.395" y="76.7852">Eq</text><rect fill="#FFFFFF" height="16.0625" style="stroke:#181818;stroke-width:1;stroke-dasharray:2,2;" width="105.7871" x="1742.7256" y="53"/><text fill="#000000" font-family="sans-serif" font-size="12" font-style="italic" lengthAdjust="spacing" textLength="103.7871" x="1743.7256" y="65.1328">SELF extends Eq&lt;?&gt;</text><line style="stroke:#181818;stroke-width:0.5;" x1="1281" x2="1844.5127" y1="88" y2="88"/><line style="stroke:#181818;stroke-width:0.5;" x1="1281" x2="1844.5127" y1="96" y2="96"/><ellipse cx="1291" cy="109.7031" fill="#84BE84" rx="3" ry="3" style="stroke:#038048;stroke-width:1;"/><text fill="#000000" font-family="sans-serif" font-size="14" font-style="italic" lengthAdjust="spacing" textLength="539.5127" x="1300" y="112.9883">eq(@org.checkerframework.checker.nullness.qual.NonNull SELF extends Eq&lt;?&gt;): boolean</text></g><g class="link" data-entity-1="Serializable" data-entity-2="PluginId" data-uid="lnk10" id="link_Serializable_PluginId"><polygon fill="none" points="1179.5533,112.2355,1162.1558,119.8068,1170.1781,128.7311,1179.5533,112.2355" style="stroke:#181818;stroke-width:1;"/><path d="M1166.1669,124.269 C1154.8101,134.4781 1154.567,134.4785 1142,145 C1120.3746,163.1056 1096.5736,182.2238 1074.3895,199.7137" fill="none" style="stroke:#181818;stroke-width:1;stroke-dasharray:7,7;"/></g><g class="link" data-entity-1="Eq" data-entity-2="PluginId" data-uid="lnk11" id="link_Eq_PluginId"><polygon fill="none" points="1461.397,120.0848,1442.4292,119.6134,1445.9399,131.0884,1461.397,120.0848" style="stroke:#181818;stroke-width:1;"/><path d="M1444.1845,125.3509 C1351.9672,153.5642 1232.3743,190.153 1130.0382,221.4621" fill="none" style="stroke:#181818;stroke-width:1;stroke-dasharray:7,7;"/></g><g class="link" data-entity-1="PluginMetaData" data-entity-2="PluginId" data-uid="lnk12" id="link_PluginMetaData_PluginId"><polygon fill="#181818" points="951.7861,199.865,950.5039,190.1,949.1778,195.5992,943.6786,194.2732,951.7861,199.865" style="stroke:#181818;stroke-width:1;"/><path d="M918.4444,145.3344 C929.0746,162.7201 937.7294,176.8752 948.6562,194.7461" fill="none" style="stroke:#181818;stroke-width:1;"/><text fill="#000000" font-family="sans-serif" font-size="13" lengthAdjust="spacing" textLength="10.4927" x="942" y="177.0605">id</text></g><g class="footer" data-source-line="55"><text fill="#888888" font-family="sans-serif" font-size="10" lengthAdjust="spacing" textLength="2.4805" x="921.2598" y="349.2773">&#160;</text><a href="https://github.com/talsma-ict/umldoclet" target="_top" title="https://github.com/talsma-ict/umldoclet" xlink:actuate="onRequest" xlink:href="https://github.com/talsma-ict/umldoclet" xlink:show="new" xlink:title="https://github.com/talsma-ict/umldoclet" xlink:type="simple"><text fill="#888888" font-family="sans-serif" font-size="10" lengthAdjust="spacing" textLength="73.7207" x="885.6396" y="360.9961">UMLDoclet 2.2.4</text></a></g><!--SRC=[lLLDSzD84BtpAtgB0wOIZsKH8AXSPhEEWL0cHP6GYzU7jjIHPpsQaMT6W67ptxSbovznagqSq4NIz9lkrs-ckm40da7Fv7Chqua7Ry1Ff8EldmQ0Ee6KD5dqb83CC2K7Or96fsu19C32Jum5SrtznSPQShdHYTGfVCHl2CuKDYOddZo1AjJbqljtT1lUn_DoyTJ4YZmqUiytA8L1-rKp3C9NS8dAPGXdlKjHUrll2KKeZe1zAncJTkooq0dPYjP9ZZ6_1WlB8NmZwwJHl2Ue_PIfnaPxbDf1ZjQxCgNF2hKlkRO5ntyfsW4qJYu6s-I2DnMvGpYn6ei4lfXPiShtZznYofGLpatXmMNaKMDbSapQ4ST2pm96qM83Cvsopc1iAcP5ON-AN1Kfin89UeHV2rJvn0gTOugbzIo1uN3vAIO-KwCHOs7Z-UKyUXdVm45UuneNtl8n7SBgJTaLsUVHokcMWuEK_7jhYhp1YCMMM_PppEWUyzL2zmfHnTf6qAonZCo8iJ6AKAyWD_jJ_yIAdfRIB0LOBlm_6PRessBS-rw9jDn_AzSUtoQBiRz7ZhCiLvIHBXdLgkm7dfABhSplG3qWp1KgcLHtR5UXbUKXgPJ1v4GdDPxMNfArSiph2xb2-KvVSitPpa0w_hRMsExX3gLkzr61FgEV_8OmPpelF2T5c3qoMdqYDzib_G-tGo7DXifIUxBN61ENWvNCvYUE5UtRksu7ryPakHYZ8-7dEJVaVUxwiyv5V_0Ew8SddRZo_sstktk-E7RL5RsfIk_FCWQtoNZAJYmNydTZfyi5eGkbD3d7B529SwFFUG5k1zbRk1i9rI94qMR6qFbNY3jQNXHjTQExXOYY_knHZlQ1LbsbsUm-w2y2cIoowpW_LxI-2CoHZsH7zm_CrWwadlQCugfyUhpV-hKSNqfgueaPJqlj8TZHjDFQY5V7-biFXnFlSnUrMYbVsc8iOfErV3KwcpBshI9JoM9cxapFqQYUXkzNOxcSRCtWg1c6bs4O1I-Yy5WSlswtNn-5RuuE0buAXlt2cfnQVrLiH_y1]--></g></svg>