<svg xmlns="http://www.w3.org/2000/svg" xmlns:xlink="http://www.w3.org/1999/xlink" contentStyleType="text/css" data-diagram-type="CLASS" height="264px" preserveAspectRatio="none" style="width:340px;height:264px;background:#FFFFFF;" version="1.1" viewBox="0 0 340 264" width="340px" zoomAndPan="magnify"><defs/><g><!--class org.quurz.plugins.data.PluginId--><g class="entity" data-entity="org.quurz.plugins.data.PluginId" data-source-line="13" data-uid="ent0002" id="entity_org.quurz.plugins.data.PluginId"><a href="PluginId.html" target="_top" title="PluginId.html" xlink:actuate="onRequest" xlink:href="PluginId.html" xlink:show="new" xlink:title="PluginId.html" xlink:type="simple"><rect fill="#F1F1F1" height="128.1563" rx="2.5" ry="2.5" style="stroke:#181818;stroke-width:0.5;" width="277.6855" x="6" y="111"/><ellipse cx="90.7148" cy="130.0625" fill="#ADD1B2" rx="11" ry="11" style="stroke:#181818;stroke-width:1;"/><path d="M90.7617,136.2656 C92.2617,136.2656 93.4961,135.7031 94.4023,134.6406 L93.0273,133.125 C92.4805,133.7188 91.8242,134.1094 91.0273,134.1094 C89.3555,134.1094 88.1992,132.7813 88.1992,130.5 C88.1992,128.2813 89.3555,126.9375 90.918,126.9375 C91.7305,126.9375 92.3242,127.25 92.8555,127.7344 L94.2305,126.1875 C93.4805,125.4531 92.3242,124.7813 90.918,124.7813 C87.9648,124.7813 85.6367,126.9219 85.6367,130.5938 C85.6367,134.3125 88.0117,136.2656 90.7617,136.2656 Z " fill="#000000"/><text fill="#000000" font-family="sans-serif" font-size="14" lengthAdjust="spacing" textLength="50.6543" x="135.7656" y="128.9883">PluginId</text><text fill="#000000" font-family="sans-serif" font-size="10" lengthAdjust="spacing" textLength="99.7559" x="111.2148" y="141.6836">org.quurz.plugins.data</text><line style="stroke:#181818;stroke-width:0.5;" x1="7" x2="282.6855" y1="149.125" y2="149.125"/><ellipse cx="17" cy="162.8281" fill="#84BE84" rx="3" ry="3" style="stroke:#038048;stroke-width:1;"/><text fill="#000000" font-family="sans-serif" font-size="14" lengthAdjust="spacing" text-decoration="underline" textLength="251.6855" x="26" y="166.1133">pluginId(String, String, SemVer): PluginId</text><ellipse cx="17" cy="179.2344" fill="#84BE84" rx="3" ry="3" style="stroke:#038048;stroke-width:1;"/><text fill="#000000" font-family="sans-serif" font-size="14" lengthAdjust="spacing" textLength="110.8721" x="26" y="182.5195">getGroup(): String</text><ellipse cx="17" cy="195.6406" fill="#84BE84" rx="3" ry="3" style="stroke:#038048;stroke-width:1;"/><text fill="#000000" font-family="sans-serif" font-size="14" lengthAdjust="spacing" textLength="110.332" x="26" y="198.9258">getName(): String</text><ellipse cx="17" cy="212.0469" fill="#84BE84" rx="3" ry="3" style="stroke:#038048;stroke-width:1;"/><text fill="#000000" font-family="sans-serif" font-size="14" lengthAdjust="spacing" textLength="132.918" x="26" y="215.332">getVersion(): SemVer</text><ellipse cx="17" cy="228.4531" fill="#84BE84" rx="3" ry="3" style="stroke:#038048;stroke-width:1;"/><text fill="#000000" font-family="sans-serif" font-size="14" lengthAdjust="spacing" textLength="132.5693" x="26" y="231.7383">eq(PluginId): boolean</text></a></g><!--class java.io.Serializable--><g class="entity" data-entity="java.io.Serializable" data-source-line="21" data-uid="ent0003" id="entity_java.io.Serializable"><rect fill="#F1F1F1" height="38.125" rx="2.5" ry="2.5" style="stroke:#181818;stroke-width:0.5;" width="101.4189" x="10.5" y="24.5"/><ellipse cx="25.5" cy="43.5625" fill="#B4A7E5" rx="11" ry="11" style="stroke:#181818;stroke-width:1;"/><path d="M21.7656,49.5625 L29.4375,49.5625 L29.4375,47.4531 L26.8594,47.4531 L26.8594,40.5938 L29.4375,40.5938 L29.4375,38.4844 L21.7656,38.4844 L21.7656,40.5938 L24.3438,40.5938 L24.3438,47.4531 L21.7656,47.4531 L21.7656,49.5625 Z " fill="#000000"/><text fill="#000000" font-family="sans-serif" font-size="14" font-style="italic" lengthAdjust="spacing" textLength="69.4189" x="39.5" y="42.4883">Serializable</text><text fill="#000000" font-family="sans-serif" font-size="10" font-style="italic" lengthAdjust="spacing" textLength="28.0225" x="60.1982" y="55.1836">java.io</text></g><!--class org.quurz.foomp.base.types.Eq--><g class="entity" data-entity="org.quurz.foomp.base.types.Eq" data-source-line="22" data-uid="ent0004" id="entity_org.quurz.foomp.base.types.Eq"><rect fill="#F1F1F1" height="62.5313" rx="2.5" ry="2.5" style="stroke:#181818;stroke-width:0.5;" width="199.5469" x="130" y="12"/><ellipse cx="145" cy="31.0625" fill="#B4A7E5" rx="11" ry="11" style="stroke:#181818;stroke-width:1;"/><path d="M141.2656,37.0625 L148.9375,37.0625 L148.9375,34.9531 L146.3594,34.9531 L146.3594,28.0938 L148.9375,28.0938 L148.9375,25.9844 L141.2656,25.9844 L141.2656,28.0938 L143.8438,28.0938 L143.8438,34.9531 L141.2656,34.9531 L141.2656,37.0625 Z " fill="#000000"/><text fill="#000000" font-family="sans-serif" font-size="14" font-style="italic" lengthAdjust="spacing" textLength="15.4355" x="212" y="29.9883">Eq</text><text fill="#000000" font-family="sans-serif" font-size="10" font-style="italic" lengthAdjust="spacing" textLength="121.4355" x="159" y="42.6836">org.quurz.foomp.base.types</text><rect fill="#FFFFFF" height="16.0625" style="stroke:#181818;stroke-width:1;stroke-dasharray:2,2;" width="44.1113" x="288.4355" y="9"/><text fill="#000000" font-family="sans-serif" font-size="12" font-style="italic" lengthAdjust="spacing" textLength="42.1113" x="289.4355" y="21.1328">PluginId</text><line style="stroke:#181818;stroke-width:0.5;" x1="131" x2="328.5469" y1="50.125" y2="50.125"/><ellipse cx="141" cy="63.8281" fill="#84BE84" rx="3" ry="3" style="stroke:#038048;stroke-width:1;"/><text fill="#000000" font-family="sans-serif" font-size="14" font-style="italic" lengthAdjust="spacing" textLength="128.7275" x="150" y="67.1133">eq(PluginId): boolean</text></g><g class="link" data-entity-1="java.io.Serializable" data-entity-2="org.quurz.plugins.data.PluginId" data-uid="lnk5" id="link_java.io.Serializable_org.quurz.plugins.data.PluginId"><polygon fill="none" points="72.6798,62.5064,77.4415,80.8729,87.509,74.3426,72.6798,62.5064" style="stroke:#181818;stroke-width:1;"/><path d="M82.4753,77.6077 C90.7249,90.3259 92.5208,93.0946 104.0112,110.8089" fill="none" style="stroke:#181818;stroke-width:1;stroke-dasharray:7,7;"/></g><g class="link" data-entity-1="org.quurz.foomp.base.types.Eq" data-entity-2="org.quurz.plugins.data.PluginId" data-uid="lnk6" id="link_org.quurz.foomp.base.types.Eq_org.quurz.plugins.data.PluginId"><polygon fill="none" points="209.8562,75.1897,194.9631,86.9454,204.9951,93.5301,209.8562,75.1897" style="stroke:#181818;stroke-width:1;"/><path d="M199.9791,90.2377 C192.9097,101.0082 194.5637,98.4883 186.3951,110.9334" fill="none" style="stroke:#181818;stroke-width:1;stroke-dasharray:7,7;"/></g><g class="footer" data-source-line="35"><text fill="#888888" font-family="sans-serif" font-size="10" lengthAdjust="spacing" textLength="2.4805" x="163.2598" y="242.2773">&#160;</text><a href="https://github.com/talsma-ict/umldoclet" target="_top" title="https://github.com/talsma-ict/umldoclet" xlink:actuate="onRequest" xlink:href="https://github.com/talsma-ict/umldoclet" xlink:show="new" xlink:title="https://github.com/talsma-ict/umldoclet" xlink:type="simple"><text fill="#888888" font-family="sans-serif" font-size="10" lengthAdjust="spacing" textLength="73.7207" x="127.6396" y="253.9961">UMLDoclet 2.2.4</text></a></g><!--SRC=[ZLHHRzem47xlhxXr3wDgCI6ZLK48gMFLrebDrQ1zeJmSoH6yEdQmdKwqux_FSO2cY6xDIvBxpjzzzza-080Fq5VPKlDaRi4gi7DkuERx0536a90aZPPYu2acP61AGid4b8a4cDkvqg1c_YzIMfF9b8ovJE0RFY0ObUk833iu05zgj67_ZQR2FbqMmSyg4cIXrZ-gI0g3vbaz3C8p6A4mAS9LVyJMRCzhGXQo5ZXkmIEInb7cCYRjPLra6BdNe4HEu86quKgwDS6QfsWrKj8YbmOorDOKBLqBbBRGscIk_Ybh1b2x60vUYWlQNjm9N6Y9UGm_rIBVzlikqvWuoGANAhTWKh8eiSICKoqnTNvXH4DoLT4wAwMIvF4vZmaepUmIPfn4R7QZZcokNDZ78u76m67Ny4VgD5kzQv4dN5x5Tt8T2dfA9soHv_gHPHuqB4QBX-0sOZ_4DYGm7cy-sTocOZA19r-rU9wCHSkZ5HndwvpQq6ft04vW-wRqblHH1pOisyN72TalMkLPpQ5b-WliXpFe5UYst4MFUlvdb1QrJIM7JfKIXDB3gz8jBYtfcVEzujYGD4V17t4ggEBQBtUA6LVUflKtgwQ-odUvsElzJAaqOrCqnEmo8xFZ_oxCBXVTJI-zgkiuDLPZP5TlQ7UVRkZ-OUn_6-zN_rFSssWyJzVOfQ3UjWN7vbohz5GyNnsl7d1vtrV2tORtv_lHc-9o2ox9pPFeNf8x-y4sSrMMQrJghMlToV5uRcrcEer6mkqydx98fGth1qkTHxQHfo8k9yhER9bCrhFYotPe5VU-7hJgOJWAmqxmiHEsMJCy3rgdxR1z7BXGCBxCjSgeySchdVm5]--></g></svg>