<svg xmlns="http://www.w3.org/2000/svg" xmlns:xlink="http://www.w3.org/1999/xlink" contentStyleType="text/css" data-diagram-type="CLASS" height="136px" preserveAspectRatio="none" style="width:233px;height:136px;background:#FFFFFF;" version="1.1" viewBox="0 0 233 136" width="233px" zoomAndPan="magnify"><defs/><g><!--cluster org.quurz.plugins.test.contract--><g class="cluster" data-entity="org.quurz.plugins.test.contract" data-source-line="10" data-uid="ent0002" id="cluster_org.quurz.plugins.test.contract"><path d="M16.5,4 L213.5342,4 A3.75,3.75 0 0 1 216.0342,6.5 L223.0342,26.4063 L223.5,26.4063 A2.5,2.5 0 0 1 226,28.9063 L226,100.5 A2.5,2.5 0 0 1 223.5,103 L16.5,103 A2.5,2.5 0 0 1 14,100.5 L14,6.5 A2.5,2.5 0 0 1 16.5,4" fill="none" style="stroke:#000000;stroke-width:1.5;"/><line style="stroke:#000000;stroke-width:1.5;" x1="14" x2="223.0342" y1="26.4063" y2="26.4063"/><text fill="#000000" font-family="sans-serif" font-size="14" font-weight="bold" lengthAdjust="spacing" textLength="196.0342" x="18" y="18.9883">org.quurz.plugins.test.contract</text></g><!--class TestContract--><g class="entity" data-entity="TestContract" data-source-line="12" data-uid="ent0003" id="entity_TestContract"><a href="TestContract.html" target="_top" title="TestContract.html" xlink:actuate="onRequest" xlink:href="TestContract.html" xlink:show="new" xlink:title="TestContract.html" xlink:type="simple"><rect fill="#F1F1F1" height="64.4063" rx="2.5" ry="2.5" style="stroke:#181818;stroke-width:0.5;" width="146.2441" x="47" y="31"/><ellipse cx="77.9416" cy="47" fill="#B4A7E5" rx="11" ry="11" style="stroke:#181818;stroke-width:1;"/><path d="M74.2072,53 L81.8791,53 L81.8791,50.8906 L79.301,50.8906 L79.301,44.0313 L81.8791,44.0313 L81.8791,41.9219 L74.2072,41.9219 L74.2072,44.0313 L76.7854,44.0313 L76.7854,50.8906 L74.2072,50.8906 L74.2072,53 Z " fill="#000000"/><text fill="#000000" font-family="sans-serif" font-size="14" font-style="italic" lengthAdjust="spacing" textLength="78.8184" x="95.4842" y="51.7852">TestContract</text><line style="stroke:#181818;stroke-width:0.5;" x1="48" x2="192.2441" y1="63" y2="63"/><line style="stroke:#181818;stroke-width:0.5;" x1="48" x2="192.2441" y1="71" y2="71"/><ellipse cx="58" cy="84.7031" fill="#84BE84" rx="3" ry="3" style="stroke:#038048;stroke-width:1;"/><text fill="#000000" font-family="sans-serif" font-size="14" lengthAdjust="spacing" textLength="120.2441" x="67" y="87.9883">echo(String): String</text></a></g><g class="footer" data-source-line="24"><text fill="#888888" font-family="sans-serif" font-size="10" lengthAdjust="spacing" textLength="2.4805" x="107.2598" y="114.2773">&#160;</text><a href="https://github.com/talsma-ict/umldoclet" target="_top" title="https://github.com/talsma-ict/umldoclet" xlink:actuate="onRequest" xlink:href="https://github.com/talsma-ict/umldoclet" xlink:show="new" xlink:title="https://github.com/talsma-ict/umldoclet" xlink:type="simple"><text fill="#888888" font-family="sans-serif" font-size="10" lengthAdjust="spacing" textLength="73.7207" x="71.6396" y="125.9961">UMLDoclet 2.2.4</text></a></g><!--SRC=[RL9DRzim3BttLt3OOIdQoBBR5Qqn3CYoOH_8W65rJraEYipOGcJ9bQWMth3_FjbECw-OBh9Cyhr7FW80l8AbRJkdgfg0B52jFDnzNO4m9LHeq0d24bGZAlImHMrDvST4116ejWxiRdX9wnpwrffIcGg-Y0S1tWOdqREJ4nYeYYVqH-4dwDkk__dUIeq4i-NfH5B6qwjvnhChA8JsZO3Fou8TqFxMP2nZbn2njP9eV8GCfaGto5gqGiPhDKREuG6TLzR46dx0wLkLrf1GnaCh7Fc-fMzQ6EgrfYpolsOfXzdYTlMlE7upY3k7XJCYbF3TteTZlozQ9weeMOlE1WBV80aZXf2FeZr6Ba5nW7a-5aIb-pXdiAvYzo6udwpLeOgg6A4drcjqGXBy6jFxemoXsmc9KCIKvLF6UZrzifeQlTd4EfYSCvIrdTsIYtQTvZ1-73D-Zno7wusdJkFROtHdRUHz1lYfQz6jbDalhOvTlRp-V_IkjqOhWt4RvDwWzy0dj0DTCk4xSFqmwtLDrFeyIIf5TTZ6WJG93MinLvAIqEXot8Tdcx7P79p-U5ovthKvlvod5qN6y-mYvodZwKqqclFhCvxbdAy_16TRJDuDQZT_0000]--></g></svg>