<svg xmlns="http://www.w3.org/2000/svg" xmlns:xlink="http://www.w3.org/1999/xlink" contentStyleType="text/css" data-diagram-type="CLASS" height="284px" preserveAspectRatio="none" style="width:339px;height:284px;background:#FFFFFF;" version="1.1" viewBox="0 0 339 284" width="339px" zoomAndPan="magnify"><defs/><g><!--cluster org.quurz.plugins.localisation--><g class="cluster" data-entity="org.quurz.plugins.localisation" data-source-line="10" data-uid="ent0002" id="cluster_org.quurz.plugins.localisation"><path d="M16.5,4 L205.5498,4 A3.75,3.75 0 0 1 208.0498,6.5 L215.0498,26.4063 L329.5,26.4063 A2.5,2.5 0 0 1 332,28.9063 L332,248.5 A2.5,2.5 0 0 1 329.5,251 L16.5,251 A2.5,2.5 0 0 1 14,248.5 L14,6.5 A2.5,2.5 0 0 1 16.5,4" fill="none" style="stroke:#000000;stroke-width:1.5;"/><line style="stroke:#000000;stroke-width:1.5;" x1="14" x2="215.0498" y1="26.4063" y2="26.4063"/><text fill="#000000" font-family="sans-serif" font-size="14" font-weight="bold" lengthAdjust="spacing" textLength="188.0498" x="18" y="18.9883">org.quurz.plugins.localisation</text></g><!--class PluginsMessages--><g class="entity" data-entity="PluginsMessages" data-source-line="12" data-uid="ent0003" id="entity_PluginsMessages"><a href="PluginsMessages.html" target="_top" title="PluginsMessages.html" xlink:actuate="onRequest" xlink:href="PluginsMessages.html" xlink:show="new" xlink:title="PluginsMessages.html" xlink:type="simple"><rect fill="#F1F1F1" height="212.0625" rx="2.5" ry="2.5" style="stroke:#181818;stroke-width:0.5;" width="301.8643" x="22" y="31"/><ellipse cx="113.4819" cy="47" fill="#ADD1B2" rx="11" ry="11" style="stroke:#181818;stroke-width:1;"/><path d="M113.5288,53.2031 C115.0288,53.2031 116.2632,52.6406 117.1694,51.5781 L115.7944,50.0625 C115.2476,50.6563 114.5913,51.0469 113.7944,51.0469 C112.1226,51.0469 110.9663,49.7188 110.9663,47.4375 C110.9663,45.2188 112.1226,43.875 113.6851,43.875 C114.4976,43.875 115.0913,44.1875 115.6226,44.6719 L116.9976,43.125 C116.2476,42.3906 115.0913,41.7188 113.6851,41.7188 C110.7319,41.7188 108.4038,43.8594 108.4038,47.5313 C108.4038,51.25 110.7788,53.2031 113.5288,53.2031 Z " fill="#000000"/><text fill="#000000" font-family="sans-serif" font-size="14" lengthAdjust="spacing" textLength="110.4004" x="133.9819" y="51.7852">PluginsMessages</text><line style="stroke:#181818;stroke-width:0.5;" x1="23" x2="322.8643" y1="63" y2="63"/><line style="stroke:#181818;stroke-width:0.5;" x1="23" x2="322.8643" y1="71" y2="71"/><ellipse cx="33" cy="84.7031" fill="#84BE84" rx="3" ry="3" style="stroke:#038048;stroke-width:1;"/><text fill="#000000" font-family="sans-serif" font-size="14" lengthAdjust="spacing" text-decoration="underline" textLength="253.0938" x="42" y="87.9883">pluginManagerAlreadyInitialised(): String</text><ellipse cx="33" cy="101.1094" fill="#84BE84" rx="3" ry="3" style="stroke:#038048;stroke-width:1;"/><text fill="#000000" font-family="sans-serif" font-size="14" lengthAdjust="spacing" text-decoration="underline" textLength="228.8057" x="42" y="104.3945">pluginManagerNotInitialised(): String</text><ellipse cx="33" cy="117.5156" fill="#84BE84" rx="3" ry="3" style="stroke:#038048;stroke-width:1;"/><text fill="#000000" font-family="sans-serif" font-size="14" lengthAdjust="spacing" text-decoration="underline" textLength="267.9004" x="42" y="120.8008">unableToCreateBaseDirectory(Path): String</text><ellipse cx="33" cy="133.9219" fill="#84BE84" rx="3" ry="3" style="stroke:#038048;stroke-width:1;"/><text fill="#000000" font-family="sans-serif" font-size="14" lengthAdjust="spacing" text-decoration="underline" textLength="275.8643" x="42" y="137.207">unableToCreatePluginDirectory(Path): String</text><ellipse cx="33" cy="150.3281" fill="#84BE84" rx="3" ry="3" style="stroke:#038048;stroke-width:1;"/><text fill="#000000" font-family="sans-serif" font-size="14" lengthAdjust="spacing" text-decoration="underline" textLength="233.9053" x="42" y="153.6133">unableToStorePlugin(PluginId): String</text><ellipse cx="33" cy="166.7344" fill="#84BE84" rx="3" ry="3" style="stroke:#038048;stroke-width:1;"/><text fill="#000000" font-family="sans-serif" font-size="14" lengthAdjust="spacing" text-decoration="underline" textLength="227.6299" x="42" y="170.0195">unableToFindPlugin(PluginId): String</text><ellipse cx="33" cy="183.1406" fill="#84BE84" rx="3" ry="3" style="stroke:#038048;stroke-width:1;"/><text fill="#000000" font-family="sans-serif" font-size="14" lengthAdjust="spacing" text-decoration="underline" textLength="251.2686" x="42" y="186.4258">unableToRetrievePlugin(PluginId): String</text><ellipse cx="33" cy="199.5469" fill="#84BE84" rx="3" ry="3" style="stroke:#038048;stroke-width:1;"/><text fill="#000000" font-family="sans-serif" font-size="14" lengthAdjust="spacing" text-decoration="underline" textLength="251.3779" x="42" y="202.832">unableToRemovePlugin(PluginId): String</text><ellipse cx="33" cy="215.9531" fill="#84BE84" rx="3" ry="3" style="stroke:#038048;stroke-width:1;"/><text fill="#000000" font-family="sans-serif" font-size="14" lengthAdjust="spacing" text-decoration="underline" textLength="229.9404" x="42" y="219.2383">unableToCreateClassLoader(): String</text><ellipse cx="33" cy="232.3594" fill="#84BE84" rx="3" ry="3" style="stroke:#038048;stroke-width:1;"/><text fill="#000000" font-family="sans-serif" font-size="14" lengthAdjust="spacing" text-decoration="underline" textLength="191.1055" x="42" y="235.6445">unableToCreatePlugin(): String</text></a></g><g class="footer" data-source-line="33"><text fill="#888888" font-family="sans-serif" font-size="10" lengthAdjust="spacing" textLength="2.4805" x="160.2598" y="262.2773">&#160;</text><a href="https://github.com/talsma-ict/umldoclet" target="_top" title="https://github.com/talsma-ict/umldoclet" xlink:actuate="onRequest" xlink:href="https://github.com/talsma-ict/umldoclet" xlink:show="new" xlink:title="https://github.com/talsma-ict/umldoclet" xlink:type="simple"><text fill="#888888" font-family="sans-serif" font-size="10" lengthAdjust="spacing" textLength="73.7207" x="124.6396" y="273.9961">UMLDoclet 2.2.4</text></a></g><!--SRC=[dLHVJzim47_dKzoqXnL1qpI3hbJJf58snbGc1EMfwyCrEHAhZXti2rE6-Ewx91qhY0TeNgpOz_lZyzq107o0YIqgfzACWIrmfZnSdqy1JG8f6NB8b83ACIKFIzBMfBuD9C2IC-l0tZH_iNMEV65DeamAF_0EmTlInUI3dHref6R_s7-Zts1VLlNcYOqrCNGcknkMeh0_w4PXD80PQfyZd4rcmPhjFoOAek00X5khc8mNoj8av1fRum9ZMQRjoJxSaVFA6i64Qvxwgh4rZCfuAD2nhwzqeT5mxRKVYFvXq0-XCxwQFZKN7ZNczc7i39O9NDhRyl6-xmg7gLZMMDcImUV4QB0vycBQasWXIm97enOWJbUIPx0k3MxBqlq92bscuYhGDaQjF7Bj_BwDhhzOe_TYjOaw9- -RPvhFd-q46UTwiH0aR7ptdeKmVe2zLkPStANanjeH9jMPKQngKKewkoEuOYVF-XhyJyjlmPO6bvfcTYAgJCVewKGvYYKlLUS2ENiRlhtuTWnNWbWJTDhbB7ajzfiooPRGIv8ekgEjuRdT6jmcRL9NqTIYj4ndctI_07feQtIzVFPSQVhoU7fZBKjxFYt7xrL1RghCQcArDCNxuSkdrtLdQsL8XacyCbBX46x8DdAz3RsrrYypdsVCXH_rUgdYh5m6iSrxt4oLhegvL-OwQSV9iy6oMAm7nUdZnAgRlXiUTADe5aMZyECe6WP7uU3Je7_O7-w5iXNElvRE5jGxRjmk_W80]--></g></svg>