<svg xmlns="http://www.w3.org/2000/svg" xmlns:xlink="http://www.w3.org/1999/xlink" contentStyleType="text/css" data-diagram-type="CLASS" height="385px" preserveAspectRatio="none" style="width:1823px;height:385px;background:#FFFFFF;" version="1.1" viewBox="0 0 1823 385" width="1823px" zoomAndPan="magnify"><defs/><g><!--cluster org.quurz.plugins.events--><g class="cluster" data-entity="org.quurz.plugins.events" data-source-line="10" data-uid="ent0002" id="cluster_org.quurz.plugins.events"><path d="M16.5,4 L174.7676,4 A3.75,3.75 0 0 1 177.2676,6.5 L184.2676,26.4063 L1813.5,26.4063 A2.5,2.5 0 0 1 1816,28.9063 L1816,349.5 A2.5,2.5 0 0 1 1813.5,352 L16.5,352 A2.5,2.5 0 0 1 14,349.5 L14,6.5 A2.5,2.5 0 0 1 16.5,4" fill="none" style="stroke:#000000;stroke-width:1.5;"/><line style="stroke:#000000;stroke-width:1.5;" x1="14" x2="184.2676" y1="26.4063" y2="26.4063"/><text fill="#000000" font-family="sans-serif" font-size="14" font-weight="bold" lengthAdjust="spacing" textLength="157.2676" x="18" y="18.9883">org.quurz.plugins.events</text></g><!--class PluginChangeEvent--><g class="entity" data-entity="PluginChangeEvent" data-source-line="12" data-uid="ent0003" id="entity_PluginChangeEvent"><a href="PluginChangeEvent.html" target="_top" title="PluginChangeEvent.html" xlink:actuate="onRequest" xlink:href="PluginChangeEvent.html" xlink:show="new" xlink:title="PluginChangeEvent.html" xlink:type="simple"><rect fill="#F1F1F1" height="162.8438" rx="2.5" ry="2.5" style="stroke:#181818;stroke-width:0.5;" width="523.5605" x="962" y="31"/><ellipse cx="1160.9053" cy="47" fill="#A9DCDF" rx="11" ry="11" style="stroke:#181818;stroke-width:1;"/><path d="M1160.0459,46.6406 C1160.3428,45.5313 1160.6553,44.25 1160.9209,43.0625 L1160.9834,43.0625 C1161.249,44.25 1161.5771,45.5313 1161.874,46.6406 L1162.124,47.6563 L1159.7959,47.6563 L1160.0459,46.6406 Z M1156.0615,52.25 L1158.6084,52.25 L1159.2959,49.6094 L1162.6396,49.6094 L1163.2959,52.25 L1165.9521,52.25 L1162.499,41.1719 L1159.5146,41.1719 L1156.0615,52.25 Z " fill="#000000"/><text fill="#000000" font-family="sans-serif" font-size="14" font-style="italic" lengthAdjust="spacing" textLength="117.25" x="1181.4053" y="51.7852">PluginChangeEvent</text><line style="stroke:#181818;stroke-width:0.5;" x1="963" x2="1484.5605" y1="63" y2="63"/><polygon fill="none" points="973,71.7031,977,75.7031,973,79.7031,969,75.7031" style="stroke:#B38D22;stroke-width:1;"/><text fill="#000000" font-family="sans-serif" font-size="14" lengthAdjust="spacing" textLength="107.2012" x="982" y="79.9883">pluginId: PluginId</text><line style="stroke:#181818;stroke-width:0.5;" x1="963" x2="1484.5605" y1="87.4063" y2="87.4063"/><polygon fill="#FFFF44" points="973,96.1094,977,100.1094,973,104.1094,969,100.1094" style="stroke:#B38D22;stroke-width:1;"/><text fill="#000000" font-family="sans-serif" font-size="14" lengthAdjust="spacing" textLength="181.2002" x="982" y="104.3945">PluginChangeEvent(PluginId)</text><ellipse cx="973" cy="117.5156" fill="#84BE84" rx="3" ry="3" style="stroke:#038048;stroke-width:1;"/><text fill="#000000" font-family="sans-serif" font-size="14" lengthAdjust="spacing" text-decoration="underline" textLength="497.5605" x="982" y="120.8008">pluginChangeAnnouncementEvent(PluginId): PluginChangeAnnouncementEvent</text><ellipse cx="973" cy="133.9219" fill="#84BE84" rx="3" ry="3" style="stroke:#038048;stroke-width:1;"/><text fill="#000000" font-family="sans-serif" font-size="14" lengthAdjust="spacing" text-decoration="underline" textLength="288.5996" x="982" y="137.207">pluginInstallEvent(PluginId): PluginInstallEvent</text><ellipse cx="973" cy="150.3281" fill="#84BE84" rx="3" ry="3" style="stroke:#038048;stroke-width:1;"/><text fill="#000000" font-family="sans-serif" font-size="14" lengthAdjust="spacing" text-decoration="underline" textLength="301.9707" x="982" y="153.6133">pluginUpdateEvent(PluginId): PluginUpdateEvent</text><ellipse cx="973" cy="166.7344" fill="#84BE84" rx="3" ry="3" style="stroke:#038048;stroke-width:1;"/><text fill="#000000" font-family="sans-serif" font-size="14" lengthAdjust="spacing" text-decoration="underline" textLength="321.4121" x="982" y="170.0195">pluginUninstallEvent(PluginId): PluginUninstallEvent</text><polygon fill="#FFFF44" points="973,178.1406,977,182.1406,973,186.1406,969,182.1406" style="stroke:#B38D22;stroke-width:1;"/><text fill="#000000" font-family="sans-serif" font-size="14" lengthAdjust="spacing" textLength="137.7031" x="982" y="186.4258">getPluginId(): PluginId</text></a></g><!--class PluginChangeEvent.PluginChangeAnnouncementEvent--><g class="entity" data-entity="PluginChangeEvent.PluginChangeAnnouncementEvent" data-source-line="22" data-uid="ent0004" id="entity_PluginChangeEvent.PluginChangeAnnouncementEvent"><a href="PluginChangeEvent.PluginChangeAnnouncementEvent.html" target="_top" title="PluginChangeEvent.PluginChangeAnnouncementEvent.html" xlink:actuate="onRequest" xlink:href="PluginChangeEvent.PluginChangeAnnouncementEvent.html" xlink:show="new" xlink:title="PluginChangeEvent.PluginChangeAnnouncementEvent.html" xlink:type="simple"><rect fill="#F1F1F1" height="80.8125" rx="2.5" ry="2.5" style="stroke:#181818;stroke-width:0.5;" width="372.2451" x="556" y="246.5"/><ellipse cx="571" cy="262.5" fill="#ADD1B2" rx="11" ry="11" style="stroke:#181818;stroke-width:1;"/><path d="M571.0469,268.7031 C572.5469,268.7031 573.7813,268.1406 574.6875,267.0781 L573.3125,265.5625 C572.7656,266.1563 572.1094,266.5469 571.3125,266.5469 C569.6406,266.5469 568.4844,265.2188 568.4844,262.9375 C568.4844,260.7188 569.6406,259.375 571.2031,259.375 C572.0156,259.375 572.6094,259.6875 573.1406,260.1719 L574.5156,258.625 C573.7656,257.8906 572.6094,257.2188 571.2031,257.2188 C568.25,257.2188 565.9219,259.3594 565.9219,263.0313 C565.9219,266.75 568.2969,268.7031 571.0469,268.7031 Z " fill="#000000"/><text fill="#000000" font-family="sans-serif" font-size="14" lengthAdjust="spacing" textLength="340.2451" x="585" y="267.2852">PluginChangeEvent.PluginChangeAnnouncementEvent</text><line style="stroke:#181818;stroke-width:0.5;" x1="557" x2="927.2451" y1="278.5" y2="278.5"/><line style="stroke:#181818;stroke-width:0.5;" x1="557" x2="927.2451" y1="286.5" y2="286.5"/><ellipse cx="567" cy="300.2031" fill="#84BE84" rx="3" ry="3" style="stroke:#038048;stroke-width:1;"/><text fill="#000000" font-family="sans-serif" font-size="14" lengthAdjust="spacing" textLength="121.3857" x="576" y="303.4883">isVetoed(): boolean</text><ellipse cx="567" cy="316.6094" fill="#84BE84" rx="3" ry="3" style="stroke:#038048;stroke-width:1;"/><text fill="#000000" font-family="sans-serif" font-size="14" lengthAdjust="spacing" textLength="106.0459" x="576" y="319.8945">setVetoed(): void</text></a></g><!--class PluginChangeEvent.PluginInstallEvent--><g class="entity" data-entity="PluginChangeEvent.PluginInstallEvent" data-source-line="27" data-uid="ent0005" id="entity_PluginChangeEvent.PluginInstallEvent"><a href="PluginChangeEvent.PluginInstallEvent.html" target="_top" title="PluginChangeEvent.PluginInstallEvent.html" xlink:actuate="onRequest" xlink:href="PluginChangeEvent.PluginInstallEvent.html" xlink:show="new" xlink:title="PluginChangeEvent.PluginInstallEvent.html" xlink:type="simple"><rect fill="#F1F1F1" height="48" rx="2.5" ry="2.5" style="stroke:#181818;stroke-width:0.5;" width="267.7646" x="946" y="263"/><ellipse cx="961" cy="279" fill="#ADD1B2" rx="11" ry="11" style="stroke:#181818;stroke-width:1;"/><path d="M961.0469,285.2031 C962.5469,285.2031 963.7813,284.6406 964.6875,283.5781 L963.3125,282.0625 C962.7656,282.6563 962.1094,283.0469 961.3125,283.0469 C959.6406,283.0469 958.4844,281.7188 958.4844,279.4375 C958.4844,277.2188 959.6406,275.875 961.2031,275.875 C962.0156,275.875 962.6094,276.1875 963.1406,276.6719 L964.5156,275.125 C963.7656,274.3906 962.6094,273.7188 961.2031,273.7188 C958.25,273.7188 955.9219,275.8594 955.9219,279.5313 C955.9219,283.25 958.2969,285.2031 961.0469,285.2031 Z " fill="#000000"/><text fill="#000000" font-family="sans-serif" font-size="14" lengthAdjust="spacing" textLength="235.7646" x="975" y="283.7852">PluginChangeEvent.PluginInstallEvent</text><line style="stroke:#181818;stroke-width:0.5;" x1="947" x2="1212.7646" y1="295" y2="295"/><line style="stroke:#181818;stroke-width:0.5;" x1="947" x2="1212.7646" y1="303" y2="303"/></a></g><!--class PluginChangeEvent.PluginUpdateEvent--><g class="entity" data-entity="PluginChangeEvent.PluginUpdateEvent" data-source-line="30" data-uid="ent0006" id="entity_PluginChangeEvent.PluginUpdateEvent"><a href="PluginChangeEvent.PluginUpdateEvent.html" target="_top" title="PluginChangeEvent.PluginUpdateEvent.html" xlink:actuate="onRequest" xlink:href="PluginChangeEvent.PluginUpdateEvent.html" xlink:show="new" xlink:title="PluginChangeEvent.PluginUpdateEvent.html" xlink:type="simple"><rect fill="#F1F1F1" height="48" rx="2.5" ry="2.5" style="stroke:#181818;stroke-width:0.5;" width="274.4502" x="1232" y="263"/><ellipse cx="1247" cy="279" fill="#ADD1B2" rx="11" ry="11" style="stroke:#181818;stroke-width:1;"/><path d="M1247.0469,285.2031 C1248.5469,285.2031 1249.7813,284.6406 1250.6875,283.5781 L1249.3125,282.0625 C1248.7656,282.6563 1248.1094,283.0469 1247.3125,283.0469 C1245.6406,283.0469 1244.4844,281.7188 1244.4844,279.4375 C1244.4844,277.2188 1245.6406,275.875 1247.2031,275.875 C1248.0156,275.875 1248.6094,276.1875 1249.1406,276.6719 L1250.5156,275.125 C1249.7656,274.3906 1248.6094,273.7188 1247.2031,273.7188 C1244.25,273.7188 1241.9219,275.8594 1241.9219,279.5313 C1241.9219,283.25 1244.2969,285.2031 1247.0469,285.2031 Z " fill="#000000"/><text fill="#000000" font-family="sans-serif" font-size="14" lengthAdjust="spacing" textLength="242.4502" x="1261" y="283.7852">PluginChangeEvent.PluginUpdateEvent</text><line style="stroke:#181818;stroke-width:0.5;" x1="1233" x2="1505.4502" y1="295" y2="295"/><line style="stroke:#181818;stroke-width:0.5;" x1="1233" x2="1505.4502" y1="303" y2="303"/></a></g><!--class PluginChangeEvent.PluginUninstallEvent--><g class="entity" data-entity="PluginChangeEvent.PluginUninstallEvent" data-source-line="33" data-uid="ent0007" id="entity_PluginChangeEvent.PluginUninstallEvent"><a href="PluginChangeEvent.PluginUninstallEvent.html" target="_top" title="PluginChangeEvent.PluginUninstallEvent.html" xlink:actuate="onRequest" xlink:href="PluginChangeEvent.PluginUninstallEvent.html" xlink:show="new" xlink:title="PluginChangeEvent.PluginUninstallEvent.html" xlink:type="simple"><rect fill="#F1F1F1" height="48" rx="2.5" ry="2.5" style="stroke:#181818;stroke-width:0.5;" width="284.1709" x="1524" y="263"/><ellipse cx="1539" cy="279" fill="#ADD1B2" rx="11" ry="11" style="stroke:#181818;stroke-width:1;"/><path d="M1539.0469,285.2031 C1540.5469,285.2031 1541.7813,284.6406 1542.6875,283.5781 L1541.3125,282.0625 C1540.7656,282.6563 1540.1094,283.0469 1539.3125,283.0469 C1537.6406,283.0469 1536.4844,281.7188 1536.4844,279.4375 C1536.4844,277.2188 1537.6406,275.875 1539.2031,275.875 C1540.0156,275.875 1540.6094,276.1875 1541.1406,276.6719 L1542.5156,275.125 C1541.7656,274.3906 1540.6094,273.7188 1539.2031,273.7188 C1536.25,273.7188 1533.9219,275.8594 1533.9219,279.5313 C1533.9219,283.25 1536.2969,285.2031 1539.0469,285.2031 Z " fill="#000000"/><text fill="#000000" font-family="sans-serif" font-size="14" lengthAdjust="spacing" textLength="252.1709" x="1553" y="283.7852">PluginChangeEvent.PluginUninstallEvent</text><line style="stroke:#181818;stroke-width:0.5;" x1="1525" x2="1807.1709" y1="295" y2="295"/><line style="stroke:#181818;stroke-width:0.5;" x1="1525" x2="1807.1709" y1="303" y2="303"/></a></g><!--class PluginChangeEventListener--><g class="entity" data-entity="PluginChangeEventListener" data-source-line="36" data-uid="ent0008" id="entity_PluginChangeEventListener"><a href="PluginChangeEventListener.html" target="_top" title="PluginChangeEventListener.html" xlink:actuate="onRequest" xlink:href="PluginChangeEventListener.html" xlink:show="new" xlink:title="PluginChangeEventListener.html" xlink:type="simple"><rect fill="#F1F1F1" height="113.625" rx="2.5" ry="2.5" style="stroke:#181818;stroke-width:0.5;" width="501.084" x="29.5" y="55.5"/><ellipse cx="192.8857" cy="71.5" fill="#B4A7E5" rx="11" ry="11" style="stroke:#181818;stroke-width:1;"/><path d="M189.1514,77.5 L196.8232,77.5 L196.8232,75.3906 L194.2451,75.3906 L194.2451,68.5313 L196.8232,68.5313 L196.8232,66.4219 L189.1514,66.4219 L189.1514,68.5313 L191.7295,68.5313 L191.7295,75.3906 L189.1514,75.3906 L189.1514,77.5 Z " fill="#000000"/><text fill="#000000" font-family="sans-serif" font-size="14" font-style="italic" lengthAdjust="spacing" textLength="165.8125" x="213.3857" y="76.2852">PluginChangeEventListener</text><line style="stroke:#181818;stroke-width:0.5;" x1="30.5" x2="529.584" y1="87.5" y2="87.5"/><line style="stroke:#181818;stroke-width:0.5;" x1="30.5" x2="529.584" y1="95.5" y2="95.5"/><ellipse cx="40.5" cy="109.2031" fill="#84BE84" rx="3" ry="3" style="stroke:#038048;stroke-width:1;"/><text fill="#000000" font-family="sans-serif" font-size="14" font-style="italic" lengthAdjust="spacing" textLength="475.084" x="49.5" y="112.4883">onPluginChangeAnnouncementEvent(PluginChangeAnnouncementEvent): void</text><ellipse cx="40.5" cy="125.6094" fill="#84BE84" rx="3" ry="3" style="stroke:#038048;stroke-width:1;"/><text fill="#000000" font-family="sans-serif" font-size="14" font-style="italic" lengthAdjust="spacing" textLength="272.3984" x="49.5" y="128.8945">onPluginInstallEvent(PluginInstallEvent): void</text><ellipse cx="40.5" cy="142.0156" fill="#84BE84" rx="3" ry="3" style="stroke:#038048;stroke-width:1;"/><text fill="#000000" font-family="sans-serif" font-size="14" font-style="italic" lengthAdjust="spacing" textLength="285.373" x="49.5" y="145.3008">onPluginUpdateEvent(PluginUpdateEvent): void</text><ellipse cx="40.5" cy="158.4219" fill="#84BE84" rx="3" ry="3" style="stroke:#038048;stroke-width:1;"/><text fill="#000000" font-family="sans-serif" font-size="14" font-style="italic" lengthAdjust="spacing" textLength="304.2266" x="49.5" y="161.707">onPluginUninstallEvent(PluginUninstallEvent): void</text></a></g><!--class AbstractPluginChangeListener--><g class="entity" data-entity="AbstractPluginChangeListener" data-source-line="43" data-uid="ent0009" id="entity_AbstractPluginChangeListener"><a href="AbstractPluginChangeListener.html" target="_top" title="AbstractPluginChangeListener.html" xlink:actuate="onRequest" xlink:href="AbstractPluginChangeListener.html" xlink:show="new" xlink:title="AbstractPluginChangeListener.html" xlink:type="simple"><rect fill="#F1F1F1" height="113.625" rx="2.5" ry="2.5" style="stroke:#181818;stroke-width:0.5;" width="515.6582" x="22" y="230"/><ellipse cx="183.6494" cy="246" fill="#A9DCDF" rx="11" ry="11" style="stroke:#181818;stroke-width:1;"/><path d="M182.79,245.6406 C183.0869,244.5313 183.3994,243.25 183.665,242.0625 L183.7275,242.0625 C183.9932,243.25 184.3213,244.5313 184.6182,245.6406 L184.8682,246.6563 L182.54,246.6563 L182.79,245.6406 Z M178.8057,251.25 L181.3525,251.25 L182.04,248.6094 L185.3838,248.6094 L186.04,251.25 L188.6963,251.25 L185.2432,240.1719 L182.2588,240.1719 L178.8057,251.25 Z " fill="#000000"/><text fill="#000000" font-family="sans-serif" font-size="14" font-style="italic" lengthAdjust="spacing" textLength="183.8594" x="204.1494" y="250.7852">AbstractPluginChangeListener</text><line style="stroke:#181818;stroke-width:0.5;" x1="23" x2="536.6582" y1="262" y2="262"/><line style="stroke:#181818;stroke-width:0.5;" x1="23" x2="536.6582" y1="270" y2="270"/><ellipse cx="33" cy="283.7031" fill="#84BE84" rx="3" ry="3" style="stroke:#038048;stroke-width:1;"/><text fill="#000000" font-family="sans-serif" font-size="14" lengthAdjust="spacing" textLength="489.6582" x="42" y="286.9883">onPluginChangeAnnouncementEvent(PluginChangeAnnouncementEvent): void</text><ellipse cx="33" cy="300.1094" fill="#84BE84" rx="3" ry="3" style="stroke:#038048;stroke-width:1;"/><text fill="#000000" font-family="sans-serif" font-size="14" lengthAdjust="spacing" textLength="280.6973" x="42" y="303.3945">onPluginInstallEvent(PluginInstallEvent): void</text><ellipse cx="33" cy="316.5156" fill="#84BE84" rx="3" ry="3" style="stroke:#038048;stroke-width:1;"/><text fill="#000000" font-family="sans-serif" font-size="14" lengthAdjust="spacing" textLength="294.0684" x="42" y="319.8008">onPluginUpdateEvent(PluginUpdateEvent): void</text><ellipse cx="33" cy="332.9219" fill="#84BE84" rx="3" ry="3" style="stroke:#038048;stroke-width:1;"/><text fill="#000000" font-family="sans-serif" font-size="14" lengthAdjust="spacing" textLength="313.5098" x="42" y="336.207">onPluginUninstallEvent(PluginUninstallEvent): void</text></a></g><g class="link" data-entity-1="PluginChangeEvent" data-entity-2="PluginChangeEvent.PluginChangeAnnouncementEvent" data-uid="lnk10" id="link_PluginChangeEvent_PluginChangeEvent.PluginChangeAnnouncementEvent"><polygon fill="none" points="992.139,194.0682,973.1697,194.4744,977.2073,205.7748,992.139,194.0682" style="stroke:#181818;stroke-width:1;"/><path d="M975.1885,200.1246 C924.2218,218.3348 889.6604,230.8279 846.7291,246.4507" fill="none" style="stroke:#181818;stroke-width:1;"/></g><g class="link" data-entity-1="PluginChangeEvent" data-entity-2="PluginChangeEvent.PluginChangeAnnouncementEvent" data-uid="lnk11" id="link_PluginChangeEvent_PluginChangeEvent.PluginChangeAnnouncementEvent"><ellipse cx="998.0822" cy="196.7678" fill="#FFFFFF" rx="8" ry="8" style="stroke:#181818;stroke-width:1;"/><line style="stroke:#181818;stroke-width:1;" x1="990.5515" x2="1005.613" y1="199.4674" y2="194.0682"/><line style="stroke:#181818;stroke-width:1;" x1="995.3826" x2="1000.7818" y1="189.2371" y2="204.2986"/><path d="M990.5515,199.4674 C939.752,217.6776 902.6635,230.8279 858.2885,246.4507" fill="none" style="stroke:#181818;stroke-width:1;"/></g><g class="link" data-entity-1="PluginChangeEvent" data-entity-2="PluginChangeEvent.PluginInstallEvent" data-uid="lnk12" id="link_PluginChangeEvent_PluginChangeEvent.PluginInstallEvent"><polygon fill="none" points="1149.9002,194.1943,1133.7328,204.1248,1142.9245,211.8391,1149.9002,194.1943" style="stroke:#181818;stroke-width:1;"/><path d="M1138.3286,207.982 C1117.2813,233.06 1108.0441,244.9794 1094.5928,262.7877" fill="none" style="stroke:#181818;stroke-width:1;"/></g><g class="link" data-entity-1="PluginChangeEvent" data-entity-2="PluginChangeEvent.PluginInstallEvent" data-uid="lnk13" id="link_PluginChangeEvent_PluginChangeEvent.PluginInstallEvent"><ellipse cx="1158.2649" cy="200.3493" fill="#FFFFFF" rx="8" ry="8" style="stroke:#181818;stroke-width:1;"/><line style="stroke:#181818;stroke-width:1;" x1="1153.1545" x2="1163.3753" y1="206.5043" y2="194.1943"/><line style="stroke:#181818;stroke-width:1;" x1="1152.1099" x2="1164.4199" y1="195.2389" y2="205.4597"/><path d="M1153.1545,206.5043 C1132.3324,231.5823 1120.4424,244.9794 1104.1617,262.7877" fill="none" style="stroke:#181818;stroke-width:1;"/></g><g class="link" data-entity-1="PluginChangeEvent" data-entity-2="PluginChangeEvent.PluginUpdateEvent" data-uid="lnk14" id="link_PluginChangeEvent_PluginChangeEvent.PluginUpdateEvent"><polygon fill="none" points="1285.0925,194.1943,1292.0352,211.8522,1301.2413,204.155,1285.0925,194.1943" style="stroke:#181818;stroke-width:1;"/><path d="M1296.6382,208.0036 C1317.6057,233.0817 1328.3198,244.9794 1344.7038,262.7877" fill="none" style="stroke:#181818;stroke-width:1;"/></g><g class="link" data-entity-1="PluginChangeEvent" data-entity-2="PluginChangeEvent.PluginUpdateEvent" data-uid="lnk15" id="link_PluginChangeEvent_PluginChangeEvent.PluginUpdateEvent"><ellipse cx="1303.7312" cy="200.3047" fill="#FFFFFF" rx="8" ry="8" style="stroke:#181818;stroke-width:1;"/><line style="stroke:#181818;stroke-width:1;" x1="1308.8949" x2="1298.5676" y1="206.415" y2="194.1943"/><line style="stroke:#181818;stroke-width:1;" x1="1297.6209" x2="1309.8416" y1="205.4684" y2="195.141"/><path d="M1308.8949,206.415 C1330.0877,231.4931 1340.7181,244.9794 1354.2726,262.7877" fill="none" style="stroke:#181818;stroke-width:1;"/></g><g class="link" data-entity-1="PluginChangeEvent" data-entity-2="PluginChangeEvent.PluginUninstallEvent" data-uid="lnk16" id="link_PluginChangeEvent_PluginChangeEvent.PluginUninstallEvent"><polygon fill="none" points="1423.7045,194.0682,1438.284,206.2107,1442.6536,195.0345,1423.7045,194.0682" style="stroke:#181818;stroke-width:1;"/><path d="M1440.4688,200.6226 C1504.8906,225.8098 1554.9815,245.0915 1602.1273,262.9349" fill="none" style="stroke:#181818;stroke-width:1;"/></g><g class="link" data-entity-1="PluginChangeEvent" data-entity-2="PluginChangeEvent.PluginUninstallEvent" data-uid="lnk17" id="link_PluginChangeEvent_PluginChangeEvent.PluginUninstallEvent"><ellipse cx="1444.6328" cy="196.9722" fill="#FFFFFF" rx="8" ry="8" style="stroke:#181818;stroke-width:1;"/><line style="stroke:#181818;stroke-width:1;" x1="1452.0871" x2="1437.1785" y1="199.8762" y2="194.0682"/><line style="stroke:#181818;stroke-width:1;" x1="1441.7288" x2="1447.5368" y1="204.4265" y2="189.5179"/><path d="M1452.0871,199.8762 C1516.7404,225.0634 1567.3774,245.0915 1611.6727,262.9349" fill="none" style="stroke:#181818;stroke-width:1;"/></g><g class="link" data-entity-1="PluginChangeEventListener" data-entity-2="AbstractPluginChangeListener" data-uid="lnk18" id="link_PluginChangeEventListener_AbstractPluginChangeListener"><polygon fill="none" points="280,169.5058,274,187.5058,286,187.5058,280,169.5058" style="stroke:#181818;stroke-width:1;"/><path d="M280,187.5058 C280,206.886 280,210.5989 280,229.9802" fill="none" style="stroke:#181818;stroke-width:1;stroke-dasharray:7,7;"/></g><g class="footer" data-source-line="68"><text fill="#888888" font-family="sans-serif" font-size="10" lengthAdjust="spacing" textLength="2.4805" x="902.2598" y="363.2773">&#160;</text><a href="https://github.com/talsma-ict/umldoclet" target="_top" title="https://github.com/talsma-ict/umldoclet" xlink:actuate="onRequest" xlink:href="https://github.com/talsma-ict/umldoclet" xlink:show="new" xlink:title="https://github.com/talsma-ict/umldoclet" xlink:type="simple"><text fill="#888888" font-family="sans-serif" font-size="10" lengthAdjust="spacing" textLength="73.7207" x="866.6396" y="374.9961">UMLDoclet 2.2.4</text></a></g><!--SRC=[nLTHRzem47xlhxYf3wEYc92sh8kgIOnD6nEJgetkXV5W4ZTODNPgEqoixN-Vam1rICWej5jUelZklkyxdtsE0G1UGrT4Sqd3YGOjG4-eWgklVS0yW91m8h4c0T0f3ec2CM62Xofp981ZFH4In7NwvGifYOe43oWFuGkUOL0YbZvHwE00Kgh14lqNLXRwU9uCVX0-8nfgtIDBakkqsWtNSTimm4nDCVIw0xH0UunnaOjEmM0pwXEk36JC0o9JMPq8- -RLpop7C2DIKS5DZBF0ILBr1TUOSWKHbbebALqop7MYjOKC_nbgEL3hVE_dnJblKt77q94Snm5y4xVnAjzNaSIXaSpmNCGQr9Hep75gKaQq8eOBQpE1dfS56AKtPfv1o13Tnh7yZI8MXqOL8ZF2ZQoxp2zvy5XfYNqDFiDA6RM9OtU2UKW-9ium71R6q4HFsMXaOC1w3ZEINk0jK7f1tbx0gItzZdAETqfZJVq7g4TMH8Tp4NEVJ4tWMhINarrmh0JlSJF0s0P4sre9SnK5PWbkGB6CrI2SLgh9s_EJ6nAzzAyTbLJWuR7a6ogDAYUnT1rKHfIlaZfLFuWM95Kv5e8HpFCEPaq_Uim4tI47ksmLmcstejgjsQpoLf1PNljmvPP05LtEiPAHSataDVP9aRLFbKxQQndHqbPUvxjbOp6hM_3BBJRo1klw8jW4NhQHhQ5jOOeRsHhP6gHi8-S7AzRsMalkB3xjMRBgKcNUi0MVlHxx567tcN-6wLwyDXsKdbSy3o_k6usd1A2_dqrFeQ__L_OTaoySeo-VyLwKEwQvViw_V9RxCEwQPF4dv1_akHVfgbjUt2DK4LZLIhD6SQ7qd95tgpPoBOGvEzVww-TvH6IVyfkkOEQl_F2yt7gLN2qOvSJSPlmRJaohTwp-bD8rBRu5rqy-74wqZfJNR8PKJ-8nyiMqgTDhJOFwkXbFMP3TPzPkDgFHugRoQNLbIcuT3UUquRe3r_MS4yyzH-UjD-rM- -JijEwO8MVuCPOY8ittgThH7m00]--></g></svg>