<svg xmlns="http://www.w3.org/2000/svg" xmlns:xlink="http://www.w3.org/1999/xlink" contentStyleType="text/css" data-diagram-type="CLASS" height="190px" preserveAspectRatio="none" style="width:385px;height:190px;background:#FFFFFF;" version="1.1" viewBox="0 0 385 190" width="385px" zoomAndPan="magnify"><defs/><g><!--class org.quurz.plugins.events.PluginChangeEvent.PluginChangeAnnouncementEvent--><g class="entity" data-entity="org.quurz.plugins.events.PluginChangeEvent.PluginChangeAnnouncementEvent" data-source-line="13" data-uid="ent0002" id="entity_org.quurz.plugins.events.PluginChangeEvent.PluginChangeAnnouncementEvent"><a href="PluginChangeEvent.PluginChangeAnnouncementEvent.html" target="_top" title="PluginChangeEvent.PluginChangeAnnouncementEvent.html" xlink:actuate="onRequest" xlink:href="PluginChangeEvent.PluginChangeAnnouncementEvent.html" xlink:show="new" xlink:title="PluginChangeEvent.PluginChangeAnnouncementEvent.html" xlink:type="simple"><rect fill="#F1F1F1" height="78.9375" rx="2.5" ry="2.5" style="stroke:#181818;stroke-width:0.5;" width="372.2451" x="6" y="86"/><ellipse cx="21" cy="105.0625" fill="#ADD1B2" rx="11" ry="11" style="stroke:#181818;stroke-width:1;"/><path d="M21.0469,111.2656 C22.5469,111.2656 23.7813,110.7031 24.6875,109.6406 L23.3125,108.125 C22.7656,108.7188 22.1094,109.1094 21.3125,109.1094 C19.6406,109.1094 18.4844,107.7813 18.4844,105.5 C18.4844,103.2813 19.6406,101.9375 21.2031,101.9375 C22.0156,101.9375 22.6094,102.25 23.1406,102.7344 L24.5156,101.1875 C23.7656,100.4531 22.6094,99.7813 21.2031,99.7813 C18.25,99.7813 15.9219,101.9219 15.9219,105.5938 C15.9219,109.3125 18.2969,111.2656 21.0469,111.2656 Z " fill="#000000"/><text fill="#000000" font-family="sans-serif" font-size="14" lengthAdjust="spacing" textLength="340.2451" x="35" y="103.9883">PluginChangeEvent.PluginChangeAnnouncementEvent</text><text fill="#000000" font-family="sans-serif" font-size="10" lengthAdjust="spacing" textLength="109.3701" x="150.4375" y="116.6836">org.quurz.plugins.events</text><line style="stroke:#181818;stroke-width:0.5;" x1="7" x2="377.2451" y1="124.125" y2="124.125"/><ellipse cx="17" cy="137.8281" fill="#84BE84" rx="3" ry="3" style="stroke:#038048;stroke-width:1;"/><text fill="#000000" font-family="sans-serif" font-size="14" lengthAdjust="spacing" textLength="121.3857" x="26" y="141.1133">isVetoed(): boolean</text><ellipse cx="17" cy="154.2344" fill="#84BE84" rx="3" ry="3" style="stroke:#038048;stroke-width:1;"/><text fill="#000000" font-family="sans-serif" font-size="14" lengthAdjust="spacing" textLength="106.0459" x="26" y="157.5195">setVetoed(): void</text></a></g><!--class org.quurz.plugins.events.PluginChangeEvent--><g class="entity" data-entity="org.quurz.plugins.events.PluginChangeEvent" data-source-line="18" data-uid="ent0003" id="entity_org.quurz.plugins.events.PluginChangeEvent"><a href="PluginChangeEvent.html" target="_top" title="PluginChangeEvent.html" xlink:actuate="onRequest" xlink:href="PluginChangeEvent.html" xlink:show="new" xlink:title="PluginChangeEvent.html" xlink:type="simple"><rect fill="#F1F1F1" height="38.125" rx="2.5" ry="2.5" style="stroke:#181818;stroke-width:0.5;" width="149.25" x="117.5" y="12"/><ellipse cx="132.5" cy="31.0625" fill="#A9DCDF" rx="11" ry="11" style="stroke:#181818;stroke-width:1;"/><path d="M131.6406,30.7031 C131.9375,29.5938 132.25,28.3125 132.5156,27.125 L132.5781,27.125 C132.8438,28.3125 133.1719,29.5938 133.4688,30.7031 L133.7188,31.7188 L131.3906,31.7188 L131.6406,30.7031 Z M127.6563,36.3125 L130.2031,36.3125 L130.8906,33.6719 L134.2344,33.6719 L134.8906,36.3125 L137.5469,36.3125 L134.0938,25.2344 L131.1094,25.2344 L127.6563,36.3125 Z " fill="#000000"/><text fill="#000000" font-family="sans-serif" font-size="14" font-style="italic" lengthAdjust="spacing" textLength="117.25" x="146.5" y="29.9883">PluginChangeEvent</text><text fill="#000000" font-family="sans-serif" font-size="10" font-style="italic" lengthAdjust="spacing" textLength="106.0889" x="152.0806" y="42.6836">org.quurz.plugins.events</text></a></g><g class="link" data-entity-1="org.quurz.plugins.events.PluginChangeEvent" data-entity-2="org.quurz.plugins.events.PluginChangeEvent.PluginChangeAnnouncementEvent" data-uid="lnk4" id="link_org.quurz.plugins.events.PluginChangeEvent_org.quurz.plugins.events.PluginChangeEvent.PluginChangeAnnouncementEvent"><polygon fill="none" points="186.4963,50.275,178.6913,67.569,190.6287,68.7932,186.4963,50.275" style="stroke:#181818;stroke-width:1;"/><path d="M184.66,68.1811 C183.6126,78.3954 185.0616,73.6196 185.3347,85.9896" fill="none" style="stroke:#181818;stroke-width:1;"/></g><g class="link" data-entity-1="org.quurz.plugins.events.PluginChangeEvent" data-entity-2="org.quurz.plugins.events.PluginChangeEvent.PluginChangeAnnouncementEvent" data-uid="lnk5" id="link_org.quurz.plugins.events.PluginChangeEvent_org.quurz.plugins.events.PluginChangeEvent.PluginChangeAnnouncementEvent"><ellipse cx="198.3198" cy="58.2333" fill="#FFFFFF" rx="8" ry="8" style="stroke:#181818;stroke-width:1;"/><line style="stroke:#181818;stroke-width:1;" x1="199.136" x2="197.5037" y1="66.1916" y2="50.275"/><line style="stroke:#181818;stroke-width:1;" x1="190.3616" x2="206.2781" y1="59.0494" y2="57.4172"/><path d="M199.136,66.1916 C200.1834,76.4059 198.9384,73.6196 198.6653,85.9896" fill="none" style="stroke:#181818;stroke-width:1;"/></g><g class="footer" data-source-line="30"><text fill="#888888" font-family="sans-serif" font-size="10" lengthAdjust="spacing" textLength="2.4805" x="187.2598" y="168.2773">&#160;</text><a href="https://github.com/talsma-ict/umldoclet" target="_top" title="https://github.com/talsma-ict/umldoclet" xlink:actuate="onRequest" xlink:href="https://github.com/talsma-ict/umldoclet" xlink:show="new" xlink:title="https://github.com/talsma-ict/umldoclet" xlink:type="simple"><text fill="#888888" font-family="sans-serif" font-size="10" lengthAdjust="spacing" textLength="73.7207" x="151.6396" y="179.9961">UMLDoclet 2.2.4</text></a></g><!--SRC=[pLHDJzj04BtpAwRq00YoSHn0426aD4NzK2gX4de9EMpMWxrYFMls8rLe-UzThzCaHLHLf1pgY-LvE- -zcHqF0C0U37GrDp8l73WDhf0MRhyCWLC6EH8QxZ03MV8SBKnHQSfjSn21UrTe0_e-VWbj3DfAKoOfXyzyni5gRmHQjhC3KMhqc_qxjsliqtaTVA-5GWVxWuCrIsdIEMsbINeA8wvioU7JOCGMRAkSbANi60AtaWB91afF6Pfegrzn4Lx31Zc26HehDOMSPC5JboeqEIx9GiMDitL9rugJgxrsMD0_OPq4zlitmp_D9UVHt17q3N6VmLVzw9VrlgaCpuDbnUVQEx0bEawymMnmJRmC_U82Rp2eSXTQIPemueNC4B2it1pk9QhClem6iaA7S8mBnQs5tGihdx3NERwyLZwND2WuvNWrGt9iFT8dqfu4bW68w1qjCfDBRNBswBrvObNCi0ph4tONmetz3MGRwi5ul646Arof9XFu4SkjdqDflw7JcEqVz62gjK9EAp2qTuNEjCmYzDnqYq-jCrouVxTj-urvjVIckF_QMpIt0TN5prPhQ_EogVZXDhMZ-8LrSuMNom6xrzg5_R8Qn_hvEA_G32Kz3BGA__BRizVHsterAKaOjg5u80pNd2nFFZToxJMzXTOTZSU5SvNjjTkvT8MVCg7BjejhiIM5Q_jIPSq-VB4P5xEr1n-MAxVUMgtak9McepJj9TrUUiwIyqwtUtQIdXmc8PIChxpH5RRVHRUJNm00]--></g></svg>