<svg xmlns="http://www.w3.org/2000/svg" xmlns:xlink="http://www.w3.org/1999/xlink" contentStyleType="text/css" data-diagram-type="CLASS" height="149px" preserveAspectRatio="none" style="width:297px;height:149px;background:#FFFFFF;" version="1.1" viewBox="0 0 297 149" width="297px" zoomAndPan="magnify"><defs/><g><!--class org.quurz.plugins.events.PluginChangeEvent.PluginUninstallEvent--><g class="entity" data-entity="org.quurz.plugins.events.PluginChangeEvent.PluginUninstallEvent" data-source-line="13" data-uid="ent0002" id="entity_org.quurz.plugins.events.PluginChangeEvent.PluginUninstallEvent"><a href="PluginChangeEvent.PluginUninstallEvent.html" target="_top" title="PluginChangeEvent.PluginUninstallEvent.html" xlink:actuate="onRequest" xlink:href="PluginChangeEvent.PluginUninstallEvent.html" xlink:show="new" xlink:title="PluginChangeEvent.PluginUninstallEvent.html" xlink:type="simple"><rect fill="#F1F1F1" height="38.125" rx="2.5" ry="2.5" style="stroke:#181818;stroke-width:0.5;" width="284.1709" x="6" y="86"/><ellipse cx="21" cy="105.0625" fill="#ADD1B2" rx="11" ry="11" style="stroke:#181818;stroke-width:1;"/><path d="M21.0469,111.2656 C22.5469,111.2656 23.7813,110.7031 24.6875,109.6406 L23.3125,108.125 C22.7656,108.7188 22.1094,109.1094 21.3125,109.1094 C19.6406,109.1094 18.4844,107.7813 18.4844,105.5 C18.4844,103.2813 19.6406,101.9375 21.2031,101.9375 C22.0156,101.9375 22.6094,102.25 23.1406,102.7344 L24.5156,101.1875 C23.7656,100.4531 22.6094,99.7813 21.2031,99.7813 C18.25,99.7813 15.9219,101.9219 15.9219,105.5938 C15.9219,109.3125 18.2969,111.2656 21.0469,111.2656 Z " fill="#000000"/><text fill="#000000" font-family="sans-serif" font-size="14" lengthAdjust="spacing" textLength="252.1709" x="35" y="103.9883">PluginChangeEvent.PluginUninstallEvent</text><text fill="#000000" font-family="sans-serif" font-size="10" lengthAdjust="spacing" textLength="109.3701" x="106.4004" y="116.6836">org.quurz.plugins.events</text></a></g><!--class org.quurz.plugins.events.PluginChangeEvent--><g class="entity" data-entity="org.quurz.plugins.events.PluginChangeEvent" data-source-line="16" data-uid="ent0003" id="entity_org.quurz.plugins.events.PluginChangeEvent"><a href="PluginChangeEvent.html" target="_top" title="PluginChangeEvent.html" xlink:actuate="onRequest" xlink:href="PluginChangeEvent.html" xlink:show="new" xlink:title="PluginChangeEvent.html" xlink:type="simple"><rect fill="#F1F1F1" height="38.125" rx="2.5" ry="2.5" style="stroke:#181818;stroke-width:0.5;" width="149.25" x="73.5" y="12"/><ellipse cx="88.5" cy="31.0625" fill="#A9DCDF" rx="11" ry="11" style="stroke:#181818;stroke-width:1;"/><path d="M87.6406,30.7031 C87.9375,29.5938 88.25,28.3125 88.5156,27.125 L88.5781,27.125 C88.8438,28.3125 89.1719,29.5938 89.4688,30.7031 L89.7188,31.7188 L87.3906,31.7188 L87.6406,30.7031 Z M83.6563,36.3125 L86.2031,36.3125 L86.8906,33.6719 L90.2344,33.6719 L90.8906,36.3125 L93.5469,36.3125 L90.0938,25.2344 L87.1094,25.2344 L83.6563,36.3125 Z " fill="#000000"/><text fill="#000000" font-family="sans-serif" font-size="14" font-style="italic" lengthAdjust="spacing" textLength="117.25" x="102.5" y="29.9883">PluginChangeEvent</text><text fill="#000000" font-family="sans-serif" font-size="10" font-style="italic" lengthAdjust="spacing" textLength="106.0889" x="108.0806" y="42.6836">org.quurz.plugins.events</text></a></g><g class="link" data-entity-1="org.quurz.plugins.events.PluginChangeEvent" data-entity-2="org.quurz.plugins.events.PluginChangeEvent.PluginUninstallEvent" data-uid="lnk4" id="link_org.quurz.plugins.events.PluginChangeEvent_org.quurz.plugins.events.PluginChangeEvent.PluginUninstallEvent"><polygon fill="none" points="142.0476,50.1686,134.33,67.5018,146.2734,68.6657,142.0476,50.1686" style="stroke:#181818;stroke-width:1;"/><path d="M140.3017,68.0838 C139.2462,78.9151 140.9842,74.7124 142.024,85.5867" fill="none" style="stroke:#181818;stroke-width:1;"/></g><g class="link" data-entity-1="org.quurz.plugins.events.PluginChangeEvent" data-entity-2="org.quurz.plugins.events.PluginChangeEvent.PluginUninstallEvent" data-uid="lnk5" id="link_org.quurz.plugins.events.PluginChangeEvent_org.quurz.plugins.events.PluginChangeEvent.PluginUninstallEvent"><ellipse cx="154.7283" cy="58.1309" fill="#FFFFFF" rx="8" ry="8" style="stroke:#181818;stroke-width:1;"/><line style="stroke:#181818;stroke-width:1;" x1="155.5043" x2="153.9524" y1="66.0932" y2="50.1686"/><line style="stroke:#181818;stroke-width:1;" x1="146.7661" x2="162.6906" y1="58.9069" y2="57.355"/><path d="M155.5043,66.0932 C156.5598,76.9245 155.0158,74.7124 153.976,85.5867" fill="none" style="stroke:#181818;stroke-width:1;"/></g><g class="footer" data-source-line="28"><text fill="#888888" font-family="sans-serif" font-size="10" lengthAdjust="spacing" textLength="2.4805" x="143.2598" y="127.2773">&#160;</text><a href="https://github.com/talsma-ict/umldoclet" target="_top" title="https://github.com/talsma-ict/umldoclet" xlink:actuate="onRequest" xlink:href="https://github.com/talsma-ict/umldoclet" xlink:show="new" xlink:title="https://github.com/talsma-ict/umldoclet" xlink:type="simple"><text fill="#888888" font-family="sans-serif" font-size="10" lengthAdjust="spacing" textLength="73.7207" x="107.6396" y="138.9961">UMLDoclet 2.2.4</text></a></g><!--SRC=[pLHBJzj04BxpAwRq01LauvXNY11IcYBQAfLGIKw1myIUs2lMisPtdIfG_dlNwpHD4LL1vL1VR7yp-psytW40s8A1BXT6Pha3fy7bqiBuon2GKyY8oQ2Z56I16LcOajASsQQH02kNQmDw5juIRGpPKdCgEOFFE4UmkZ89MR6n0K5gz9Fz6zerzkcY1Z_eH963xS6xDKjnr3binL5y22DKja3uD1Y99TklDR68nJvuRYKJOkifAqx915lz4XD_6pQLNPYJiLApNnCjUUgeYMQ7aYsKQ9oj8rqeP5TxxGYlVo0w4MptBuU_cukEWxbTw1l6AeMl-hPQvNrJ6ioyPOKBNJcm1JbaR6hMksOi_FV2X2x9gwBpdv8rKwZdCYMWedGBc4bIgNsCUh9SUpZWYK9hOVF4oZlgTVPFBrILIHxao1cTpOcTQ90n-uWEbGhW5IyNHAVQPEAsgioTA4EZ5LHts4tm6_MdedYU34mcpsiKkIlKzJNSXqmFJJISMcSmSN_F-FfnddJUcFollGLpBw0w-Tvg_UiklrHpvnKaW-Q9TGj5f-6vlcPQEt_qxrT0VNrSb6I6acy6MlbZzhRxT7LSJmqbcVoWIcwO_AP6gyw7HgwzfhVKkkB997UkjBrsEvCkhwOYqKNRXOdLaebhLuLAcr7rQ6Wj_wGjE5zDmtgWjABzLXoFuhWNxVNYOn4T77MxUqS7dPt8Gz7ah3AwfFRxuFRw1m00]--></g></svg>