<svg xmlns="http://www.w3.org/2000/svg" xmlns:xlink="http://www.w3.org/1999/xlink" contentStyleType="text/css" data-diagram-type="CLASS" height="280px" preserveAspectRatio="none" style="width:1265px;height:280px;background:#FFFFFF;" version="1.1" viewBox="0 0 1265 280" width="1265px" zoomAndPan="magnify"><defs/><g><!--class org.quurz.plugins.events.PluginChangeEvent--><g class="entity" data-entity="org.quurz.plugins.events.PluginChangeEvent" data-source-line="13" data-uid="ent0002" id="entity_org.quurz.plugins.events.PluginChangeEvent"><a href="PluginChangeEvent.html" target="_top" title="PluginChangeEvent.html" xlink:actuate="onRequest" xlink:href="PluginChangeEvent.html" xlink:show="new" xlink:title="PluginChangeEvent.html" xlink:type="simple"><rect fill="#F1F1F1" height="168.9688" rx="2.5" ry="2.5" style="stroke:#181818;stroke-width:0.5;" width="523.5605" x="412" y="12"/><ellipse cx="610.9053" cy="31.0625" fill="#A9DCDF" rx="11" ry="11" style="stroke:#181818;stroke-width:1;"/><path d="M610.0459,30.7031 C610.3428,29.5938 610.6553,28.3125 610.9209,27.125 L610.9834,27.125 C611.249,28.3125 611.5771,29.5938 611.874,30.7031 L612.124,31.7188 L609.7959,31.7188 L610.0459,30.7031 Z M606.0615,36.3125 L608.6084,36.3125 L609.2959,33.6719 L612.6396,33.6719 L613.2959,36.3125 L615.9521,36.3125 L612.499,25.2344 L609.5146,25.2344 L606.0615,36.3125 Z " fill="#000000"/><text fill="#000000" font-family="sans-serif" font-size="14" font-style="italic" lengthAdjust="spacing" textLength="117.25" x="631.4053" y="29.9883">PluginChangeEvent</text><text fill="#000000" font-family="sans-serif" font-size="10" font-style="italic" lengthAdjust="spacing" textLength="106.0889" x="636.9858" y="42.6836">org.quurz.plugins.events</text><line style="stroke:#181818;stroke-width:0.5;" x1="413" x2="934.5605" y1="50.125" y2="50.125"/><polygon fill="none" points="423,58.8281,427,62.8281,423,66.8281,419,62.8281" style="stroke:#B38D22;stroke-width:1;"/><text fill="#000000" font-family="sans-serif" font-size="14" lengthAdjust="spacing" textLength="107.2012" x="432" y="67.1133">pluginId: PluginId</text><line style="stroke:#181818;stroke-width:0.5;" x1="413" x2="934.5605" y1="74.5313" y2="74.5313"/><polygon fill="#FFFF44" points="423,83.2344,427,87.2344,423,91.2344,419,87.2344" style="stroke:#B38D22;stroke-width:1;"/><text fill="#000000" font-family="sans-serif" font-size="14" lengthAdjust="spacing" textLength="181.2002" x="432" y="91.5195">PluginChangeEvent(PluginId)</text><ellipse cx="423" cy="104.6406" fill="#84BE84" rx="3" ry="3" style="stroke:#038048;stroke-width:1;"/><text fill="#000000" font-family="sans-serif" font-size="14" lengthAdjust="spacing" text-decoration="underline" textLength="497.5605" x="432" y="107.9258">pluginChangeAnnouncementEvent(PluginId): PluginChangeAnnouncementEvent</text><ellipse cx="423" cy="121.0469" fill="#84BE84" rx="3" ry="3" style="stroke:#038048;stroke-width:1;"/><text fill="#000000" font-family="sans-serif" font-size="14" lengthAdjust="spacing" text-decoration="underline" textLength="288.5996" x="432" y="124.332">pluginInstallEvent(PluginId): PluginInstallEvent</text><ellipse cx="423" cy="137.4531" fill="#84BE84" rx="3" ry="3" style="stroke:#038048;stroke-width:1;"/><text fill="#000000" font-family="sans-serif" font-size="14" lengthAdjust="spacing" text-decoration="underline" textLength="301.9707" x="432" y="140.7383">pluginUpdateEvent(PluginId): PluginUpdateEvent</text><ellipse cx="423" cy="153.8594" fill="#84BE84" rx="3" ry="3" style="stroke:#038048;stroke-width:1;"/><text fill="#000000" font-family="sans-serif" font-size="14" lengthAdjust="spacing" text-decoration="underline" textLength="321.4121" x="432" y="157.1445">pluginUninstallEvent(PluginId): PluginUninstallEvent</text><polygon fill="#FFFF44" points="423,165.2656,427,169.2656,423,173.2656,419,169.2656" style="stroke:#B38D22;stroke-width:1;"/><text fill="#000000" font-family="sans-serif" font-size="14" lengthAdjust="spacing" textLength="137.7031" x="432" y="173.5508">getPluginId(): PluginId</text></a></g><!--class org.quurz.plugins.events.PluginChangeEvent.PluginChangeAnnouncementEvent--><g class="entity" data-entity="org.quurz.plugins.events.PluginChangeEvent.PluginChangeAnnouncementEvent" data-source-line="22" data-uid="ent0003" id="entity_org.quurz.plugins.events.PluginChangeEvent.PluginChangeAnnouncementEvent"><a href="PluginChangeEvent.PluginChangeAnnouncementEvent.html" target="_top" title="PluginChangeEvent.PluginChangeAnnouncementEvent.html" xlink:actuate="onRequest" xlink:href="PluginChangeEvent.PluginChangeAnnouncementEvent.html" xlink:show="new" xlink:title="PluginChangeEvent.PluginChangeAnnouncementEvent.html" xlink:type="simple"><rect fill="#F1F1F1" height="38.125" rx="2.5" ry="2.5" style="stroke:#181818;stroke-width:0.5;" width="372.2451" x="6" y="217"/><ellipse cx="21" cy="236.0625" fill="#ADD1B2" rx="11" ry="11" style="stroke:#181818;stroke-width:1;"/><path d="M21.0469,242.2656 C22.5469,242.2656 23.7813,241.7031 24.6875,240.6406 L23.3125,239.125 C22.7656,239.7188 22.1094,240.1094 21.3125,240.1094 C19.6406,240.1094 18.4844,238.7813 18.4844,236.5 C18.4844,234.2813 19.6406,232.9375 21.2031,232.9375 C22.0156,232.9375 22.6094,233.25 23.1406,233.7344 L24.5156,232.1875 C23.7656,231.4531 22.6094,230.7813 21.2031,230.7813 C18.25,230.7813 15.9219,232.9219 15.9219,236.5938 C15.9219,240.3125 18.2969,242.2656 21.0469,242.2656 Z " fill="#000000"/><text fill="#000000" font-family="sans-serif" font-size="14" lengthAdjust="spacing" textLength="340.2451" x="35" y="234.9883">PluginChangeEvent.PluginChangeAnnouncementEvent</text><text fill="#000000" font-family="sans-serif" font-size="10" lengthAdjust="spacing" textLength="109.3701" x="150.4375" y="247.6836">org.quurz.plugins.events</text></a></g><!--class org.quurz.plugins.events.PluginChangeEvent.PluginInstallEvent--><g class="entity" data-entity="org.quurz.plugins.events.PluginChangeEvent.PluginInstallEvent" data-source-line="23" data-uid="ent0004" id="entity_org.quurz.plugins.events.PluginChangeEvent.PluginInstallEvent"><a href="PluginChangeEvent.PluginInstallEvent.html" target="_top" title="PluginChangeEvent.PluginInstallEvent.html" xlink:actuate="onRequest" xlink:href="PluginChangeEvent.PluginInstallEvent.html" xlink:show="new" xlink:title="PluginChangeEvent.PluginInstallEvent.html" xlink:type="simple"><rect fill="#F1F1F1" height="38.125" rx="2.5" ry="2.5" style="stroke:#181818;stroke-width:0.5;" width="267.7646" x="396" y="217"/><ellipse cx="411" cy="236.0625" fill="#ADD1B2" rx="11" ry="11" style="stroke:#181818;stroke-width:1;"/><path d="M411.0469,242.2656 C412.5469,242.2656 413.7813,241.7031 414.6875,240.6406 L413.3125,239.125 C412.7656,239.7188 412.1094,240.1094 411.3125,240.1094 C409.6406,240.1094 408.4844,238.7813 408.4844,236.5 C408.4844,234.2813 409.6406,232.9375 411.2031,232.9375 C412.0156,232.9375 412.6094,233.25 413.1406,233.7344 L414.5156,232.1875 C413.7656,231.4531 412.6094,230.7813 411.2031,230.7813 C408.25,230.7813 405.9219,232.9219 405.9219,236.5938 C405.9219,240.3125 408.2969,242.2656 411.0469,242.2656 Z " fill="#000000"/><text fill="#000000" font-family="sans-serif" font-size="14" lengthAdjust="spacing" textLength="235.7646" x="425" y="234.9883">PluginChangeEvent.PluginInstallEvent</text><text fill="#000000" font-family="sans-serif" font-size="10" lengthAdjust="spacing" textLength="109.3701" x="488.1973" y="247.6836">org.quurz.plugins.events</text></a></g><!--class org.quurz.plugins.events.PluginChangeEvent.PluginUpdateEvent--><g class="entity" data-entity="org.quurz.plugins.events.PluginChangeEvent.PluginUpdateEvent" data-source-line="24" data-uid="ent0005" id="entity_org.quurz.plugins.events.PluginChangeEvent.PluginUpdateEvent"><a href="PluginChangeEvent.PluginUpdateEvent.html" target="_top" title="PluginChangeEvent.PluginUpdateEvent.html" xlink:actuate="onRequest" xlink:href="PluginChangeEvent.PluginUpdateEvent.html" xlink:show="new" xlink:title="PluginChangeEvent.PluginUpdateEvent.html" xlink:type="simple"><rect fill="#F1F1F1" height="38.125" rx="2.5" ry="2.5" style="stroke:#181818;stroke-width:0.5;" width="274.4502" x="682" y="217"/><ellipse cx="697" cy="236.0625" fill="#ADD1B2" rx="11" ry="11" style="stroke:#181818;stroke-width:1;"/><path d="M697.0469,242.2656 C698.5469,242.2656 699.7813,241.7031 700.6875,240.6406 L699.3125,239.125 C698.7656,239.7188 698.1094,240.1094 697.3125,240.1094 C695.6406,240.1094 694.4844,238.7813 694.4844,236.5 C694.4844,234.2813 695.6406,232.9375 697.2031,232.9375 C698.0156,232.9375 698.6094,233.25 699.1406,233.7344 L700.5156,232.1875 C699.7656,231.4531 698.6094,230.7813 697.2031,230.7813 C694.25,230.7813 691.9219,232.9219 691.9219,236.5938 C691.9219,240.3125 694.2969,242.2656 697.0469,242.2656 Z " fill="#000000"/><text fill="#000000" font-family="sans-serif" font-size="14" lengthAdjust="spacing" textLength="242.4502" x="711" y="234.9883">PluginChangeEvent.PluginUpdateEvent</text><text fill="#000000" font-family="sans-serif" font-size="10" lengthAdjust="spacing" textLength="109.3701" x="777.54" y="247.6836">org.quurz.plugins.events</text></a></g><!--class org.quurz.plugins.events.PluginChangeEvent.PluginUninstallEvent--><g class="entity" data-entity="org.quurz.plugins.events.PluginChangeEvent.PluginUninstallEvent" data-source-line="25" data-uid="ent0006" id="entity_org.quurz.plugins.events.PluginChangeEvent.PluginUninstallEvent"><a href="PluginChangeEvent.PluginUninstallEvent.html" target="_top" title="PluginChangeEvent.PluginUninstallEvent.html" xlink:actuate="onRequest" xlink:href="PluginChangeEvent.PluginUninstallEvent.html" xlink:show="new" xlink:title="PluginChangeEvent.PluginUninstallEvent.html" xlink:type="simple"><rect fill="#F1F1F1" height="38.125" rx="2.5" ry="2.5" style="stroke:#181818;stroke-width:0.5;" width="284.1709" x="974" y="217"/><ellipse cx="989" cy="236.0625" fill="#ADD1B2" rx="11" ry="11" style="stroke:#181818;stroke-width:1;"/><path d="M989.0469,242.2656 C990.5469,242.2656 991.7813,241.7031 992.6875,240.6406 L991.3125,239.125 C990.7656,239.7188 990.1094,240.1094 989.3125,240.1094 C987.6406,240.1094 986.4844,238.7813 986.4844,236.5 C986.4844,234.2813 987.6406,232.9375 989.2031,232.9375 C990.0156,232.9375 990.6094,233.25 991.1406,233.7344 L992.5156,232.1875 C991.7656,231.4531 990.6094,230.7813 989.2031,230.7813 C986.25,230.7813 983.9219,232.9219 983.9219,236.5938 C983.9219,240.3125 986.2969,242.2656 989.0469,242.2656 Z " fill="#000000"/><text fill="#000000" font-family="sans-serif" font-size="14" lengthAdjust="spacing" textLength="252.1709" x="1003" y="234.9883">PluginChangeEvent.PluginUninstallEvent</text><text fill="#000000" font-family="sans-serif" font-size="10" lengthAdjust="spacing" textLength="109.3701" x="1074.4004" y="247.6836">org.quurz.plugins.events</text></a></g><g class="link" data-entity-1="org.quurz.plugins.events.PluginChangeEvent" data-entity-2="org.quurz.plugins.events.PluginChangeEvent.PluginChangeAnnouncementEvent" data-uid="lnk7" id="link_org.quurz.plugins.events.PluginChangeEvent_org.quurz.plugins.events.PluginChangeEvent.PluginChangeAnnouncementEvent"><ellipse cx="404.1495" cy="174.4802" fill="#FFFFFF" rx="8" ry="8" style="stroke:#181818;stroke-width:1;"/><line style="stroke:#181818;stroke-width:1;" x1="396.4564" x2="411.8426" y1="176.6748" y2="172.2856"/><line style="stroke:#181818;stroke-width:1;" x1="401.9549" x2="406.3441" y1="166.7871" y2="182.1733"/><path d="M396.4564,176.6748 C337.9442,193.3665 296.4945,205.1909 255.2743,216.9498" fill="none" style="stroke:#181818;stroke-width:1;"/></g><g class="link" data-entity-1="org.quurz.plugins.events.PluginChangeEvent" data-entity-2="org.quurz.plugins.events.PluginChangeEvent.PluginInstallEvent" data-uid="lnk8" id="link_org.quurz.plugins.events.PluginChangeEvent_org.quurz.plugins.events.PluginChangeEvent.PluginInstallEvent"><ellipse cx="580.7134" cy="186.5758" fill="#FFFFFF" rx="8" ry="8" style="stroke:#181818;stroke-width:1;"/><line style="stroke:#181818;stroke-width:1;" x1="574.9275" x2="586.4993" y1="192.1005" y2="181.051"/><line style="stroke:#181818;stroke-width:1;" x1="575.1886" x2="586.2381" y1="180.7898" y2="192.3617"/><path d="M574.9275,192.1005 C560.793,205.597 559.067,207.245 548.9272,216.9271" fill="none" style="stroke:#181818;stroke-width:1;"/></g><g class="link" data-entity-1="org.quurz.plugins.events.PluginChangeEvent" data-entity-2="org.quurz.plugins.events.PluginChangeEvent.PluginUpdateEvent" data-uid="lnk9" id="link_org.quurz.plugins.events.PluginChangeEvent_org.quurz.plugins.events.PluginChangeEvent.PluginUpdateEvent"><ellipse cx="767.9133" cy="186.5557" fill="#FFFFFF" rx="8" ry="8" style="stroke:#181818;stroke-width:1;"/><line style="stroke:#181818;stroke-width:1;" x1="773.7183" x2="762.1083" y1="192.0605" y2="181.051"/><line style="stroke:#181818;stroke-width:1;" x1="762.4086" x2="773.4181" y1="192.3607" y2="180.7507"/><path d="M773.7183,192.0605 C787.9509,205.5569 789.7311,207.245 799.9413,216.9271" fill="none" style="stroke:#181818;stroke-width:1;"/></g><g class="link" data-entity-1="org.quurz.plugins.events.PluginChangeEvent" data-entity-2="org.quurz.plugins.events.PluginChangeEvent.PluginUninstallEvent" data-uid="lnk10" id="link_org.quurz.plugins.events.PluginChangeEvent_org.quurz.plugins.events.PluginChangeEvent.PluginUninstallEvent"><ellipse cx="943.8606" cy="181.4498" fill="#FFFFFF" rx="8" ry="8" style="stroke:#181818;stroke-width:1;"/><line style="stroke:#181818;stroke-width:1;" x1="951.4995" x2="936.2217" y1="183.8262" y2="179.0735"/><line style="stroke:#181818;stroke-width:1;" x1="941.4842" x2="946.2369" y1="189.0888" y2="173.8109"/><path d="M951.4995,183.8262 C997.229,198.052 1025.2393,206.7656 1057.8755,216.9183" fill="none" style="stroke:#181818;stroke-width:1;"/></g><g class="footer" data-source-line="38"><text fill="#888888" font-family="sans-serif" font-size="10" lengthAdjust="spacing" textLength="2.4805" x="627.2598" y="258.2773">&#160;</text><a href="https://github.com/talsma-ict/umldoclet" target="_top" title="https://github.com/talsma-ict/umldoclet" xlink:actuate="onRequest" xlink:href="https://github.com/talsma-ict/umldoclet" xlink:show="new" xlink:title="https://github.com/talsma-ict/umldoclet" xlink:type="simple"><text fill="#888888" font-family="sans-serif" font-size="10" lengthAdjust="spacing" textLength="73.7207" x="591.6396" y="269.9961">UMLDoclet 2.2.4</text></a></g><!--SRC=[lLPDJzj04BtpAwPm80ZYE2P59K98QOfQgbH29Pm2Xuqzs2lMisPtdIeW_dlNZfCu2NO58lKX7_FnthprU3m00FlGbybKyJ0oO2IOY6ku-JK0HW64IAYOmG1up4BKC4OXATIpG0IMcaWgaFVvFrygXJgH570AuIURCD0oLJvgPsS7SghX7FqFqoNqyJGpVfE-G0ED_a6f9CzjdpGzrpk18HCwPd3P7pe5sZB7Spod0nPRS1z9MyYK0bHvMRs4-VPhCFCSmGILvf9iZblWP59zIOPnqf0mPNGcwKemCbcjRSVoVtRQBZHwruFLujpJlBWZw2bYQG2_vMEwqFifKIoq9GisbQa17QDXn6O-RQic5jlpOZvUesLbnXubISBS7_400UF4JE6UemZqkjM2HTAQSpiRQwEORy0NJ6lOFTFy2RljplcLI4DE_OXHY1SJ97DBXSyzbofq7jDKFJb97gKTp2BqBjYRK-LqDX1XDDgmEP69nTqTFEVLPTVU3EOowC9LyMlfsyXlp6CE5a7FsZ33_HSuJ4hHFIAPae-nJLhBd1DL15O2Nv8r2561LlPMGjmaWUth2eIIing0U6qLg_xbGOPevh6DWxMJVia__zaWJksfVNpxrFEzsbor6KNhlKbi-QPkJM6Pf4PMEUmzMahjjJKf9OuQ9QMeTmbPwV7jQLcXgPEp4ZXNb4jwmx0yR3O_xE7uBzmR0s_RXElpSUjygxCqvppJPYhmV35OxwKqTfrOliwowySqGJNWzD2Nmhwwzxwyxht9DX712UtoupyGskPt5v6peNpMAl4LNBSq6aN69BhRQeNSHEdOyMNSClaMrEI-QQMn26RhpzeYL3ne-_1ziM5bIqhJxJGzR-XvNVUuwvqwxl6frpxsEfr3rvhSqKMgP8AjhtcrTty1]--></g></svg>