<svg xmlns="http://www.w3.org/2000/svg" xmlns:xlink="http://www.w3.org/1999/xlink" contentStyleType="text/css" data-diagram-type="CLASS" height="574px" preserveAspectRatio="none" style="width:1724px;height:574px;background:#FFFFFF;" version="1.1" viewBox="0 0 1724 574" width="1724px" zoomAndPan="magnify"><defs/><g><!--cluster org.quurz.plugins--><g class="cluster" data-entity="org.quurz.plugins" data-source-line="10" data-uid="ent0002" id="cluster_org.quurz.plugins"><path d="M16.5,95 L128.7002,95 A3.75,3.75 0 0 1 131.2002,97.5 L138.2002,117.4063 L1714.5,117.4063 A2.5,2.5 0 0 1 1717,119.9063 L1717,538.5 A2.5,2.5 0 0 1 1714.5,541 L16.5,541 A2.5,2.5 0 0 1 14,538.5 L14,97.5 A2.5,2.5 0 0 1 16.5,95" fill="none" style="stroke:#000000;stroke-width:1.5;"/><line style="stroke:#000000;stroke-width:1.5;" x1="14" x2="138.2002" y1="117.4063" y2="117.4063"/><text fill="#000000" font-family="sans-serif" font-size="14" font-weight="bold" lengthAdjust="spacing" textLength="111.2002" x="18" y="109.9883">org.quurz.plugins</text></g><!--cluster java.lang--><g class="cluster" data-entity="java.lang" data-source-line="75" data-uid="ent0010" id="cluster_java.lang"><path d="M435.5,4 L493.3682,4 A3.75,3.75 0 0 1 495.8682,6.5 L502.8682,26.4063 L592.5,26.4063 A2.5,2.5 0 0 1 595,28.9063 L595,84.5 A2.5,2.5 0 0 1 592.5,87 L435.5,87 A2.5,2.5 0 0 1 433,84.5 L433,6.5 A2.5,2.5 0 0 1 435.5,4" fill="none" style="stroke:#000000;stroke-width:1.5;"/><line style="stroke:#000000;stroke-width:1.5;" x1="433" x2="502.8682" y1="26.4063" y2="26.4063"/><text fill="#000000" font-family="sans-serif" font-size="14" font-weight="bold" lengthAdjust="spacing" textLength="56.8682" x="437" y="18.9883">java.lang</text></g><!--class TypedValue--><g class="entity" data-entity="TypedValue" data-source-line="12" data-uid="ent0003" id="entity_TypedValue"><a href="TypedValue.html" target="_top" title="TypedValue.html" xlink:actuate="onRequest" xlink:href="TypedValue.html" xlink:show="new" xlink:title="TypedValue.html" xlink:type="simple"><rect fill="#F1F1F1" height="212.0625" rx="2.5" ry="2.5" style="stroke:#181818;stroke-width:0.5;" width="496.873" x="714.5" y="122"/><ellipse cx="916.2729" cy="138" fill="#ADD1B2" rx="11" ry="11" style="stroke:#181818;stroke-width:1;"/><path d="M916.3198,144.2031 C917.8198,144.2031 919.0542,143.6406 919.9604,142.5781 L918.5854,141.0625 C918.0386,141.6563 917.3823,142.0469 916.5854,142.0469 C914.9136,142.0469 913.7573,140.7188 913.7573,138.4375 C913.7573,136.2188 914.9136,134.875 916.4761,134.875 C917.2886,134.875 917.8823,135.1875 918.4136,135.6719 L919.7886,134.125 C919.0386,133.3906 917.8823,132.7188 916.4761,132.7188 C913.5229,132.7188 911.1948,134.8594 911.1948,138.5313 C911.1948,142.25 913.5698,144.2031 916.3198,144.2031 Z " fill="#000000"/><text fill="#000000" font-family="sans-serif" font-size="14" lengthAdjust="spacing" textLength="73.2334" x="936.7729" y="142.7852">TypedValue</text><rect fill="#FFFFFF" height="16.0625" style="stroke:#181818;stroke-width:1;stroke-dasharray:2,2;" width="9.5938" x="1204.7793" y="119"/><text fill="#000000" font-family="sans-serif" font-size="12" font-style="italic" lengthAdjust="spacing" textLength="7.5938" x="1205.7793" y="131.1328">A</text><line style="stroke:#181818;stroke-width:0.5;" x1="715.5" x2="1210.373" y1="154" y2="154"/><line style="stroke:#181818;stroke-width:0.5;" x1="715.5" x2="1210.373" y1="162" y2="162"/><ellipse cx="725.5" cy="175.7031" fill="#84BE84" rx="3" ry="3" style="stroke:#038048;stroke-width:1;"/><text fill="#000000" font-family="sans-serif" font-size="14" lengthAdjust="spacing" text-decoration="underline" textLength="303.7344" x="734.5" y="178.9883">typedValue(Class&lt;? extends A&gt;): TypedValue&lt;A&gt;</text><ellipse cx="725.5" cy="192.1094" fill="#84BE84" rx="3" ry="3" style="stroke:#038048;stroke-width:1;"/><text fill="#000000" font-family="sans-serif" font-size="14" lengthAdjust="spacing" text-decoration="underline" textLength="373.3857" x="734.5" y="195.3945">typedValue(Class&lt;? extends A&gt;, Nullable A): TypedValue&lt;A&gt;</text><ellipse cx="725.5" cy="208.5156" fill="#84BE84" rx="3" ry="3" style="stroke:#038048;stroke-width:1;"/><text fill="#000000" font-family="sans-serif" font-size="14" lengthAdjust="spacing" text-decoration="underline" textLength="418.9063" x="734.5" y="211.8008">extractTypesAndValues(TypedValue[]): Tuple2&lt;Class&lt;?&gt;[], Object[]&gt;</text><ellipse cx="725.5" cy="224.9219" fill="#84BE84" rx="3" ry="3" style="stroke:#038048;stroke-width:1;"/><text fill="#000000" font-family="sans-serif" font-size="14" lengthAdjust="spacing" text-decoration="underline" textLength="448.6699" x="734.5" y="228.207">extractTypesAndValues(List&lt;TypedValue&gt;): Tuple2&lt;Class&lt;?&gt;[], Object[]&gt;</text><ellipse cx="725.5" cy="241.3281" fill="#84BE84" rx="3" ry="3" style="stroke:#038048;stroke-width:1;"/><text fill="#000000" font-family="sans-serif" font-size="14" lengthAdjust="spacing" text-decoration="underline" textLength="470.873" x="734.5" y="244.6133">extractTypesAndValues(Stream&lt;TypedValue&gt;): Tuple2&lt;Class&lt;?&gt;[], Object[]&gt;</text><ellipse cx="725.5" cy="257.7344" fill="#84BE84" rx="3" ry="3" style="stroke:#038048;stroke-width:1;"/><text fill="#000000" font-family="sans-serif" font-size="14" lengthAdjust="spacing" textLength="187.5986" x="734.5" y="261.0195">getType(): Class&lt;? extends A&gt;</text><ellipse cx="725.5" cy="274.1406" fill="#84BE84" rx="3" ry="3" style="stroke:#038048;stroke-width:1;"/><text fill="#000000" font-family="sans-serif" font-size="14" lengthAdjust="spacing" textLength="124.1611" x="734.5" y="277.4258">hasValue(): boolean</text><ellipse cx="725.5" cy="290.5469" fill="#84BE84" rx="3" ry="3" style="stroke:#038048;stroke-width:1;"/><text fill="#000000" font-family="sans-serif" font-size="14" lengthAdjust="spacing" textLength="142.1328" x="734.5" y="293.832">hasNoValue(): boolean</text><ellipse cx="725.5" cy="306.9531" fill="#84BE84" rx="3" ry="3" style="stroke:#038048;stroke-width:1;"/><text fill="#000000" font-family="sans-serif" font-size="14" lengthAdjust="spacing" textLength="134.8936" x="734.5" y="310.2383">getValue(): Nullable A</text><ellipse cx="725.5" cy="323.3594" fill="#84BE84" rx="3" ry="3" style="stroke:#038048;stroke-width:1;"/><text fill="#000000" font-family="sans-serif" font-size="14" lengthAdjust="spacing" textLength="165.0059" x="734.5" y="326.6445">getValueSafe(): Maybe&lt;A&gt;</text></a></g><!--class PluginsException--><g class="entity" data-entity="PluginsException" data-source-line="25" data-uid="ent0004" id="entity_PluginsException"><a href="PluginsException.html" target="_top" title="PluginsException.html" xlink:actuate="onRequest" xlink:href="PluginsException.html" xlink:show="new" xlink:title="PluginsException.html" xlink:type="simple"><rect fill="#F1F1F1" height="130.0313" rx="2.5" ry="2.5" style="stroke:#181818;stroke-width:0.5;" width="364.0029" x="332" y="163"/><ellipse cx="456.0552" cy="179" fill="#ADD1B2" rx="11" ry="11" style="stroke:#181818;stroke-width:1;"/><path d="M456.1021,185.2031 C457.6021,185.2031 458.8364,184.6406 459.7427,183.5781 L458.3677,182.0625 C457.8208,182.6563 457.1646,183.0469 456.3677,183.0469 C454.6958,183.0469 453.5396,181.7188 453.5396,179.4375 C453.5396,177.2188 454.6958,175.875 456.2583,175.875 C457.0708,175.875 457.6646,176.1875 458.1958,176.6719 L459.5708,175.125 C458.8208,174.3906 457.6646,173.7188 456.2583,173.7188 C453.3052,173.7188 450.9771,175.8594 450.9771,179.5313 C450.9771,183.25 453.3521,185.2031 456.1021,185.2031 Z " fill="#000000"/><text fill="#000000" font-family="sans-serif" font-size="14" lengthAdjust="spacing" textLength="107.3926" x="476.5552" y="183.7852">PluginsException</text><line style="stroke:#181818;stroke-width:0.5;" x1="333" x2="695.0029" y1="195" y2="195"/><line style="stroke:#181818;stroke-width:0.5;" x1="333" x2="695.0029" y1="203" y2="203"/><ellipse cx="343" cy="216.7031" fill="#84BE84" rx="3" ry="3" style="stroke:#038048;stroke-width:1;"/><text fill="#000000" font-family="sans-serif" font-size="14" lengthAdjust="spacing" textLength="117.0586" x="352" y="219.9883">PluginsException()</text><ellipse cx="343" cy="233.1094" fill="#84BE84" rx="3" ry="3" style="stroke:#038048;stroke-width:1;"/><text fill="#000000" font-family="sans-serif" font-size="14" lengthAdjust="spacing" textLength="153.6924" x="352" y="236.3945">PluginsException(String)</text><ellipse cx="343" cy="249.5156" fill="#84BE84" rx="3" ry="3" style="stroke:#038048;stroke-width:1;"/><text fill="#000000" font-family="sans-serif" font-size="14" lengthAdjust="spacing" textLength="225.5381" x="352" y="252.8008">PluginsException(String, Throwable)</text><ellipse cx="343" cy="265.9219" fill="#84BE84" rx="3" ry="3" style="stroke:#038048;stroke-width:1;"/><text fill="#000000" font-family="sans-serif" font-size="14" lengthAdjust="spacing" textLength="182.6768" x="352" y="269.207">PluginsException(Throwable)</text><polygon fill="#FFFF44" points="343,277.3281,347,281.3281,343,285.3281,339,281.3281" style="stroke:#B38D22;stroke-width:1;"/><text fill="#000000" font-family="sans-serif" font-size="14" lengthAdjust="spacing" textLength="338.0029" x="352" y="285.6133">PluginsException(String, Throwable, boolean, boolean)</text></a></g><!--class PluginRepositoryException--><g class="entity" data-entity="PluginRepositoryException" data-source-line="33" data-uid="ent0005" id="entity_PluginRepositoryException"><a href="PluginRepositoryException.html" target="_top" title="PluginRepositoryException.html" xlink:actuate="onRequest" xlink:href="PluginRepositoryException.html" xlink:show="new" xlink:title="PluginRepositoryException.html" xlink:type="simple"><rect fill="#F1F1F1" height="130.0313" rx="2.5" ry="2.5" style="stroke:#181818;stroke-width:0.5;" width="423.2363" x="339.5" y="386.5"/><ellipse cx="463.5552" cy="402.5" fill="#ADD1B2" rx="11" ry="11" style="stroke:#181818;stroke-width:1;"/><path d="M463.6021,408.7031 C465.1021,408.7031 466.3364,408.1406 467.2427,407.0781 L465.8677,405.5625 C465.3208,406.1563 464.6646,406.5469 463.8677,406.5469 C462.1958,406.5469 461.0396,405.2188 461.0396,402.9375 C461.0396,400.7188 462.1958,399.375 463.7583,399.375 C464.5708,399.375 465.1646,399.6875 465.6958,400.1719 L467.0708,398.625 C466.3208,397.8906 465.1646,397.2188 463.7583,397.2188 C460.8052,397.2188 458.4771,399.3594 458.4771,403.0313 C458.4771,406.75 460.8521,408.7031 463.6021,408.7031 Z " fill="#000000"/><text fill="#000000" font-family="sans-serif" font-size="14" lengthAdjust="spacing" textLength="166.626" x="484.0552" y="407.2852">PluginRepositoryException</text><line style="stroke:#181818;stroke-width:0.5;" x1="340.5" x2="761.7363" y1="418.5" y2="418.5"/><line style="stroke:#181818;stroke-width:0.5;" x1="340.5" x2="761.7363" y1="426.5" y2="426.5"/><ellipse cx="350.5" cy="440.2031" fill="#84BE84" rx="3" ry="3" style="stroke:#038048;stroke-width:1;"/><text fill="#000000" font-family="sans-serif" font-size="14" lengthAdjust="spacing" textLength="176.292" x="359.5" y="443.4883">PluginRepositoryException()</text><ellipse cx="350.5" cy="456.6094" fill="#84BE84" rx="3" ry="3" style="stroke:#038048;stroke-width:1;"/><text fill="#000000" font-family="sans-serif" font-size="14" lengthAdjust="spacing" textLength="212.9258" x="359.5" y="459.8945">PluginRepositoryException(String)</text><ellipse cx="350.5" cy="473.0156" fill="#84BE84" rx="3" ry="3" style="stroke:#038048;stroke-width:1;"/><text fill="#000000" font-family="sans-serif" font-size="14" lengthAdjust="spacing" textLength="284.7715" x="359.5" y="476.3008">PluginRepositoryException(String, Throwable)</text><ellipse cx="350.5" cy="489.4219" fill="#84BE84" rx="3" ry="3" style="stroke:#038048;stroke-width:1;"/><text fill="#000000" font-family="sans-serif" font-size="14" lengthAdjust="spacing" textLength="241.9102" x="359.5" y="492.707">PluginRepositoryException(Throwable)</text><polygon fill="#FFFF44" points="350.5,500.8281,354.5,504.8281,350.5,508.8281,346.5,504.8281" style="stroke:#B38D22;stroke-width:1;"/><text fill="#000000" font-family="sans-serif" font-size="14" lengthAdjust="spacing" textLength="397.2363" x="359.5" y="509.1133">PluginRepositoryException(String, Throwable, boolean, boolean)</text></a></g><!--class PluginManager--><g class="entity" data-entity="PluginManager" data-source-line="41" data-uid="ent0006" id="entity_PluginManager"><a href="PluginManager.html" target="_top" title="PluginManager.html" xlink:actuate="onRequest" xlink:href="PluginManager.html" xlink:show="new" xlink:title="PluginManager.html" xlink:type="simple"><rect fill="#F1F1F1" height="162.8438" rx="2.5" ry="2.5" style="stroke:#181818;stroke-width:0.5;" width="478.5664" x="1229.5" y="146.5"/><ellipse cx="1417.4507" cy="162.5" fill="#ADD1B2" rx="11" ry="11" style="stroke:#181818;stroke-width:1;"/><path d="M1417.4976,168.7031 C1418.9976,168.7031 1420.2319,168.1406 1421.1382,167.0781 L1419.7632,165.5625 C1419.2163,166.1563 1418.5601,166.5469 1417.7632,166.5469 C1416.0913,166.5469 1414.9351,165.2188 1414.9351,162.9375 C1414.9351,160.7188 1416.0913,159.375 1417.6538,159.375 C1418.4663,159.375 1419.0601,159.6875 1419.5913,160.1719 L1420.9663,158.625 C1420.2163,157.8906 1419.0601,157.2188 1417.6538,157.2188 C1414.7007,157.2188 1412.3726,159.3594 1412.3726,163.0313 C1412.3726,166.75 1414.7476,168.7031 1417.4976,168.7031 Z " fill="#000000"/><text fill="#000000" font-family="sans-serif" font-size="14" lengthAdjust="spacing" textLength="94.165" x="1437.9507" y="167.2852">PluginManager</text><line style="stroke:#181818;stroke-width:0.5;" x1="1230.5" x2="1707.0664" y1="178.5" y2="178.5"/><line style="stroke:#181818;stroke-width:0.5;" x1="1230.5" x2="1707.0664" y1="186.5" y2="186.5"/><ellipse cx="1240.5" cy="200.2031" fill="#84BE84" rx="3" ry="3" style="stroke:#038048;stroke-width:1;"/><text fill="#000000" font-family="sans-serif" font-size="14" lengthAdjust="spacing" text-decoration="underline" textLength="309.2988" x="1249.5" y="203.4883">pluginManager(PluginRepository): PluginManager</text><ellipse cx="1240.5" cy="216.6094" fill="#84BE84" rx="3" ry="3" style="stroke:#038048;stroke-width:1;"/><text fill="#000000" font-family="sans-serif" font-size="14" lengthAdjust="spacing" text-decoration="underline" textLength="388.165" x="1249.5" y="219.8945">pluginManager(PluginRepository, LogAdapter): PluginManager</text><ellipse cx="1240.5" cy="233.0156" fill="#84BE84" rx="3" ry="3" style="stroke:#038048;stroke-width:1;"/><text fill="#000000" font-family="sans-serif" font-size="14" lengthAdjust="spacing" text-decoration="underline" textLength="163.7344" x="1249.5" y="236.3008">instance(): PluginManager</text><ellipse cx="1240.5" cy="249.4219" fill="#84BE84" rx="3" ry="3" style="stroke:#038048;stroke-width:1;"/><text fill="#000000" font-family="sans-serif" font-size="14" lengthAdjust="spacing" textLength="275.3857" x="1249.5" y="252.707">constructor(PluginId): PluginConstructor&lt;A&gt;</text><ellipse cx="1240.5" cy="265.8281" fill="#84BE84" rx="3" ry="3" style="stroke:#038048;stroke-width:1;"/><text fill="#000000" font-family="sans-serif" font-size="14" lengthAdjust="spacing" textLength="452.5664" x="1249.5" y="269.1133">constructor(PluginId, PluginChangeEventListener): PluginConstructor&lt;A&gt;</text><ellipse cx="1240.5" cy="282.2344" fill="#84BE84" rx="3" ry="3" style="stroke:#038048;stroke-width:1;"/><text fill="#000000" font-family="sans-serif" font-size="14" lengthAdjust="spacing" textLength="367.9102" x="1249.5" y="285.5195">registerListener(PluginId, PluginChangeEventListener): void</text><ellipse cx="1240.5" cy="298.6406" fill="#84BE84" rx="3" ry="3" style="stroke:#038048;stroke-width:1;"/><text fill="#000000" font-family="sans-serif" font-size="14" lengthAdjust="spacing" textLength="383.3594" x="1249.5" y="301.9258">unregisterListener(PluginId, PluginChangeEventListener): void</text></a></g><!--class PluginConstructor--><g class="entity" data-entity="PluginConstructor" data-source-line="51" data-uid="ent0007" id="entity_PluginConstructor"><a href="PluginConstructor.html" target="_top" title="PluginConstructor.html" xlink:actuate="onRequest" xlink:href="PluginConstructor.html" xlink:show="new" xlink:title="PluginConstructor.html" xlink:type="simple"><rect fill="#F1F1F1" height="64.4063" rx="2.5" ry="2.5" style="stroke:#181818;stroke-width:0.5;" width="262.8242" x="831.5" y="419.5"/><ellipse cx="898.2153" cy="435.5" fill="#B4A7E5" rx="11" ry="11" style="stroke:#181818;stroke-width:1;"/><path d="M894.481,441.5 L902.1528,441.5 L902.1528,439.3906 L899.5747,439.3906 L899.5747,432.5313 L902.1528,432.5313 L902.1528,430.4219 L894.481,430.4219 L894.481,432.5313 L897.0591,432.5313 L897.0591,439.3906 L894.481,439.3906 L894.481,441.5 Z " fill="#000000"/><text fill="#000000" font-family="sans-serif" font-size="14" font-style="italic" lengthAdjust="spacing" textLength="109.2998" x="918.7153" y="440.2852">PluginConstructor</text><rect fill="#FFFFFF" height="16.0625" style="stroke:#181818;stroke-width:1;stroke-dasharray:2,2;" width="9.5938" x="1087.7305" y="416.5"/><text fill="#000000" font-family="sans-serif" font-size="12" font-style="italic" lengthAdjust="spacing" textLength="7.5938" x="1088.7305" y="428.6328">A</text><line style="stroke:#181818;stroke-width:0.5;" x1="832.5" x2="1093.3242" y1="451.5" y2="451.5"/><line style="stroke:#181818;stroke-width:0.5;" x1="832.5" x2="1093.3242" y1="459.5" y2="459.5"/><ellipse cx="842.5" cy="473.2031" fill="#84BE84" rx="3" ry="3" style="stroke:#038048;stroke-width:1;"/><text fill="#000000" font-family="sans-serif" font-size="14" font-style="italic" lengthAdjust="spacing" textLength="236.8242" x="851.5" y="476.4883">construct(TypedValue&lt;?&gt;...): NonNull A</text></a></g><!--class PluginRepository--><g class="entity" data-entity="PluginRepository" data-source-line="55" data-uid="ent0008" id="entity_PluginRepository"><a href="PluginRepository.html" target="_top" title="PluginRepository.html" xlink:actuate="onRequest" xlink:href="PluginRepository.html" xlink:show="new" xlink:title="PluginRepository.html" xlink:type="simple"><rect fill="#F1F1F1" height="130.0313" rx="2.5" ry="2.5" style="stroke:#181818;stroke-width:0.5;" width="291.2617" x="22.5" y="163"/><ellipse cx="112.7583" cy="179" fill="#B4A7E5" rx="11" ry="11" style="stroke:#181818;stroke-width:1;"/><path d="M109.0239,185 L116.6958,185 L116.6958,182.8906 L114.1177,182.8906 L114.1177,176.0313 L116.6958,176.0313 L116.6958,173.9219 L109.0239,173.9219 L109.0239,176.0313 L111.6021,176.0313 L111.6021,182.8906 L109.0239,182.8906 L109.0239,185 Z " fill="#000000"/><text fill="#000000" font-family="sans-serif" font-size="14" font-style="italic" lengthAdjust="spacing" textLength="102.2451" x="133.2583" y="183.7852">PluginRepository</text><line style="stroke:#181818;stroke-width:0.5;" x1="23.5" x2="312.7617" y1="195" y2="195"/><line style="stroke:#181818;stroke-width:0.5;" x1="23.5" x2="312.7617" y1="203" y2="203"/><ellipse cx="33.5" cy="216.7031" fill="#84BE84" rx="3" ry="3" style="stroke:#038048;stroke-width:1;"/><text fill="#000000" font-family="sans-serif" font-size="14" font-style="italic" lengthAdjust="spacing" textLength="265.2617" x="42.5" y="219.9883">store(PluginId, Supplier&lt;InputStream&gt;): void</text><ellipse cx="33.5" cy="233.1094" fill="#84BE84" rx="3" ry="3" style="stroke:#038048;stroke-width:1;"/><text fill="#000000" font-family="sans-serif" font-size="14" font-style="italic" lengthAdjust="spacing" textLength="247.9941" x="42.5" y="236.3945">retrieve(PluginId): Supplier&lt;InputStream&gt;</text><ellipse cx="33.5" cy="249.5156" fill="#84BE84" rx="3" ry="3" style="stroke:#038048;stroke-width:1;"/><text fill="#000000" font-family="sans-serif" font-size="14" font-style="italic" lengthAdjust="spacing" textLength="165.8057" x="42.5" y="252.8008">contains(PluginId): boolean</text><ellipse cx="33.5" cy="265.9219" fill="#84BE84" rx="3" ry="3" style="stroke:#038048;stroke-width:1;"/><text fill="#000000" font-family="sans-serif" font-size="14" font-style="italic" lengthAdjust="spacing" textLength="135.8096" x="42.5" y="269.207">remove(PluginId): void</text><ellipse cx="33.5" cy="282.3281" fill="#84BE84" rx="3" ry="3" style="stroke:#038048;stroke-width:1;"/><text fill="#000000" font-family="sans-serif" font-size="14" font-style="italic" lengthAdjust="spacing" textLength="142.8711" x="42.5" y="285.6133">plugins(): Set&lt;PluginId&gt;</text></a></g><!--class FileRepository--><g class="entity" data-entity="FileRepository" data-source-line="63" data-uid="ent0009" id="entity_FileRepository"><a href="FileRepository.html" target="_top" title="FileRepository.html" xlink:actuate="onRequest" xlink:href="FileRepository.html" xlink:show="new" xlink:title="FileRepository.html" xlink:type="simple"><rect fill="#F1F1F1" height="162.8438" rx="2.5" ry="2.5" style="stroke:#181818;stroke-width:0.5;" width="299.2529" x="22.5" y="370"/><ellipse cx="123.6616" cy="386" fill="#ADD1B2" rx="11" ry="11" style="stroke:#181818;stroke-width:1;"/><path d="M123.7085,392.2031 C125.2085,392.2031 126.4429,391.6406 127.3491,390.5781 L125.9741,389.0625 C125.4272,389.6563 124.771,390.0469 123.9741,390.0469 C122.3022,390.0469 121.146,388.7188 121.146,386.4375 C121.146,384.2188 122.3022,382.875 123.8647,382.875 C124.6772,382.875 125.271,383.1875 125.8022,383.6719 L127.1772,382.125 C126.4272,381.3906 125.271,380.7188 123.8647,380.7188 C120.9116,380.7188 118.5835,382.8594 118.5835,386.5313 C118.5835,390.25 120.9585,392.2031 123.7085,392.2031 Z " fill="#000000"/><text fill="#000000" font-family="sans-serif" font-size="14" lengthAdjust="spacing" textLength="88.4297" x="144.1616" y="390.7852">FileRepository</text><line style="stroke:#181818;stroke-width:0.5;" x1="23.5" x2="320.7529" y1="402" y2="402"/><line style="stroke:#181818;stroke-width:0.5;" x1="23.5" x2="320.7529" y1="410" y2="410"/><ellipse cx="33.5" cy="423.7031" fill="#84BE84" rx="3" ry="3" style="stroke:#038048;stroke-width:1;"/><text fill="#000000" font-family="sans-serif" font-size="14" lengthAdjust="spacing" text-decoration="underline" textLength="227.1514" x="42.5" y="426.9883">fileRepository(String): FileRepository</text><ellipse cx="33.5" cy="440.1094" fill="#84BE84" rx="3" ry="3" style="stroke:#038048;stroke-width:1;"/><text fill="#000000" font-family="sans-serif" font-size="14" lengthAdjust="spacing" text-decoration="underline" textLength="219.2559" x="42.5" y="443.3945">fileRepository(Path): FileRepository</text><ellipse cx="33.5" cy="456.5156" fill="#84BE84" rx="3" ry="3" style="stroke:#038048;stroke-width:1;"/><text fill="#000000" font-family="sans-serif" font-size="14" lengthAdjust="spacing" textLength="273.2529" x="42.5" y="459.8008">store(PluginId, Supplier&lt;InputStream&gt;): void</text><ellipse cx="33.5" cy="472.9219" fill="#84BE84" rx="3" ry="3" style="stroke:#038048;stroke-width:1;"/><text fill="#000000" font-family="sans-serif" font-size="14" lengthAdjust="spacing" textLength="255.5273" x="42.5" y="476.207">retrieve(PluginId): Supplier&lt;InputStream&gt;</text><ellipse cx="33.5" cy="489.3281" fill="#84BE84" rx="3" ry="3" style="stroke:#038048;stroke-width:1;"/><text fill="#000000" font-family="sans-serif" font-size="14" lengthAdjust="spacing" textLength="170.7891" x="42.5" y="492.6133">contains(PluginId): boolean</text><ellipse cx="33.5" cy="505.7344" fill="#84BE84" rx="3" ry="3" style="stroke:#038048;stroke-width:1;"/><text fill="#000000" font-family="sans-serif" font-size="14" lengthAdjust="spacing" textLength="139.8838" x="42.5" y="509.0195">remove(PluginId): void</text><ellipse cx="33.5" cy="522.1406" fill="#84BE84" rx="3" ry="3" style="stroke:#038048;stroke-width:1;"/><text fill="#000000" font-family="sans-serif" font-size="14" lengthAdjust="spacing" textLength="147.1436" x="42.5" y="525.4258">plugins(): Set&lt;PluginId&gt;</text></a></g><!--class RuntimeException--><g class="entity" data-entity="RuntimeException" data-source-line="76" data-uid="ent0011" id="entity_RuntimeException"><rect fill="#F1F1F1" height="48" rx="2.5" ry="2.5" style="stroke:#181818;stroke-width:0.5;" width="144.9775" x="441.5" y="31"/><ellipse cx="456.5" cy="47" fill="#ADD1B2" rx="11" ry="11" style="stroke:#181818;stroke-width:1;"/><path d="M456.5469,53.2031 C458.0469,53.2031 459.2813,52.6406 460.1875,51.5781 L458.8125,50.0625 C458.2656,50.6563 457.6094,51.0469 456.8125,51.0469 C455.1406,51.0469 453.9844,49.7188 453.9844,47.4375 C453.9844,45.2188 455.1406,43.875 456.7031,43.875 C457.5156,43.875 458.1094,44.1875 458.6406,44.6719 L460.0156,43.125 C459.2656,42.3906 458.1094,41.7188 456.7031,41.7188 C453.75,41.7188 451.4219,43.8594 451.4219,47.5313 C451.4219,51.25 453.7969,53.2031 456.5469,53.2031 Z " fill="#000000"/><text fill="#000000" font-family="sans-serif" font-size="14" lengthAdjust="spacing" textLength="112.9775" x="470.5" y="51.7852">RuntimeException</text><line style="stroke:#181818;stroke-width:0.5;" x1="442.5" x2="585.4775" y1="63" y2="63"/><line style="stroke:#181818;stroke-width:0.5;" x1="442.5" x2="585.4775" y1="71" y2="71"/></g><g class="link" data-entity-1="RuntimeException" data-entity-2="PluginsException" data-uid="lnk12" id="link_RuntimeException_PluginsException"><polygon fill="none" points="514,79.0618,508,97.0618,520,97.0618,514,79.0618" style="stroke:#181818;stroke-width:1;"/><path d="M514,97.0618 C514,118.4852 514,133.4083 514,162.7614" fill="none" style="stroke:#181818;stroke-width:1;"/></g><g class="link" data-entity-1="PluginsException" data-entity-2="PluginRepositoryException" data-uid="lnk13" id="link_PluginsException_PluginRepositoryException"><polygon fill="none" points="524.7019,293.067,521.7496,311.8095,533.5856,309.8324,524.7019,293.067" style="stroke:#181818;stroke-width:1;"/><path d="M527.6676,310.821 C532.5551,340.0799 535.3657,356.9058 540.2581,386.1936" fill="none" style="stroke:#181818;stroke-width:1;"/></g><g class="link" data-entity-1="PluginRepository" data-entity-2="FileRepository" data-uid="lnk14" id="link_PluginRepository_FileRepository"><polygon fill="none" points="169.157,293.067,163.4829,311.1724,175.481,310.9557,169.157,293.067" style="stroke:#181818;stroke-width:1;"/><path d="M169.482,311.064 C169.9134,334.9567 170.084,344.4004 170.5392,369.6103" fill="none" style="stroke:#181818;stroke-width:1;stroke-dasharray:7,7;"/></g><g class="footer" data-source-line="90"><text fill="#888888" font-family="sans-serif" font-size="10" lengthAdjust="spacing" textLength="2.4805" x="852.7598" y="552.2773">&#160;</text><a href="https://github.com/talsma-ict/umldoclet" target="_top" title="https://github.com/talsma-ict/umldoclet" xlink:actuate="onRequest" xlink:href="https://github.com/talsma-ict/umldoclet" xlink:show="new" xlink:title="https://github.com/talsma-ict/umldoclet" xlink:type="simple"><text fill="#888888" font-family="sans-serif" font-size="10" lengthAdjust="spacing" textLength="73.7207" x="817.1396" y="563.9961">UMLDoclet 2.2.4</text></a></g><!--SRC=[hLTDSzis4BtdLw2JG-MHHD6CcpeSZJggwhJkoAd7KdfXTO385SKO0XXyA54T__SkINsG54snckXY4tZxTl6ms0K88UH7CXBnHaRXKXCjY5v6Ydoy6nFA0n821qar12HQqH0KcGCJF5GP40WrUYaa4OlqonTIWee53o8UaZ_fcX8bZFH1MQzUaTJLTCV-XQeS-toJ3FucV0QQj4ONkP0S-_9jrx6TjsHAcLfHSZkQMbksWurZETOLGMuM-S0LKXeUW4p36iRKnp_ZRAP3rY1L93ZQs5kUPAc-u9f6N96OIgsI9TqpodKIwwM5_d-oBctI6ax6nU3iTsbm7JAKd9g0F8ZFPh_U7s99GmoPqOqmcgWLQCffEgKmQ0NeYseKq7Kp0upq4NKcGeRMPsFalrRCJ9X4zPG1af_Fg59akeaX-9io0_tXW7ZUuTjQwXMRpT24v7vFIbCT-S-ahVV8rYYXwlz2uAi67YWo75ouHUPpE3haWs6CpXbgtv0FZINrTG9LGvwXLUjWwSqI8XCpSFfRXmDlrY5_pJ-1hxtP_-CTHqht3-I3xyazqHBewbpsTWWfOGkDZeKjGfTKPJk0sBaG32W_0dmGzH1qjmSSDgqQCw6B57T7D_F2LZwNS_C-IzgRhpx4EZbgdbSUgaxITXdMkZWnZt9ZiMc6wc3vaU9BiiPJ1Yy0Nvzcxko4tlzpSKge1uY5Yh0ER8uLgvYhbQu2NwrX5R16p9VXfrIjigoNjv6lCtI-m-8RObFOQRlzFbKlupouLGuH3qI1xIoI3XcBS1ZGM8DiI8XPYCt4Jq_ao_WsjZMbfV7HozRhRR2t61qcowMvqh2pirjI7iBD6hXEIcdInXjnIWWJkDmPDIHUYoWe4Xd-FQXoQH9nv5fG7ofNiS-OtF0BMKFdAkqAppa5StqCYxzbMKcn5JofjxbQMnFD8L4gwiBfG1J282VGnCGnYq3sRtbiTDQm1bKwvqaau0c4DUIpg9AeJe_qXfLdg6fAHQyhKVHP6-JsjfISYGde_iwifbMzZnWKv2qEdAeDYm9wLq3T4cqputkgb_Mcv-_acTlNUC-QR5JZtNakNeO_uKF2mhjucDk5RFCU3DVH2WvTyob7bMFQCxZkaKd_MxTxVDzstNAdJuaQu4uGLlIsUkPSSlQ_MLOLi9GnALzVwGs3WxGB8R2cbFBu3wnBM47vuqWmV8MylgwU_PWyfLZ40Lzl_YC7LDuk2TtlvVnjVVt3FM-fTQpSNY-CzDBCBL-iUZfzndKZN_VCYWNP-wtqaflDjY-pt_TFnEILrRMlkeupTHpNVkCwrvRpxisLRLzT_zosSSZsRemKCVH-JQET_GS0]--></g></svg>