<svg xmlns="http://www.w3.org/2000/svg" xmlns:xlink="http://www.w3.org/1999/xlink" contentStyleType="text/css" data-diagram-type="CLASS" height="508px" preserveAspectRatio="none" style="width:1831px;height:508px;background:#FFFFFF;" version="1.1" viewBox="0 0 1831 508" width="1831px" zoomAndPan="magnify"><defs/><g><!--cluster org.quurz.plugins--><g class="cluster" data-entity="org.quurz.plugins" data-source-line="10" data-uid="ent0002" id="cluster_org.quurz.plugins"><path d="M16.5,95 L128.7002,95 A3.75,3.75 0 0 1 131.2002,97.5 L138.2002,117.4063 L1821.5,117.4063 A2.5,2.5 0 0 1 1824,119.9063 L1824,472.5 A2.5,2.5 0 0 1 1821.5,475 L16.5,475 A2.5,2.5 0 0 1 14,472.5 L14,97.5 A2.5,2.5 0 0 1 16.5,95" fill="none" style="stroke:#000000;stroke-width:1.5;"/><line style="stroke:#000000;stroke-width:1.5;" x1="14" x2="138.2002" y1="117.4063" y2="117.4063"/><text fill="#000000" font-family="sans-serif" font-size="14" font-weight="bold" lengthAdjust="spacing" textLength="111.2002" x="18" y="109.9883">org.quurz.plugins</text></g><!--cluster java.io--><g class="cluster" data-entity="java.io" data-source-line="61" data-uid="ent0011" id="cluster_java.io"><path d="M383.5,4 L425.9395,4 A3.75,3.75 0 0 1 428.4395,6.5 L435.4395,26.4063 L496.5,26.4063 A2.5,2.5 0 0 1 499,28.9063 L499,84.5 A2.5,2.5 0 0 1 496.5,87 L383.5,87 A2.5,2.5 0 0 1 381,84.5 L381,6.5 A2.5,2.5 0 0 1 383.5,4" fill="none" style="stroke:#000000;stroke-width:1.5;"/><line style="stroke:#000000;stroke-width:1.5;" x1="381" x2="435.4395" y1="26.4063" y2="26.4063"/><text fill="#000000" font-family="sans-serif" font-size="14" font-weight="bold" lengthAdjust="spacing" textLength="41.4395" x="385" y="18.9883">java.io</text></g><!--class DefaultRepository--><g class="entity" data-entity="DefaultRepository" data-source-line="12" data-uid="ent0003" id="entity_DefaultRepository"><a href="DefaultRepository.html" target="_top" title="DefaultRepository.html" xlink:actuate="onRequest" xlink:href="DefaultRepository.html" xlink:show="new" xlink:title="DefaultRepository.html" xlink:type="simple"><rect fill="#F1F1F1" height="97.2188" rx="2.5" ry="2.5" style="stroke:#181818;stroke-width:0.5;" width="289.5869" x="22" y="312.5"/><ellipse cx="106.916" cy="328.5" fill="#ADD1B2" rx="11" ry="11" style="stroke:#181818;stroke-width:1;"/><path d="M106.9629,334.7031 C108.4629,334.7031 109.6973,334.1406 110.6035,333.0781 L109.2285,331.5625 C108.6816,332.1563 108.0254,332.5469 107.2285,332.5469 C105.5566,332.5469 104.4004,331.2188 104.4004,328.9375 C104.4004,326.7188 105.5566,325.375 107.1191,325.375 C107.9316,325.375 108.5254,325.6875 109.0566,326.1719 L110.4316,324.625 C109.6816,323.8906 108.5254,323.2188 107.1191,323.2188 C104.166,323.2188 101.8379,325.3594 101.8379,329.0313 C101.8379,332.75 104.2129,334.7031 106.9629,334.7031 Z " fill="#000000"/><text fill="#000000" font-family="sans-serif" font-size="14" lengthAdjust="spacing" textLength="111.2549" x="127.416" y="333.2852">DefaultRepository</text><line style="stroke:#181818;stroke-width:0.5;" x1="23" x2="310.5869" y1="344.5" y2="344.5"/><line style="stroke:#181818;stroke-width:0.5;" x1="23" x2="310.5869" y1="352.5" y2="352.5"/><ellipse cx="33" cy="366.2031" fill="#84BE84" rx="3" ry="3" style="stroke:#038048;stroke-width:1;"/><text fill="#000000" font-family="sans-serif" font-size="14" lengthAdjust="spacing" text-decoration="underline" textLength="221.6895" x="42" y="369.4883">defaultRepository(Path): Repository</text><ellipse cx="33" cy="382.6094" fill="#84BE84" rx="3" ry="3" style="stroke:#038048;stroke-width:1;"/><text fill="#000000" font-family="sans-serif" font-size="14" lengthAdjust="spacing" textLength="263.5869" x="42" y="385.8945">push(PluginId, InputStream): PluginHandle</text><ellipse cx="33" cy="399.0156" fill="#84BE84" rx="3" ry="3" style="stroke:#038048;stroke-width:1;"/><text fill="#000000" font-family="sans-serif" font-size="14" lengthAdjust="spacing" textLength="131.4004" x="42" y="402.3008">delete(PluginId): void</text></a></g><!--class PluginFactory--><g class="entity" data-entity="PluginFactory" data-source-line="18" data-uid="ent0004" id="entity_PluginFactory"><a href="PluginFactory.html" target="_top" title="PluginFactory.html" xlink:actuate="onRequest" xlink:href="PluginFactory.html" xlink:show="new" xlink:title="PluginFactory.html" xlink:type="simple"><rect fill="#F1F1F1" height="80.8125" rx="2.5" ry="2.5" style="stroke:#181818;stroke-width:0.5;" width="548.457" x="1268" y="130"/><ellipse cx="1490.6807" cy="146" fill="#B4A7E5" rx="11" ry="11" style="stroke:#181818;stroke-width:1;"/><path d="M1486.9463,152 L1494.6182,152 L1494.6182,149.8906 L1492.04,149.8906 L1492.04,143.0313 L1494.6182,143.0313 L1494.6182,140.9219 L1486.9463,140.9219 L1486.9463,143.0313 L1489.5244,143.0313 L1489.5244,149.8906 L1486.9463,149.8906 L1486.9463,152 Z " fill="#000000"/><text fill="#000000" font-family="sans-serif" font-size="14" font-style="italic" lengthAdjust="spacing" textLength="83.002" x="1511.1807" y="150.7852">PluginFactory</text><rect fill="#FFFFFF" height="16.0625" style="stroke:#181818;stroke-width:1;stroke-dasharray:2,2;" width="9.5938" x="1809.8633" y="127"/><text fill="#000000" font-family="sans-serif" font-size="12" font-style="italic" lengthAdjust="spacing" textLength="7.5938" x="1810.8633" y="139.1328">A</text><line style="stroke:#181818;stroke-width:0.5;" x1="1269" x2="1815.457" y1="162" y2="162"/><line style="stroke:#181818;stroke-width:0.5;" x1="1269" x2="1815.457" y1="170" y2="170"/><ellipse cx="1279" cy="183.7031" fill="#84BE84" rx="3" ry="3" style="stroke:#038048;stroke-width:1;"/><text fill="#000000" font-family="sans-serif" font-size="14" lengthAdjust="spacing" text-decoration="underline" textLength="522.457" x="1288" y="186.9883">pluginFactory(Class&lt;A&gt;, Class&lt;? extends A&gt;, String, ClassLoader): PluginFactory&lt;A&gt;</text><ellipse cx="1279" cy="200.1094" fill="#84BE84" rx="3" ry="3" style="stroke:#038048;stroke-width:1;"/><text fill="#000000" font-family="sans-serif" font-size="14" font-style="italic" lengthAdjust="spacing" textLength="236.8242" x="1288" y="203.3945">construct(TypedValue&lt;?&gt;...): NonNull A</text></a></g><!--class PluginFactory.LockedDelegator--><g class="entity" data-entity="PluginFactory.LockedDelegator" data-source-line="23" data-uid="ent0005" id="entity_PluginFactory.LockedDelegator"><a href="PluginFactory.LockedDelegator.html" target="_top" title="PluginFactory.LockedDelegator.html" xlink:actuate="onRequest" xlink:href="PluginFactory.LockedDelegator.html" xlink:show="new" xlink:title="PluginFactory.LockedDelegator.html" xlink:type="simple"><rect fill="#F1F1F1" height="64.4063" rx="2.5" ry="2.5" style="stroke:#181818;stroke-width:0.5;" width="301.8369" x="1391" y="329"/><ellipse cx="1440.2939" cy="345" fill="#ADD1B2" rx="11" ry="11" style="stroke:#181818;stroke-width:1;"/><path d="M1440.3408,351.2031 C1441.8408,351.2031 1443.0752,350.6406 1443.9814,349.5781 L1442.6064,348.0625 C1442.0596,348.6563 1441.4033,349.0469 1440.6064,349.0469 C1438.9346,349.0469 1437.7783,347.7188 1437.7783,345.4375 C1437.7783,343.2188 1438.9346,341.875 1440.4971,341.875 C1441.3096,341.875 1441.9033,342.1875 1442.4346,342.6719 L1443.8096,341.125 C1443.0596,340.3906 1441.9033,339.7188 1440.4971,339.7188 C1437.5439,339.7188 1435.2158,341.8594 1435.2158,345.5313 C1435.2158,349.25 1437.5908,351.2031 1440.3408,351.2031 Z " fill="#000000"/><text fill="#000000" font-family="sans-serif" font-size="14" lengthAdjust="spacing" textLength="194.749" x="1460.7939" y="349.7852">PluginFactory.LockedDelegator</text><line style="stroke:#181818;stroke-width:0.5;" x1="1392" x2="1691.8369" y1="361" y2="361"/><line style="stroke:#181818;stroke-width:0.5;" x1="1392" x2="1691.8369" y1="369" y2="369"/><ellipse cx="1402" cy="382.7031" fill="#84BE84" rx="3" ry="3" style="stroke:#038048;stroke-width:1;"/><text fill="#000000" font-family="sans-serif" font-size="14" lengthAdjust="spacing" text-decoration="underline" textLength="275.8369" x="1411" y="385.9883">intercept(Proxy&lt;?&gt;, Method, Object[]): Object</text></a></g><!--class PluginHandle--><g class="entity" data-entity="PluginHandle" data-source-line="27" data-uid="ent0006" id="entity_PluginHandle"><a href="PluginHandle.html" target="_top" title="PluginHandle.html" xlink:actuate="onRequest" xlink:href="PluginHandle.html" xlink:show="new" xlink:title="PluginHandle.html" xlink:type="simple"><rect fill="#F1F1F1" height="80.8125" rx="2.5" ry="2.5" style="stroke:#181818;stroke-width:0.5;" width="576.6553" x="575.5" y="130"/><ellipse cx="818.0732" cy="146" fill="#ADD1B2" rx="11" ry="11" style="stroke:#181818;stroke-width:1;"/><path d="M818.1201,152.2031 C819.6201,152.2031 820.8545,151.6406 821.7607,150.5781 L820.3857,149.0625 C819.8389,149.6563 819.1826,150.0469 818.3857,150.0469 C816.7139,150.0469 815.5576,148.7188 815.5576,146.4375 C815.5576,144.2188 816.7139,142.875 818.2764,142.875 C819.0889,142.875 819.6826,143.1875 820.2139,143.6719 L821.5889,142.125 C820.8389,141.3906 819.6826,140.7188 818.2764,140.7188 C815.3232,140.7188 812.9951,142.8594 812.9951,146.5313 C812.9951,150.25 815.3701,152.2031 818.1201,152.2031 Z " fill="#000000"/><text fill="#000000" font-family="sans-serif" font-size="14" lengthAdjust="spacing" textLength="83.0088" x="838.5732" y="150.7852">PluginHandle</text><line style="stroke:#181818;stroke-width:0.5;" x1="576.5" x2="1151.1553" y1="162" y2="162"/><ellipse cx="586.5" cy="175.7031" fill="none" rx="3" ry="3" style="stroke:#038048;stroke-width:1;"/><text fill="#000000" font-family="sans-serif" font-size="14" lengthAdjust="spacing" textLength="160.6514" x="595.5" y="178.9883">classLoader: ClassLoader</text><line style="stroke:#181818;stroke-width:0.5;" x1="576.5" x2="1151.1553" y1="186.4063" y2="186.4063"/><ellipse cx="586.5" cy="200.1094" fill="#84BE84" rx="3" ry="3" style="stroke:#038048;stroke-width:1;"/><text fill="#000000" font-family="sans-serif" font-size="14" lengthAdjust="spacing" text-decoration="underline" textLength="550.6553" x="595.5" y="203.3945">pluginHandle(PluginId, String, Class&lt;A&gt;, Class&lt;? extends A&gt;, ClassLoader): PluginHandle</text></a></g><!--class PluginId--><g class="entity" data-entity="PluginId" data-source-line="32" data-uid="ent0007" id="entity_PluginId"><a href="PluginId.html" target="_top" title="PluginId.html" xlink:actuate="onRequest" xlink:href="PluginId.html" xlink:show="new" xlink:title="PluginId.html" xlink:type="simple"><rect fill="#F1F1F1" height="97.2188" rx="2.5" ry="2.5" style="stroke:#181818;stroke-width:0.5;" width="234.8242" x="322.5" y="122"/><ellipse cx="410.335" cy="138" fill="#ADD1B2" rx="11" ry="11" style="stroke:#181818;stroke-width:1;"/><path d="M410.3818,144.2031 C411.8818,144.2031 413.1162,143.6406 414.0225,142.5781 L412.6475,141.0625 C412.1006,141.6563 411.4443,142.0469 410.6475,142.0469 C408.9756,142.0469 407.8193,140.7188 407.8193,138.4375 C407.8193,136.2188 408.9756,134.875 410.5381,134.875 C411.3506,134.875 411.9443,135.1875 412.4756,135.6719 L413.8506,134.125 C413.1006,133.3906 411.9443,132.7188 410.5381,132.7188 C407.585,132.7188 405.2568,134.8594 405.2568,138.5313 C405.2568,142.25 407.6318,144.2031 410.3818,144.2031 Z " fill="#000000"/><text fill="#000000" font-family="sans-serif" font-size="14" lengthAdjust="spacing" textLength="50.6543" x="430.835" y="142.7852">PluginId</text><line style="stroke:#181818;stroke-width:0.5;" x1="323.5" x2="556.3242" y1="154" y2="154"/><line style="stroke:#181818;stroke-width:0.5;" x1="323.5" x2="556.3242" y1="162" y2="162"/><ellipse cx="333.5" cy="175.7031" fill="#84BE84" rx="3" ry="3" style="stroke:#038048;stroke-width:1;"/><text fill="#000000" font-family="sans-serif" font-size="14" lengthAdjust="spacing" text-decoration="underline" textLength="208.8242" x="342.5" y="178.9883">pluginId(String, SemVer): PluginId</text><ellipse cx="333.5" cy="192.1094" fill="#84BE84" rx="3" ry="3" style="stroke:#038048;stroke-width:1;"/><text fill="#000000" font-family="sans-serif" font-size="14" lengthAdjust="spacing" textLength="110.332" x="342.5" y="195.3945">getName(): String</text><ellipse cx="333.5" cy="208.5156" fill="#84BE84" rx="3" ry="3" style="stroke:#038048;stroke-width:1;"/><text fill="#000000" font-family="sans-serif" font-size="14" lengthAdjust="spacing" textLength="132.918" x="342.5" y="211.8008">getVersion(): SemVer</text></a></g><!--class Proxy--><g class="entity" data-entity="Proxy" data-source-line="38" data-uid="ent0008" id="entity_Proxy"><a href="Proxy.html" target="_top" title="Proxy.html" xlink:actuate="onRequest" xlink:href="Proxy.html" xlink:show="new" xlink:title="Proxy.html" xlink:type="simple"><rect fill="#F1F1F1" height="48" rx="2.5" ry="2.5" style="stroke:#181818;stroke-width:0.5;" width="78.7236" x="1170.5" y="146.5"/><ellipse cx="1185.5" cy="162.5" fill="#ADD1B2" rx="11" ry="11" style="stroke:#181818;stroke-width:1;"/><path d="M1185.5469,168.7031 C1187.0469,168.7031 1188.2813,168.1406 1189.1875,167.0781 L1187.8125,165.5625 C1187.2656,166.1563 1186.6094,166.5469 1185.8125,166.5469 C1184.1406,166.5469 1182.9844,165.2188 1182.9844,162.9375 C1182.9844,160.7188 1184.1406,159.375 1185.7031,159.375 C1186.5156,159.375 1187.1094,159.6875 1187.6406,160.1719 L1189.0156,158.625 C1188.2656,157.8906 1187.1094,157.2188 1185.7031,157.2188 C1182.75,157.2188 1180.4219,159.3594 1180.4219,163.0313 C1180.4219,166.75 1182.7969,168.7031 1185.5469,168.7031 Z " fill="#000000"/><text fill="#000000" font-family="sans-serif" font-size="14" lengthAdjust="spacing" textLength="35.1299" x="1199.5" y="167.2852">Proxy</text><rect fill="#FFFFFF" height="16.0625" style="stroke:#181818;stroke-width:1;stroke-dasharray:2,2;" width="9.5938" x="1242.6299" y="143.5"/><text fill="#000000" font-family="sans-serif" font-size="12" font-style="italic" lengthAdjust="spacing" textLength="7.5938" x="1243.6299" y="155.6328">A</text><line style="stroke:#181818;stroke-width:0.5;" x1="1171.5" x2="1248.2236" y1="178.5" y2="178.5"/><line style="stroke:#181818;stroke-width:0.5;" x1="1171.5" x2="1248.2236" y1="186.5" y2="186.5"/></a></g><!--class Repository--><g class="entity" data-entity="Repository" data-source-line="41" data-uid="ent0009" id="entity_Repository"><a href="Repository.html" target="_top" title="Repository.html" xlink:actuate="onRequest" xlink:href="Repository.html" xlink:show="new" xlink:title="Repository.html" xlink:type="simple"><rect fill="#F1F1F1" height="80.8125" rx="2.5" ry="2.5" style="stroke:#181818;stroke-width:0.5;" width="281.8828" x="22" y="130"/><ellipse cx="126.46" cy="146" fill="#B4A7E5" rx="11" ry="11" style="stroke:#181818;stroke-width:1;"/><path d="M122.7256,152 L130.3975,152 L130.3975,149.8906 L127.8193,149.8906 L127.8193,143.0313 L130.3975,143.0313 L130.3975,140.9219 L122.7256,140.9219 L122.7256,143.0313 L125.3037,143.0313 L125.3037,149.8906 L122.7256,149.8906 L122.7256,152 Z " fill="#000000"/><text fill="#000000" font-family="sans-serif" font-size="14" font-style="italic" lengthAdjust="spacing" textLength="64.4629" x="146.96" y="150.7852">Repository</text><line style="stroke:#181818;stroke-width:0.5;" x1="23" x2="302.8828" y1="162" y2="162"/><line style="stroke:#181818;stroke-width:0.5;" x1="23" x2="302.8828" y1="170" y2="170"/><ellipse cx="33" cy="183.7031" fill="#84BE84" rx="3" ry="3" style="stroke:#038048;stroke-width:1;"/><text fill="#000000" font-family="sans-serif" font-size="14" font-style="italic" lengthAdjust="spacing" textLength="255.8828" x="42" y="186.9883">push(PluginId, InputStream): PluginHandle</text><ellipse cx="33" cy="200.1094" fill="#84BE84" rx="3" ry="3" style="stroke:#038048;stroke-width:1;"/><text fill="#000000" font-family="sans-serif" font-size="14" font-style="italic" lengthAdjust="spacing" textLength="127.5791" x="42" y="203.3945">delete(PluginId): void</text></a></g><!--class TypedValue--><g class="entity" data-entity="TypedValue" data-source-line="46" data-uid="ent0010" id="entity_TypedValue"><a href="TypedValue.html" target="_top" title="TypedValue.html" xlink:actuate="onRequest" xlink:href="TypedValue.html" xlink:show="new" xlink:title="TypedValue.html" xlink:type="simple"><rect fill="#F1F1F1" height="212.0625" rx="2.5" ry="2.5" style="stroke:#181818;stroke-width:0.5;" width="496.873" x="615.5" y="255"/><ellipse cx="817.2729" cy="271" fill="#ADD1B2" rx="11" ry="11" style="stroke:#181818;stroke-width:1;"/><path d="M817.3198,277.2031 C818.8198,277.2031 820.0542,276.6406 820.9604,275.5781 L819.5854,274.0625 C819.0386,274.6563 818.3823,275.0469 817.5854,275.0469 C815.9136,275.0469 814.7573,273.7188 814.7573,271.4375 C814.7573,269.2188 815.9136,267.875 817.4761,267.875 C818.2886,267.875 818.8823,268.1875 819.4136,268.6719 L820.7886,267.125 C820.0386,266.3906 818.8823,265.7188 817.4761,265.7188 C814.5229,265.7188 812.1948,267.8594 812.1948,271.5313 C812.1948,275.25 814.5698,277.2031 817.3198,277.2031 Z " fill="#000000"/><text fill="#000000" font-family="sans-serif" font-size="14" lengthAdjust="spacing" textLength="73.2334" x="837.7729" y="275.7852">TypedValue</text><rect fill="#FFFFFF" height="16.0625" style="stroke:#181818;stroke-width:1;stroke-dasharray:2,2;" width="9.5938" x="1105.7793" y="252"/><text fill="#000000" font-family="sans-serif" font-size="12" font-style="italic" lengthAdjust="spacing" textLength="7.5938" x="1106.7793" y="264.1328">A</text><line style="stroke:#181818;stroke-width:0.5;" x1="616.5" x2="1111.373" y1="287" y2="287"/><line style="stroke:#181818;stroke-width:0.5;" x1="616.5" x2="1111.373" y1="295" y2="295"/><ellipse cx="626.5" cy="308.7031" fill="#84BE84" rx="3" ry="3" style="stroke:#038048;stroke-width:1;"/><text fill="#000000" font-family="sans-serif" font-size="14" lengthAdjust="spacing" text-decoration="underline" textLength="303.7344" x="635.5" y="311.9883">typedValue(Class&lt;? extends A&gt;): TypedValue&lt;A&gt;</text><ellipse cx="626.5" cy="325.1094" fill="#84BE84" rx="3" ry="3" style="stroke:#038048;stroke-width:1;"/><text fill="#000000" font-family="sans-serif" font-size="14" lengthAdjust="spacing" text-decoration="underline" textLength="373.3857" x="635.5" y="328.3945">typedValue(Class&lt;? extends A&gt;, Nullable A): TypedValue&lt;A&gt;</text><ellipse cx="626.5" cy="341.5156" fill="#84BE84" rx="3" ry="3" style="stroke:#038048;stroke-width:1;"/><text fill="#000000" font-family="sans-serif" font-size="14" lengthAdjust="spacing" text-decoration="underline" textLength="418.9063" x="635.5" y="344.8008">extractTypesAndValues(TypedValue[]): Tuple2&lt;Class&lt;?&gt;[], Object[]&gt;</text><ellipse cx="626.5" cy="357.9219" fill="#84BE84" rx="3" ry="3" style="stroke:#038048;stroke-width:1;"/><text fill="#000000" font-family="sans-serif" font-size="14" lengthAdjust="spacing" text-decoration="underline" textLength="448.6699" x="635.5" y="361.207">extractTypesAndValues(List&lt;TypedValue&gt;): Tuple2&lt;Class&lt;?&gt;[], Object[]&gt;</text><ellipse cx="626.5" cy="374.3281" fill="#84BE84" rx="3" ry="3" style="stroke:#038048;stroke-width:1;"/><text fill="#000000" font-family="sans-serif" font-size="14" lengthAdjust="spacing" text-decoration="underline" textLength="470.873" x="635.5" y="377.6133">extractTypesAndValues(Stream&lt;TypedValue&gt;): Tuple2&lt;Class&lt;?&gt;[], Object[]&gt;</text><ellipse cx="626.5" cy="390.7344" fill="#84BE84" rx="3" ry="3" style="stroke:#038048;stroke-width:1;"/><text fill="#000000" font-family="sans-serif" font-size="14" lengthAdjust="spacing" textLength="187.5986" x="635.5" y="394.0195">getType(): Class&lt;? extends A&gt;</text><ellipse cx="626.5" cy="407.1406" fill="#84BE84" rx="3" ry="3" style="stroke:#038048;stroke-width:1;"/><text fill="#000000" font-family="sans-serif" font-size="14" lengthAdjust="spacing" textLength="124.1611" x="635.5" y="410.4258">hasValue(): boolean</text><ellipse cx="626.5" cy="423.5469" fill="#84BE84" rx="3" ry="3" style="stroke:#038048;stroke-width:1;"/><text fill="#000000" font-family="sans-serif" font-size="14" lengthAdjust="spacing" textLength="142.1328" x="635.5" y="426.832">hasNoValue(): boolean</text><ellipse cx="626.5" cy="439.9531" fill="#84BE84" rx="3" ry="3" style="stroke:#038048;stroke-width:1;"/><text fill="#000000" font-family="sans-serif" font-size="14" lengthAdjust="spacing" textLength="134.8936" x="635.5" y="443.2383">getValue(): Nullable A</text><ellipse cx="626.5" cy="456.3594" fill="#84BE84" rx="3" ry="3" style="stroke:#038048;stroke-width:1;"/><text fill="#000000" font-family="sans-serif" font-size="14" lengthAdjust="spacing" textLength="165.0059" x="635.5" y="459.6445">getValueSafe(): Maybe&lt;A&gt;</text></a></g><!--class Serializable--><g class="entity" data-entity="Serializable" data-source-line="62" data-uid="ent0012" id="entity_Serializable"><rect fill="#F1F1F1" height="48" rx="2.5" ry="2.5" style="stroke:#181818;stroke-width:0.5;" width="101.4189" x="389.5" y="31"/><ellipse cx="404.5" cy="47" fill="#B4A7E5" rx="11" ry="11" style="stroke:#181818;stroke-width:1;"/><path d="M400.7656,53 L408.4375,53 L408.4375,50.8906 L405.8594,50.8906 L405.8594,44.0313 L408.4375,44.0313 L408.4375,41.9219 L400.7656,41.9219 L400.7656,44.0313 L403.3438,44.0313 L403.3438,50.8906 L400.7656,50.8906 L400.7656,53 Z " fill="#000000"/><text fill="#000000" font-family="sans-serif" font-size="14" font-style="italic" lengthAdjust="spacing" textLength="69.4189" x="418.5" y="51.7852">Serializable</text><line style="stroke:#181818;stroke-width:0.5;" x1="390.5" x2="489.9189" y1="63" y2="63"/><line style="stroke:#181818;stroke-width:0.5;" x1="390.5" x2="489.9189" y1="71" y2="71"/></g><g class="link" data-entity-1="Repository" data-entity-2="DefaultRepository" data-uid="lnk13" id="link_Repository_DefaultRepository"><polygon fill="none" points="163.8385,211.0158,158.2218,229.139,170.2191,228.8844,163.8385,211.0158" style="stroke:#181818;stroke-width:1;"/><path d="M164.2204,229.0117 C164.8458,258.4841 165.3212,280.8881 165.9853,312.1831" fill="none" style="stroke:#181818;stroke-width:1;stroke-dasharray:7,7;"/></g><g class="link" data-entity-1="PluginFactory" data-entity-2="PluginFactory.LockedDelegator" data-uid="lnk14" id="link_PluginFactory_PluginFactory.LockedDelegator"><ellipse cx="1542" cy="219.0158" fill="#FFFFFF" rx="8" ry="8" style="stroke:#181818;stroke-width:1;"/><line style="stroke:#181818;stroke-width:1;" x1="1542" x2="1542" y1="227.0158" y2="211.0158"/><line style="stroke:#181818;stroke-width:1;" x1="1534" x2="1550" y1="219.0158" y2="219.0158"/><path d="M1542,227.0158 C1542,262.102 1542,296.675 1542,328.9366" fill="none" style="stroke:#181818;stroke-width:1;"/></g><g class="link" data-entity-1="Serializable" data-entity-2="PluginId" data-uid="lnk15" id="link_Serializable_PluginId"><polygon fill="none" points="440,79.2423,434,97.2423,446,97.2423,440,79.2423" style="stroke:#181818;stroke-width:1;"/><path d="M440,97.2423 C440,109.5648 440,107.1711 440,121.9272" fill="none" style="stroke:#181818;stroke-width:1;stroke-dasharray:7,7;"/></g><g class="footer" data-source-line="75"><text fill="#888888" font-family="sans-serif" font-size="10" lengthAdjust="spacing" textLength="2.4805" x="906.2598" y="486.2773">&#160;</text><a href="https://github.com/talsma-ict/umldoclet" target="_top" title="https://github.com/talsma-ict/umldoclet" xlink:actuate="onRequest" xlink:href="https://github.com/talsma-ict/umldoclet" xlink:show="new" xlink:title="https://github.com/talsma-ict/umldoclet" xlink:type="simple"><text fill="#888888" font-family="sans-serif" font-size="10" lengthAdjust="spacing" textLength="73.7207" x="870.6396" y="497.9961">UMLDoclet 2.2.4</text></a></g><!--SRC=[hLRVSzeu47xlNx4tzt3k0CQuIIxdOTBXoBMbGtAPGlD2UH3sOjm8oPNajBJD_tuhcs0RI4WpnmkojFljjx-a1G3u0_eoNQaaNXWm4imYqV3nOWXCH12ZGCKCHf0iMOmQPiYbY7KXYC0oiv0Av3p_2gLIg5CfeaJ4y9xTCj0oKo5gzyKBo4sDxz6_Cbr1dwtivhaCEHfm-Yyhb7olSzBoFVy4neph9OD1V-okqKeTt_NT8o1ideGeD45c8aALq-gbBAI_ON7IX5jKEf62TBmrZdKrbCAmH6X8cJBQkdJ5cJ2MQySb-yTknmEdDnhMoNb_vUIQq5E2PH5ya5-oZR-_fOh5H9cpbSmCw2KQ9bX-f8cqHhB530Km20e5Odf3SGQfOlTBbgdlRigpsBBwKGZONyYPrd2ESvPnym5JgHF2MC5aihFdBioIJwUa3PNV3ssOIS8xQ4JR2iuLCukN0PGxDSr6ckc5SvLp6aHD68WqCoEZa2r9gTX_Hz7aM5UBa9A46qMIlPL9j96vAvrBX44rPo6kqTwmqBBezix8lzhM8T_Igh3Jjq4Zb2OKgzU0tmoAI8FT8nUePDTdGyceT3R-b0pgXjXC6qLdP8fgXzPPQ9pnAiNecl4Ckw_FNDSbb4ifBZFEeRVFtIANTR-6Chp1w9n25kV5iUttrlcXEEGH3J4rpfMItrR4gmaNI7rB-VjtzXb3CvaIpM9vY6EHt0sbudC_WqPO1ZEeHlRHV1M8bHAhfUR11EvBt5OXFk3H8DfuCuYULbE3oBbdDSBbTSNa8Ag784PpoPRea42XiNDyNLn6kKIEzGZVF7r58zZbBjczVLIx8GvU3PMgVbwlLn6UtlQ5XvNkoTqilmybncmadTto8BirvETWDC4sCPjHyVUUY4VADWvMLFT48QqhDqJUTkCivUXtrmRF9jEoANyDTvXeqot1p_vFx2BhpqMtPMvLROtl1hOkkc2wo039pgJaoCIEmALyNCHsrRr0cRJzCYCsp-Kks6fMI-MwDk_gx_9dccdSH5RAiEop4Qg4yUIxDLVLtNdBWw3IajsVhhjFPESfVmYhzZP0ezKwABJzWEJ8Qy-2eEh6W-msjrskszLcnR6CtLnA2ifMhxwZ2b33HDpq9QT7xVVJ_QSVxTZ64u4qAOOt0kbMy2f9oSsrA_RMjZw9oMHXJAg3TZjEp2ARkQ5Sjaq-ChQIqBIp9O-AMN5hQfnErrFWsyquQYUwbdVKwhmQ-rxW-y7nd-whqoF_s3_fd3OyF_2yoJ-PaYcs_yxPJly3]--></g></svg>