<svg xmlns="http://www.w3.org/2000/svg" xmlns:xlink="http://www.w3.org/1999/xlink" contentStyleType="text/css" data-diagram-type="CLASS" height="206px" preserveAspectRatio="none" style="width:247px;height:206px;background:#FFFFFF;" version="1.1" viewBox="0 0 247 206" width="247px" zoomAndPan="magnify"><defs/><g><!--class org.quurz.plugins.PluginDescription--><g class="entity" data-entity="org.quurz.plugins.PluginDescription" data-source-line="13" data-uid="ent0002" id="entity_org.quurz.plugins.PluginId"><a href="PluginId.html" target="_top" title="PluginId.html" xlink:actuate="onRequest" xlink:href="PluginId.html" xlink:show="new" xlink:title="PluginId.html" xlink:type="simple"><rect fill="#F1F1F1" height="95.3438" rx="2.5" ry="2.5" style="stroke:#181818;stroke-width:0.5;" width="234.8242" x="6" y="86"/><ellipse cx="80.4976" cy="105.0625" fill="#ADD1B2" rx="11" ry="11" style="stroke:#181818;stroke-width:1;"/><path d="M80.5444,111.2656 C82.0444,111.2656 83.2788,110.7031 84.1851,109.6406 L82.8101,108.125 C82.2632,108.7188 81.6069,109.1094 80.8101,109.1094 C79.1382,109.1094 77.9819,107.7813 77.9819,105.5 C77.9819,103.2813 79.1382,101.9375 80.7007,101.9375 C81.5132,101.9375 82.1069,102.25 82.6382,102.7344 L84.0132,101.1875 C83.2632,100.4531 82.1069,99.7813 80.7007,99.7813 C77.7476,99.7813 75.4194,101.9219 75.4194,105.5938 C75.4194,109.3125 77.7944,111.2656 80.5444,111.2656 Z " fill="#000000"/><text fill="#000000" font-family="sans-serif" font-size="14" lengthAdjust="spacing" textLength="50.6543" x="114.335" y="103.9883">PluginId</text><text fill="#000000" font-family="sans-serif" font-size="10" lengthAdjust="spacing" textLength="77.3291" x="100.9976" y="116.6836">org.quurz.plugins</text><line style="stroke:#181818;stroke-width:0.5;" x1="7" x2="239.8242" y1="124.125" y2="124.125"/><ellipse cx="17" cy="137.8281" fill="#84BE84" rx="3" ry="3" style="stroke:#038048;stroke-width:1;"/><text fill="#000000" font-family="sans-serif" font-size="14" lengthAdjust="spacing" text-decoration="underline" textLength="208.8242" x="26" y="141.1133">pluginId(String, SemVer): PluginId</text><ellipse cx="17" cy="154.2344" fill="#84BE84" rx="3" ry="3" style="stroke:#038048;stroke-width:1;"/><text fill="#000000" font-family="sans-serif" font-size="14" lengthAdjust="spacing" textLength="110.332" x="26" y="157.5195">getName(): String</text><ellipse cx="17" cy="170.6406" fill="#84BE84" rx="3" ry="3" style="stroke:#038048;stroke-width:1;"/><text fill="#000000" font-family="sans-serif" font-size="14" lengthAdjust="spacing" textLength="132.918" x="26" y="173.9258">getVersion(): SemVer</text></a></g><!--class java.io.Serializable--><g class="entity" data-entity="java.io.Serializable" data-source-line="19" data-uid="ent0003" id="entity_java.io.Serializable"><rect fill="#F1F1F1" height="38.125" rx="2.5" ry="2.5" style="stroke:#181818;stroke-width:0.5;" width="101.4189" x="73" y="12"/><ellipse cx="88" cy="31.0625" fill="#B4A7E5" rx="11" ry="11" style="stroke:#181818;stroke-width:1;"/><path d="M84.2656,37.0625 L91.9375,37.0625 L91.9375,34.9531 L89.3594,34.9531 L89.3594,28.0938 L91.9375,28.0938 L91.9375,25.9844 L84.2656,25.9844 L84.2656,28.0938 L86.8438,28.0938 L86.8438,34.9531 L84.2656,34.9531 L84.2656,37.0625 Z " fill="#000000"/><text fill="#000000" font-family="sans-serif" font-size="14" font-style="italic" lengthAdjust="spacing" textLength="69.4189" x="102" y="29.9883">Serializable</text><text fill="#000000" font-family="sans-serif" font-size="10" font-style="italic" lengthAdjust="spacing" textLength="28.0225" x="122.6982" y="42.6836">java.io</text></g><g class="link" data-entity-1="java.io.Serializable" data-entity-2="org.quurz.plugins.PluginDescription" data-uid="lnk4" id="link_java.io.Serializable_org.quurz.plugins.PluginId"><polygon fill="none" points="123.5,50.4332,117.5,68.4332,129.5,68.4332,123.5,50.4332" style="stroke:#181818;stroke-width:1;"/><path d="M123.5,68.4332 C123.5,78.4066 123.5,73.2207 123.5,85.7439" fill="none" style="stroke:#181818;stroke-width:1;stroke-dasharray:7,7;"/></g><g class="footer" data-source-line="29"><text fill="#888888" font-family="sans-serif" font-size="10" lengthAdjust="spacing" textLength="2.4805" x="118.7598" y="184.2773">&#160;</text><a href="https://github.com/talsma-ict/umldoclet" target="_top" title="https://github.com/talsma-ict/umldoclet" xlink:actuate="onRequest" xlink:href="https://github.com/talsma-ict/umldoclet" xlink:show="new" xlink:title="https://github.com/talsma-ict/umldoclet" xlink:type="simple"><text fill="#888888" font-family="sans-serif" font-size="10" lengthAdjust="spacing" textLength="73.7207" x="83.1396" y="195.9961">UMLDoclet 2.2.4</text></a></g><!--SRC=[VLDHRzCm47xVhpZ60vsskcd82gkgIgCW62feejrUkZwuoJKnS-pClWorO_yTnqbBDYRy4kU-k- - -k_C10Bo1YIusHgGP0McWJ5Yu-ZO5hX98KQ7XX0c8dATeOOLIgzJMZWYyf4mRq6l_5sjZq1PQ9KAby9NVSx2wD35QTd00FjLyn_wBsnRxQbCPF-fO8a5dSjII50RzGJSCmW7CkRGvXul9d3LiVsD25h887BSKCIhhA4kLeF6opWiUky-qHaxW7eqLMhcOeE6fIesr8YwKXO8RibL9bv8hghJscSj_ole1TCvdqwVYWZClxWJEZU9b0Z_qNRclzrLXUEeaIxxH9O7DaRZYDMQTQiLproyUumnTLawkbKehz7Wc4WJC2zh0Mg1Cx7Eh8ykqCtjxBBcrS3YoOel3VZI-b6Kgr4LoenfJCDOcPNTbQRQiyA0z13U3Vwni5mgBnUxACihbSWaFFbTr7Ynn4l4Z71UDJsT6netz16QONwCv6i8kUXzqd29zToLt75XxFu6kwxbur7DuzB4kK2X2itQjQXKvGoEu55k-ajWgzATxU4neNrvpPstNcl0b14Q_6VjFI-h8aQMDnF5U-rfhfwtLdEfysHHefaBTJhHqOttz_cNqgdgbKYXqYn7VAdH33FQUZtMwNYjVa-j6BHOPKM67lLugA2jNBDPvZ_o6T4LClJANIRqQpvPakMmU_UVzzbKFk1j4tVxRUHWCmt1u-ewTdGx2A8h2mN4G3eDWyQaqki3U1wzs-GS0]--></g></svg>