<svg xmlns="http://www.w3.org/2000/svg" xmlns:xlink="http://www.w3.org/1999/xlink" contentStyleType="text/css" data-diagram-type="CLASS" height="199px" preserveAspectRatio="none" style="width:314px;height:199px;background:#FFFFFF;" version="1.1" viewBox="0 0 314 199" width="314px" zoomAndPan="magnify"><defs/><g><!--class org.quurz.plugins.PluginFactory.LockedDelegator--><g class="entity" data-entity="org.quurz.plugins.PluginFactory.LockedDelegator" data-source-line="13" data-uid="ent0002" id="entity_org.quurz.plugins.PluginFactory.LockedDelegator"><a href="PluginFactory.LockedDelegator.html" target="_top" title="PluginFactory.LockedDelegator.html" xlink:actuate="onRequest" xlink:href="PluginFactory.LockedDelegator.html" xlink:show="new" xlink:title="PluginFactory.LockedDelegator.html" xlink:type="simple"><rect fill="#F1F1F1" height="62.5313" rx="2.5" ry="2.5" style="stroke:#181818;stroke-width:0.5;" width="301.8369" x="6" y="111"/><ellipse cx="55.2939" cy="130.0625" fill="#ADD1B2" rx="11" ry="11" style="stroke:#181818;stroke-width:1;"/><path d="M55.3408,136.2656 C56.8408,136.2656 58.0752,135.7031 58.9814,134.6406 L57.6064,133.125 C57.0596,133.7188 56.4033,134.1094 55.6064,134.1094 C53.9346,134.1094 52.7783,132.7813 52.7783,130.5 C52.7783,128.2813 53.9346,126.9375 55.4971,126.9375 C56.3096,126.9375 56.9033,127.25 57.4346,127.7344 L58.8096,126.1875 C58.0596,125.4531 56.9033,124.7813 55.4971,124.7813 C52.5439,124.7813 50.2158,126.9219 50.2158,130.5938 C50.2158,134.3125 52.5908,136.2656 55.3408,136.2656 Z " fill="#000000"/><text fill="#000000" font-family="sans-serif" font-size="14" lengthAdjust="spacing" textLength="194.749" x="75.7939" y="128.9883">PluginFactory.LockedDelegator</text><text fill="#000000" font-family="sans-serif" font-size="10" lengthAdjust="spacing" textLength="77.3291" x="134.5039" y="141.6836">org.quurz.plugins</text><line style="stroke:#181818;stroke-width:0.5;" x1="7" x2="306.8369" y1="149.125" y2="149.125"/><ellipse cx="17" cy="162.8281" fill="#84BE84" rx="3" ry="3" style="stroke:#038048;stroke-width:1;"/><text fill="#000000" font-family="sans-serif" font-size="14" lengthAdjust="spacing" text-decoration="underline" textLength="275.8369" x="26" y="166.1133">intercept(Proxy&lt;?&gt;, Method, Object[]): Object</text></a></g><!--class org.quurz.plugins.PluginFactory--><g class="entity" data-entity="org.quurz.plugins.PluginFactory" data-source-line="17" data-uid="ent0003" id="entity_org.quurz.plugins.PluginFactory"><a href="PluginFactory.html" target="_top" title="PluginFactory.html" xlink:actuate="onRequest" xlink:href="PluginFactory.html" xlink:show="new" xlink:title="PluginFactory.html" xlink:type="simple"><rect fill="#F1F1F1" height="62.5313" rx="2.5" ry="2.5" style="stroke:#181818;stroke-width:0.5;" width="262.8242" x="25.5" y="12"/><ellipse cx="105.3643" cy="31.0625" fill="#B4A7E5" rx="11" ry="11" style="stroke:#181818;stroke-width:1;"/><path d="M101.6299,37.0625 L109.3018,37.0625 L109.3018,34.9531 L106.7236,34.9531 L106.7236,28.0938 L109.3018,28.0938 L109.3018,25.9844 L101.6299,25.9844 L101.6299,28.0938 L104.208,28.0938 L104.208,34.9531 L101.6299,34.9531 L101.6299,37.0625 Z " fill="#000000"/><text fill="#000000" font-family="sans-serif" font-size="14" font-style="italic" lengthAdjust="spacing" textLength="83.002" x="125.8643" y="29.9883">PluginFactory</text><text fill="#000000" font-family="sans-serif" font-size="10" font-style="italic" lengthAdjust="spacing" textLength="75.0146" x="129.8579" y="42.6836">org.quurz.plugins</text><rect fill="#FFFFFF" height="16.0625" style="stroke:#181818;stroke-width:1;stroke-dasharray:2,2;" width="9.5938" x="281.7305" y="9"/><text fill="#000000" font-family="sans-serif" font-size="12" font-style="italic" lengthAdjust="spacing" textLength="7.5938" x="282.7305" y="21.1328">A</text><line style="stroke:#181818;stroke-width:0.5;" x1="26.5" x2="287.3242" y1="50.125" y2="50.125"/><ellipse cx="36.5" cy="63.8281" fill="#84BE84" rx="3" ry="3" style="stroke:#038048;stroke-width:1;"/><text fill="#000000" font-family="sans-serif" font-size="14" font-style="italic" lengthAdjust="spacing" textLength="236.8242" x="45.5" y="67.1133">construct(TypedValue&lt;?&gt;...): NonNull A</text></a></g><g class="link" data-entity-1="org.quurz.plugins.PluginFactory" data-entity-2="org.quurz.plugins.PluginFactory.LockedDelegator" data-uid="lnk4" id="link_org.quurz.plugins.PluginFactory_org.quurz.plugins.PluginFactory.LockedDelegator"><ellipse cx="157" cy="83.1914" fill="#FFFFFF" rx="8" ry="8" style="stroke:#181818;stroke-width:1;"/><line style="stroke:#181818;stroke-width:1;" x1="157" x2="157" y1="91.1914" y2="75.1914"/><line style="stroke:#181818;stroke-width:1;" x1="149" x2="165" y1="83.1914" y2="83.1914"/><path d="M157,91.1914 C157,102.5142 157,99.3408 157,110.6753" fill="none" style="stroke:#181818;stroke-width:1;"/></g><g class="footer" data-source-line="29"><text fill="#888888" font-family="sans-serif" font-size="10" lengthAdjust="spacing" textLength="2.4805" x="152.2598" y="177.2773">&#160;</text><a href="https://github.com/talsma-ict/umldoclet" target="_top" title="https://github.com/talsma-ict/umldoclet" xlink:actuate="onRequest" xlink:href="https://github.com/talsma-ict/umldoclet" xlink:show="new" xlink:title="https://github.com/talsma-ict/umldoclet" xlink:type="simple"><text fill="#888888" font-family="sans-serif" font-size="10" lengthAdjust="spacing" textLength="73.7207" x="116.6396" y="188.9961">UMLDoclet 2.2.4</text></a></g><!--SRC=[fLHDKzim4BtpAxRqq30aYcC2XKmcdJJzda2P4de9EIZonbQH9QCFMiFmtxjsqZI5bawdkjZUrRvzRwLd081dC395QMMQUV06V2OTd1-FWUi4KjHekSS4PCvJT317PNJgbXiHUF2PiM0MzPSmrg8hZ4waJk43l-RWJB027TlQWhhLv0VwL-usqETb5NnbX48FZT7E1gKuwXoquYW-W0bNBkVmVZHXAxIVDJ6BMHS8Mqc1sX5aq0dQcjQmu88UusMc2TTedJIQQg8LJYLL6Esvr0uARhsh99qghdt5jSEe_pxhHD0Oder_9HSTrUIQCBIQXmG-cQkmrlkai3mboegN9dXmENgk-JBdYBNcESsB2pn3wiezZL8RZNK-ama2veKlOI5H9Uv-bC0oG-4wBXHt3hRxJjvWhzCTdAgGIls62y8isTY8IqnUeSAqQdAXL_kYWR4fkmh1th2Yhd3RG0Vp8CeUnOFfzD4yotokPZEuhQbMwzPvxgMuWrsfFT8DANpZr9flPV_5e0d7jR8cV9n_GU6divtUwhMklrighWiNDBi_gVvVbVtXu86mXqBut7bBMP92DuZUW_2DILbWyfchWAI7CKO2Jem-2Kh1S5F3NnZ0RglrhsUn1EuxNoeSh6akZA5fRV2krZjYQSTINuwCeaDyUlZxx7bb92KradV5fKQwPz5wvzsoNNkZtwhNXPvEC-yBrsktK-cpC6V2v6rVcxWbXM-7N2LBzzxpyMosykNRzG-YybWhwhOwUvCuwiLnR_yvEzhhnWVnuM6q6yMzA9g-3jOKs7vPivrz1m00]--></g></svg>