<svg xmlns="http://www.w3.org/2000/svg" xmlns:xlink="http://www.w3.org/1999/xlink" contentStyleType="text/css" data-diagram-type="CLASS" height="239px" preserveAspectRatio="none" style="width:436px;height:239px;background:#FFFFFF;" version="1.1" viewBox="0 0 436 239" width="436px" zoomAndPan="magnify"><defs/><g><!--class org.quurz.plugins.PluginRepositoryException--><g class="entity" data-entity="org.quurz.plugins.PluginRepositoryException" data-source-line="13" data-uid="ent0002" id="entity_org.quurz.plugins.PluginRepositoryException"><a href="PluginRepositoryException.html" target="_top" title="PluginRepositoryException.html" xlink:actuate="onRequest" xlink:href="PluginRepositoryException.html" xlink:show="new" xlink:title="PluginRepositoryException.html" xlink:type="simple"><rect fill="#F1F1F1" height="128.1563" rx="2.5" ry="2.5" style="stroke:#181818;stroke-width:0.5;" width="423.2363" x="6" y="86"/><ellipse cx="130.0552" cy="105.0625" fill="#ADD1B2" rx="11" ry="11" style="stroke:#181818;stroke-width:1;"/><path d="M130.1021,111.2656 C131.6021,111.2656 132.8364,110.7031 133.7427,109.6406 L132.3677,108.125 C131.8208,108.7188 131.1646,109.1094 130.3677,109.1094 C128.6958,109.1094 127.5396,107.7813 127.5396,105.5 C127.5396,103.2813 128.6958,101.9375 130.2583,101.9375 C131.0708,101.9375 131.6646,102.25 132.1958,102.7344 L133.5708,101.1875 C132.8208,100.4531 131.6646,99.7813 130.2583,99.7813 C127.3052,99.7813 124.9771,101.9219 124.9771,105.5938 C124.9771,109.3125 127.3521,111.2656 130.1021,111.2656 Z " fill="#000000"/><text fill="#000000" font-family="sans-serif" font-size="14" lengthAdjust="spacing" textLength="166.626" x="150.5552" y="103.9883">PluginRepositoryException</text><text fill="#000000" font-family="sans-serif" font-size="10" lengthAdjust="spacing" textLength="77.3291" x="195.2036" y="116.6836">org.quurz.plugins</text><line style="stroke:#181818;stroke-width:0.5;" x1="7" x2="428.2363" y1="124.125" y2="124.125"/><ellipse cx="17" cy="137.8281" fill="#84BE84" rx="3" ry="3" style="stroke:#038048;stroke-width:1;"/><text fill="#000000" font-family="sans-serif" font-size="14" lengthAdjust="spacing" textLength="176.292" x="26" y="141.1133">PluginRepositoryException()</text><ellipse cx="17" cy="154.2344" fill="#84BE84" rx="3" ry="3" style="stroke:#038048;stroke-width:1;"/><text fill="#000000" font-family="sans-serif" font-size="14" lengthAdjust="spacing" textLength="212.9258" x="26" y="157.5195">PluginRepositoryException(String)</text><ellipse cx="17" cy="170.6406" fill="#84BE84" rx="3" ry="3" style="stroke:#038048;stroke-width:1;"/><text fill="#000000" font-family="sans-serif" font-size="14" lengthAdjust="spacing" textLength="284.7715" x="26" y="173.9258">PluginRepositoryException(String, Throwable)</text><ellipse cx="17" cy="187.0469" fill="#84BE84" rx="3" ry="3" style="stroke:#038048;stroke-width:1;"/><text fill="#000000" font-family="sans-serif" font-size="14" lengthAdjust="spacing" textLength="241.9102" x="26" y="190.332">PluginRepositoryException(Throwable)</text><polygon fill="#FFFF44" points="17,198.4531,21,202.4531,17,206.4531,13,202.4531" style="stroke:#B38D22;stroke-width:1;"/><text fill="#000000" font-family="sans-serif" font-size="14" lengthAdjust="spacing" textLength="397.2363" x="26" y="206.7383">PluginRepositoryException(String, Throwable, boolean, boolean)</text></a></g><!--class org.quurz.plugins.PluginsException--><g class="entity" data-entity="org.quurz.plugins.PluginsException" data-source-line="21" data-uid="ent0003" id="entity_org.quurz.plugins.PluginsException"><a href="PluginsException.html" target="_top" title="PluginsException.html" xlink:actuate="onRequest" xlink:href="PluginsException.html" xlink:show="new" xlink:title="PluginsException.html" xlink:type="simple"><rect fill="#F1F1F1" height="38.125" rx="2.5" ry="2.5" style="stroke:#181818;stroke-width:0.5;" width="139.3926" x="148" y="12"/><ellipse cx="163" cy="31.0625" fill="#ADD1B2" rx="11" ry="11" style="stroke:#181818;stroke-width:1;"/><path d="M163.0469,37.2656 C164.5469,37.2656 165.7813,36.7031 166.6875,35.6406 L165.3125,34.125 C164.7656,34.7188 164.1094,35.1094 163.3125,35.1094 C161.6406,35.1094 160.4844,33.7813 160.4844,31.5 C160.4844,29.2813 161.6406,27.9375 163.2031,27.9375 C164.0156,27.9375 164.6094,28.25 165.1406,28.7344 L166.5156,27.1875 C165.7656,26.4531 164.6094,25.7813 163.2031,25.7813 C160.25,25.7813 157.9219,27.9219 157.9219,31.5938 C157.9219,35.3125 160.2969,37.2656 163.0469,37.2656 Z " fill="#000000"/><text fill="#000000" font-family="sans-serif" font-size="14" lengthAdjust="spacing" textLength="107.3926" x="177" y="29.9883">PluginsException</text><text fill="#000000" font-family="sans-serif" font-size="10" lengthAdjust="spacing" textLength="77.3291" x="192.0317" y="42.6836">org.quurz.plugins</text></a></g><g class="link" data-entity-1="org.quurz.plugins.PluginsException" data-entity-2="org.quurz.plugins.PluginRepositoryException" data-uid="lnk4" id="link_org.quurz.plugins.PluginsException_org.quurz.plugins.PluginRepositoryException"><polygon fill="none" points="217.5,50.0248,211.5,68.0248,223.5,68.0248,217.5,50.0248" style="stroke:#181818;stroke-width:1;"/><path d="M217.5,68.0248 C217.5,77.8963 217.5,72.7837 217.5,85.9797" fill="none" style="stroke:#181818;stroke-width:1;"/></g><g class="footer" data-source-line="31"><text fill="#888888" font-family="sans-serif" font-size="10" lengthAdjust="spacing" textLength="2.4805" x="212.7598" y="217.2773">&#160;</text><a href="https://github.com/talsma-ict/umldoclet" target="_top" title="https://github.com/talsma-ict/umldoclet" xlink:actuate="onRequest" xlink:href="https://github.com/talsma-ict/umldoclet" xlink:show="new" xlink:title="https://github.com/talsma-ict/umldoclet" xlink:type="simple"><text fill="#888888" font-family="sans-serif" font-size="10" lengthAdjust="spacing" textLength="73.7207" x="177.1396" y="228.9961">UMLDoclet 2.2.4</text></a></g><!--SRC=[fLHDJzj04BtpAwPmA8Z4SPn0amWXqHJrGwc4I3Y573Rsn5wntZ4xQwXf-UzTsscWWLH1zSNspDitRpvs003Umv2omiWuiM09R28PhhwFGEW8OjHeXCK8P2fYP9YZ8Xrp3KGGkKt802sglv2CGSv8HrB7y4tS2M3AJOZixUn05MhoX_rUy3FsUL4QFr6eqCB-yE2PfC1l7pS3FpY6YL2S2lWwd7XBjgSpWHTuNN3SIeQesL7cEa9JoJhBHEXUezhJW3iqB4cxC_wIfqmr96s5r0oPC9RBb2wKqBRKslPS_2ElxSF-sNZqjpY_Nubhm9dH8e_WacxpLRxlCYDY9rc9Wd8BdA8LMjG-TggrI5szH8XZT565TQNKfB7o9p92m3Ip1ImageZNhOui8MUkxA4IpB1xml811-tkwONAOwalCIEMZhOu_n5YPbtMrtg9yK_9nDvjdfi7BwlGl0kkAI-itaOkc4ut-hp4fcesWv-LlF8vt8ZTFzW6DBR6ZTKRe0qtRORknLpXLgTUGU-z8KO3vaGAXLvzr3oF_-eG_tzZ-6K_UBqDjOGj64v-DPjl6O6Q-8HjeV1qLRO5aNMNxwdtvVEboD2CfBuPadA3ljTxtNjLtbibDRfL4TveT4NpLyZ7EbphMRnbh6izdIRMPZnejM9fatpkXPIsRBKpcZAqhJnLKRqirjQ6Aq-z1Zwlzb5vfPj-jna4ao0O-9r1qFFw_VPHf_-XrpdqdScVdkU6CcnzhDJEVWC0]--></g></svg>