<svg xmlns="http://www.w3.org/2000/svg" xmlns:xlink="http://www.w3.org/1999/xlink" contentStyleType="text/css" data-diagram-type="CLASS" height="423px" preserveAspectRatio="none" style="width:1343px;height:423px;background:#FFFFFF;" version="1.1" viewBox="0 0 1343 423" width="1343px" zoomAndPan="magnify"><defs/><g><!--cluster org.quurz.plugins.internal--><g class="cluster" data-entity="org.quurz.plugins.internal" data-source-line="10" data-uid="ent0002" id="cluster_org.quurz.plugins.internal"><path d="M16.5,4 L180.7969,4 A3.75,3.75 0 0 1 183.2969,6.5 L190.2969,26.4063 L913.5,26.4063 A2.5,2.5 0 0 1 916,28.9063 L916,387.5 A2.5,2.5 0 0 1 913.5,390 L16.5,390 A2.5,2.5 0 0 1 14,387.5 L14,6.5 A2.5,2.5 0 0 1 16.5,4" fill="none" style="stroke:#000000;stroke-width:1.5;"/><line style="stroke:#000000;stroke-width:1.5;" x1="14" x2="190.2969" y1="26.4063" y2="26.4063"/><text fill="#000000" font-family="sans-serif" font-size="14" font-weight="bold" lengthAdjust="spacing" textLength="163.2969" x="18" y="18.9883">org.quurz.plugins.internal</text></g><!--cluster org.quurz.plugins--><g class="cluster" data-entity="org.quurz.plugins" data-source-line="38" data-uid="ent0008" id="cluster_org.quurz.plugins"><path d="M926.5,12.5 L1038.7002,12.5 A3.75,3.75 0 0 1 1041.2002,15 L1048.2002,34.9063 L1201.5,34.9063 A2.5,2.5 0 0 1 1204,37.4063 L1204,109 A2.5,2.5 0 0 1 1201.5,111.5 L926.5,111.5 A2.5,2.5 0 0 1 924,109 L924,15 A2.5,2.5 0 0 1 926.5,12.5" fill="none" style="stroke:#000000;stroke-width:1.5;"/><line style="stroke:#000000;stroke-width:1.5;" x1="924" x2="1048.2002" y1="34.9063" y2="34.9063"/><text fill="#000000" font-family="sans-serif" font-size="14" font-weight="bold" lengthAdjust="spacing" textLength="111.2002" x="928" y="27.4883">org.quurz.plugins</text></g><!--cluster java.lang--><g class="cluster" data-entity="java.lang" data-source-line="44" data-uid="ent0010" id="cluster_java.lang"><path d="M1214.5,20.5 L1272.3682,20.5 A3.75,3.75 0 0 1 1274.8682,23 L1281.8682,42.9063 L1333.5,42.9063 A2.5,2.5 0 0 1 1336,45.4063 L1336,101 A2.5,2.5 0 0 1 1333.5,103.5 L1214.5,103.5 A2.5,2.5 0 0 1 1212,101 L1212,23 A2.5,2.5 0 0 1 1214.5,20.5" fill="none" style="stroke:#000000;stroke-width:1.5;"/><line style="stroke:#000000;stroke-width:1.5;" x1="1212" x2="1281.8682" y1="42.9063" y2="42.9063"/><text fill="#000000" font-family="sans-serif" font-size="14" font-weight="bold" lengthAdjust="spacing" textLength="56.8682" x="1216" y="35.4883">java.lang</text></g><!--class Proxy--><g class="entity" data-entity="Proxy" data-source-line="12" data-uid="ent0003" id="entity_Proxy"><a href="Proxy.html" target="_top" title="Proxy.html" xlink:actuate="onRequest" xlink:href="Proxy.html" xlink:show="new" xlink:title="Proxy.html" xlink:type="simple"><rect fill="#F1F1F1" height="48" rx="2.5" ry="2.5" style="stroke:#181818;stroke-width:0.5;" width="78.7236" x="788.5" y="47.5"/><ellipse cx="803.5" cy="63.5" fill="#ADD1B2" rx="11" ry="11" style="stroke:#181818;stroke-width:1;"/><path d="M803.5469,69.7031 C805.0469,69.7031 806.2813,69.1406 807.1875,68.0781 L805.8125,66.5625 C805.2656,67.1563 804.6094,67.5469 803.8125,67.5469 C802.1406,67.5469 800.9844,66.2188 800.9844,63.9375 C800.9844,61.7188 802.1406,60.375 803.7031,60.375 C804.5156,60.375 805.1094,60.6875 805.6406,61.1719 L807.0156,59.625 C806.2656,58.8906 805.1094,58.2188 803.7031,58.2188 C800.75,58.2188 798.4219,60.3594 798.4219,64.0313 C798.4219,67.75 800.7969,69.7031 803.5469,69.7031 Z " fill="#000000"/><text fill="#000000" font-family="sans-serif" font-size="14" lengthAdjust="spacing" textLength="35.1299" x="817.5" y="68.2852">Proxy</text><rect fill="#FFFFFF" height="16.0625" style="stroke:#181818;stroke-width:1;stroke-dasharray:2,2;" width="9.5938" x="860.6299" y="44.5"/><text fill="#000000" font-family="sans-serif" font-size="12" font-style="italic" lengthAdjust="spacing" textLength="7.5938" x="861.6299" y="56.6328">A</text><line style="stroke:#181818;stroke-width:0.5;" x1="789.5" x2="866.2236" y1="79.5" y2="79.5"/><line style="stroke:#181818;stroke-width:0.5;" x1="789.5" x2="866.2236" y1="87.5" y2="87.5"/></a></g><!--class PluginFactory--><g class="entity" data-entity="PluginFactory" data-source-line="15" data-uid="ent0004" id="entity_PluginFactory"><a href="PluginFactory.html" target="_top" title="PluginFactory.html" xlink:actuate="onRequest" xlink:href="PluginFactory.html" xlink:show="new" xlink:title="PluginFactory.html" xlink:type="simple"><rect fill="#F1F1F1" height="80.8125" rx="2.5" ry="2.5" style="stroke:#181818;stroke-width:0.5;" width="548.457" x="22" y="183.5"/><ellipse cx="244.6807" cy="199.5" fill="#B4A7E5" rx="11" ry="11" style="stroke:#181818;stroke-width:1;"/><path d="M240.9463,205.5 L248.6182,205.5 L248.6182,203.3906 L246.04,203.3906 L246.04,196.5313 L248.6182,196.5313 L248.6182,194.4219 L240.9463,194.4219 L240.9463,196.5313 L243.5244,196.5313 L243.5244,203.3906 L240.9463,203.3906 L240.9463,205.5 Z " fill="#000000"/><text fill="#000000" font-family="sans-serif" font-size="14" font-style="italic" lengthAdjust="spacing" textLength="83.002" x="265.1807" y="204.2852">PluginFactory</text><rect fill="#FFFFFF" height="16.0625" style="stroke:#181818;stroke-width:1;stroke-dasharray:2,2;" width="9.5938" x="563.8633" y="180.5"/><text fill="#000000" font-family="sans-serif" font-size="12" font-style="italic" lengthAdjust="spacing" textLength="7.5938" x="564.8633" y="192.6328">A</text><line style="stroke:#181818;stroke-width:0.5;" x1="23" x2="569.457" y1="215.5" y2="215.5"/><line style="stroke:#181818;stroke-width:0.5;" x1="23" x2="569.457" y1="223.5" y2="223.5"/><ellipse cx="33" cy="237.2031" fill="#84BE84" rx="3" ry="3" style="stroke:#038048;stroke-width:1;"/><text fill="#000000" font-family="sans-serif" font-size="14" lengthAdjust="spacing" text-decoration="underline" textLength="522.457" x="42" y="240.4883">pluginFactory(Class&lt;A&gt;, Class&lt;? extends A&gt;, String, ClassLoader): PluginFactory&lt;A&gt;</text><ellipse cx="33" cy="253.6094" fill="#84BE84" rx="3" ry="3" style="stroke:#038048;stroke-width:1;"/><text fill="#000000" font-family="sans-serif" font-size="14" font-style="italic" lengthAdjust="spacing" textLength="236.8242" x="42" y="256.8945">construct(TypedValue&lt;?&gt;...): NonNull A</text></a></g><!--class PluginFactory.LockedDelegator--><g class="entity" data-entity="PluginFactory.LockedDelegator" data-source-line="20" data-uid="ent0005" id="entity_PluginFactory.LockedDelegator"><a href="PluginFactory.LockedDelegator.html" target="_top" title="PluginFactory.LockedDelegator.html" xlink:actuate="onRequest" xlink:href="PluginFactory.LockedDelegator.html" xlink:show="new" xlink:title="PluginFactory.LockedDelegator.html" xlink:type="simple"><rect fill="#F1F1F1" height="64.4063" rx="2.5" ry="2.5" style="stroke:#181818;stroke-width:0.5;" width="301.8369" x="145" y="318"/><ellipse cx="194.2939" cy="334" fill="#ADD1B2" rx="11" ry="11" style="stroke:#181818;stroke-width:1;"/><path d="M194.3408,340.2031 C195.8408,340.2031 197.0752,339.6406 197.9814,338.5781 L196.6064,337.0625 C196.0596,337.6563 195.4033,338.0469 194.6064,338.0469 C192.9346,338.0469 191.7783,336.7188 191.7783,334.4375 C191.7783,332.2188 192.9346,330.875 194.4971,330.875 C195.3096,330.875 195.9033,331.1875 196.4346,331.6719 L197.8096,330.125 C197.0596,329.3906 195.9033,328.7188 194.4971,328.7188 C191.5439,328.7188 189.2158,330.8594 189.2158,334.5313 C189.2158,338.25 191.5908,340.2031 194.3408,340.2031 Z " fill="#000000"/><text fill="#000000" font-family="sans-serif" font-size="14" lengthAdjust="spacing" textLength="194.749" x="214.7939" y="338.7852">PluginFactory.LockedDelegator</text><line style="stroke:#181818;stroke-width:0.5;" x1="146" x2="445.8369" y1="350" y2="350"/><line style="stroke:#181818;stroke-width:0.5;" x1="146" x2="445.8369" y1="358" y2="358"/><ellipse cx="156" cy="371.7031" fill="#84BE84" rx="3" ry="3" style="stroke:#038048;stroke-width:1;"/><text fill="#000000" font-family="sans-serif" font-size="14" lengthAdjust="spacing" text-decoration="underline" textLength="275.8369" x="165" y="374.9883">intercept(Proxy&lt;?&gt;, Method, Object[]): Object</text></a></g><!--class StreamClassLoader--><g class="entity" data-entity="StreamClassLoader" data-source-line="24" data-uid="ent0006" id="entity_StreamClassLoader"><a href="StreamClassLoader.html" target="_top" title="StreamClassLoader.html" xlink:actuate="onRequest" xlink:href="StreamClassLoader.html" xlink:show="new" xlink:title="StreamClassLoader.html" xlink:type="simple"><rect fill="#F1F1F1" height="113.625" rx="2.5" ry="2.5" style="stroke:#181818;stroke-width:0.5;" width="319.0703" x="588.5" y="167"/><ellipse cx="682.4155" cy="183" fill="#ADD1B2" rx="11" ry="11" style="stroke:#181818;stroke-width:1;"/><path d="M682.4624,189.2031 C683.9624,189.2031 685.1968,188.6406 686.103,187.5781 L684.728,186.0625 C684.1812,186.6563 683.5249,187.0469 682.728,187.0469 C681.0562,187.0469 679.8999,185.7188 679.8999,183.4375 C679.8999,181.2188 681.0562,179.875 682.6187,179.875 C683.4312,179.875 684.0249,180.1875 684.5562,180.6719 L685.9312,179.125 C685.1812,178.3906 684.0249,177.7188 682.6187,177.7188 C679.6655,177.7188 677.3374,179.8594 677.3374,183.5313 C677.3374,187.25 679.7124,189.2031 682.4624,189.2031 Z " fill="#000000"/><text fill="#000000" font-family="sans-serif" font-size="14" lengthAdjust="spacing" textLength="122.7393" x="702.9155" y="187.7852">StreamClassLoader</text><line style="stroke:#181818;stroke-width:0.5;" x1="589.5" x2="906.5703" y1="199" y2="199"/><line style="stroke:#181818;stroke-width:0.5;" x1="589.5" x2="906.5703" y1="207" y2="207"/><ellipse cx="599.5" cy="220.7031" fill="#84BE84" rx="3" ry="3" style="stroke:#038048;stroke-width:1;"/><text fill="#000000" font-family="sans-serif" font-size="14" lengthAdjust="spacing" textLength="209.0566" x="608.5" y="223.9883">StreamClassLoader(InputStream)</text><ellipse cx="599.5" cy="237.1094" fill="#84BE84" rx="3" ry="3" style="stroke:#038048;stroke-width:1;"/><text fill="#000000" font-family="sans-serif" font-size="14" lengthAdjust="spacing" textLength="293.0703" x="608.5" y="240.3945">StreamClassLoader(InputStream, ClassLoader)</text><polygon fill="#FFFF44" points="599.5,248.5156,603.5,252.5156,599.5,256.5156,595.5,252.5156" style="stroke:#B38D22;stroke-width:1;"/><text fill="#000000" font-family="sans-serif" font-size="14" lengthAdjust="spacing" textLength="167.2822" x="608.5" y="256.8008">findClass(String): Class&lt;?&gt;</text><ellipse cx="599.5" cy="269.9219" fill="#84BE84" rx="3" ry="3" style="stroke:#038048;stroke-width:1;"/><text fill="#000000" font-family="sans-serif" font-size="14" lengthAdjust="spacing" textLength="269.4658" x="608.5" y="273.207">getResourceAsStream(String): InputStream</text></a></g><!--class PluginHandle--><g class="entity" data-entity="PluginHandle" data-source-line="31" data-uid="ent0007" id="entity_PluginHandle"><a href="PluginHandle.html" target="_top" title="PluginHandle.html" xlink:actuate="onRequest" xlink:href="PluginHandle.html" xlink:show="new" xlink:title="PluginHandle.html" xlink:type="simple"><rect fill="#F1F1F1" height="80.8125" rx="2.5" ry="2.5" style="stroke:#181818;stroke-width:0.5;" width="575.2676" x="115.5" y="31"/><ellipse cx="351.5825" cy="47" fill="#ADD1B2" rx="11" ry="11" style="stroke:#181818;stroke-width:1;"/><path d="M351.6294,53.2031 C353.1294,53.2031 354.3638,52.6406 355.27,51.5781 L353.895,50.0625 C353.3481,50.6563 352.6919,51.0469 351.895,51.0469 C350.2231,51.0469 349.0669,49.7188 349.0669,47.4375 C349.0669,45.2188 350.2231,43.875 351.7856,43.875 C352.5981,43.875 353.1919,44.1875 353.7231,44.6719 L355.0981,43.125 C354.3481,42.3906 353.1919,41.7188 351.7856,41.7188 C348.8325,41.7188 346.5044,43.8594 346.5044,47.5313 C346.5044,51.25 348.8794,53.2031 351.6294,53.2031 Z " fill="#000000"/><text fill="#000000" font-family="sans-serif" font-size="14" lengthAdjust="spacing" textLength="83.0088" x="372.0825" y="51.7852">PluginHandle</text><rect fill="#FFFFFF" height="16.0625" style="stroke:#181818;stroke-width:1;stroke-dasharray:2,2;" width="9.5938" x="684.1738" y="28"/><text fill="#000000" font-family="sans-serif" font-size="12" font-style="italic" lengthAdjust="spacing" textLength="7.5938" x="685.1738" y="40.1328">A</text><line style="stroke:#181818;stroke-width:0.5;" x1="116.5" x2="689.7676" y1="63" y2="63"/><line style="stroke:#181818;stroke-width:0.5;" x1="116.5" x2="689.7676" y1="71" y2="71"/><ellipse cx="126.5" cy="84.7031" fill="#84BE84" rx="3" ry="3" style="stroke:#038048;stroke-width:1;"/><text fill="#000000" font-family="sans-serif" font-size="14" lengthAdjust="spacing" text-decoration="underline" textLength="549.2676" x="135.5" y="87.9883">pluginHandle(PluginMetaData, StreamClassLoader, PluginFactory&lt;A&gt;): PluginHandle&lt;A&gt;</text><ellipse cx="126.5" cy="101.1094" fill="#84BE84" rx="3" ry="3" style="stroke:#038048;stroke-width:1;"/><text fill="#000000" font-family="sans-serif" font-size="14" lengthAdjust="spacing" textLength="197.0254" x="135.5" y="104.3945">getMetaData(): PluginMetaData</text></a></g><!--class PluginConstructor--><g class="entity" data-entity="PluginConstructor" data-source-line="39" data-uid="ent0009" id="entity_PluginConstructor"><a href="../PluginConstructor.html" target="_top" title="../PluginConstructor.html" xlink:actuate="onRequest" xlink:href="../PluginConstructor.html" xlink:show="new" xlink:title="../PluginConstructor.html" xlink:type="simple"><rect fill="#F1F1F1" height="64.4063" rx="2.5" ry="2.5" style="stroke:#181818;stroke-width:0.5;" width="262.8242" x="932.5" y="39.5"/><ellipse cx="999.2153" cy="55.5" fill="#B4A7E5" rx="11" ry="11" style="stroke:#181818;stroke-width:1;"/><path d="M995.481,61.5 L1003.1528,61.5 L1003.1528,59.3906 L1000.5747,59.3906 L1000.5747,52.5313 L1003.1528,52.5313 L1003.1528,50.4219 L995.481,50.4219 L995.481,52.5313 L998.0591,52.5313 L998.0591,59.3906 L995.481,59.3906 L995.481,61.5 Z " fill="#000000"/><text fill="#000000" font-family="sans-serif" font-size="14" font-style="italic" lengthAdjust="spacing" textLength="109.2998" x="1019.7153" y="60.2852">PluginConstructor</text><rect fill="#FFFFFF" height="16.0625" style="stroke:#181818;stroke-width:1;stroke-dasharray:2,2;" width="9.5938" x="1188.7305" y="36.5"/><text fill="#000000" font-family="sans-serif" font-size="12" font-style="italic" lengthAdjust="spacing" textLength="7.5938" x="1189.7305" y="48.6328">A</text><line style="stroke:#181818;stroke-width:0.5;" x1="933.5" x2="1194.3242" y1="71.5" y2="71.5"/><line style="stroke:#181818;stroke-width:0.5;" x1="933.5" x2="1194.3242" y1="79.5" y2="79.5"/><ellipse cx="943.5" cy="93.2031" fill="#84BE84" rx="3" ry="3" style="stroke:#038048;stroke-width:1;"/><text fill="#000000" font-family="sans-serif" font-size="14" font-style="italic" lengthAdjust="spacing" textLength="236.8242" x="952.5" y="96.4883">construct(TypedValue&lt;?&gt;...): NonNull A</text></a></g><!--class ClassLoader--><g class="entity" data-entity="ClassLoader" data-source-line="45" data-uid="ent0011" id="entity_ClassLoader"><rect fill="#F1F1F1" height="48" rx="2.5" ry="2.5" style="stroke:#181818;stroke-width:0.5;" width="107.4482" x="1220.5" y="47.5"/><ellipse cx="1235.5" cy="63.5" fill="#A9DCDF" rx="11" ry="11" style="stroke:#181818;stroke-width:1;"/><path d="M1234.6406,63.1406 C1234.9375,62.0313 1235.25,60.75 1235.5156,59.5625 L1235.5781,59.5625 C1235.8438,60.75 1236.1719,62.0313 1236.4688,63.1406 L1236.7188,64.1563 L1234.3906,64.1563 L1234.6406,63.1406 Z M1230.6563,68.75 L1233.2031,68.75 L1233.8906,66.1094 L1237.2344,66.1094 L1237.8906,68.75 L1240.5469,68.75 L1237.0938,57.6719 L1234.1094,57.6719 L1230.6563,68.75 Z " fill="#000000"/><text fill="#000000" font-family="sans-serif" font-size="14" font-style="italic" lengthAdjust="spacing" textLength="75.4482" x="1249.5" y="68.2852">ClassLoader</text><line style="stroke:#181818;stroke-width:0.5;" x1="1221.5" x2="1326.9482" y1="79.5" y2="79.5"/><line style="stroke:#181818;stroke-width:0.5;" x1="1221.5" x2="1326.9482" y1="87.5" y2="87.5"/></g><g class="link" data-entity-1="PluginConstructor" data-entity-2="PluginFactory" data-uid="lnk12" id="link_PluginConstructor_PluginFactory"><polygon fill="none" points="955.801,103.5187,936.8786,102.1251,939.8269,113.7573,955.801,103.5187" style="stroke:#181818;stroke-width:1;"/><path d="M938.3528,107.9412 C926.3188,110.9914 931.6527,109.467 920,112 C770.4179,144.5159 730.6696,139.967 580,167 C551.4339,172.1253 521.3036,177.788 491.7684,183.4848" fill="none" style="stroke:#181818;stroke-width:1;"/></g><g class="link" data-entity-1="PluginFactory" data-entity-2="PluginFactory.LockedDelegator" data-uid="lnk13" id="link_PluginFactory_PluginFactory.LockedDelegator"><ellipse cx="296" cy="272.5753" fill="#FFFFFF" rx="8" ry="8" style="stroke:#181818;stroke-width:1;"/><line style="stroke:#181818;stroke-width:1;" x1="296" x2="296" y1="280.5753" y2="264.5753"/><line style="stroke:#181818;stroke-width:1;" x1="288" x2="304" y1="272.5753" y2="272.5753"/><path d="M296,280.5753 C296,297.7277 296,301.5266 296,317.6382" fill="none" style="stroke:#181818;stroke-width:1;"/></g><g class="link" data-entity-1="ClassLoader" data-entity-2="StreamClassLoader" data-uid="lnk14" id="link_ClassLoader_StreamClassLoader"><polygon fill="none" points="1239.7467,95.6675,1221.2283,99.7989,1227.4108,110.0837,1239.7467,95.6675" style="stroke:#181818;stroke-width:1;"/><path d="M1224.3196,104.9413 C1214.394,110.9079 1218.7539,107.6041 1208,112 C1111.6125,151.4 997.9064,178.9955 907.6596,196.817" fill="none" style="stroke:#181818;stroke-width:1;"/></g><g class="link" data-entity-1="PluginHandle" data-entity-2="StreamClassLoader" data-uid="lnk15" id="link_PluginHandle_StreamClassLoader"><polygon fill="#181818" points="619.37,166.8875,612.7201,159.6226,614.787,164.8883,609.5213,166.9552,619.37,166.8875" style="stroke:#181818;stroke-width:1;"/><path d="M493.6447,112.0421 C532.0761,128.8071 572.0646,146.2514 613.8705,164.4884" fill="none" style="stroke:#181818;stroke-width:1;"/><text fill="#000000" font-family="sans-serif" font-size="13" lengthAdjust="spacing" textLength="70.5732" x="577" y="144.0605">classLoader</text></g><g class="link" data-entity-1="PluginHandle" data-entity-2="PluginFactory" data-uid="lnk16" id="link_PluginHandle_PluginFactory"><polygon fill="#181818" points="324.1108,183.461,332.5858,178.4436,327.008,179.3859,326.0658,173.8081,324.1108,183.461" style="stroke:#181818;stroke-width:1;"/><path d="M374.887,112.0421 C359.2216,134.0761 343.2525,156.5374 327.5875,178.5709" fill="none" style="stroke:#181818;stroke-width:1;"/><text fill="#000000" font-family="sans-serif" font-size="13" lengthAdjust="spacing" textLength="40.6187" x="361" y="144.0605">factory</text></g><g class="footer" data-source-line="61"><text fill="#888888" font-family="sans-serif" font-size="10" lengthAdjust="spacing" textLength="2.4805" x="662.2598" y="401.2773">&#160;</text><a href="https://github.com/talsma-ict/umldoclet" target="_top" title="https://github.com/talsma-ict/umldoclet" xlink:actuate="onRequest" xlink:href="https://github.com/talsma-ict/umldoclet" xlink:show="new" xlink:title="https://github.com/talsma-ict/umldoclet" xlink:type="simple"><text fill="#888888" font-family="sans-serif" font-size="10" lengthAdjust="spacing" textLength="73.7207" x="626.6396" y="412.9961">UMLDoclet 2.2.4</text></a></g><!--SRC=[jLPRSzCu57xdLno6XtKdYUAQBXTFffsGmW8JBWE1bsmU5Fd4CLKa8yaieTl_ph7bf4wSRkdie9Sev_ATxrma2m3W3nZfV6soTEd0QN3BpCAdDsFWAe4K5HhkC85inLEqC4UfLMgz8G8lt58Rq8lgdz36eCsrIZALmcl-ZOFLXH5esRrxK8MQRD3_uRQ1Fb-NmdCj93e8HaSDIb5u_AWNXT4Zc71fLnnUZIQiHhlsYLZ4Je2mPIPGMO8iL8AceZNCkQ2ViTTquHiQcsb5Fc6DKwOgj78yKnPoRfmjKtelkN8brsD6yVzano44mu_ZNNBXqufS5uP6yIA13_fhiSttVcvuIfGbN-l2WLsXuufNAakaBL8ixgY0SUmTYEa5rHcqITdNeZ0_M2wBb5YnJ3ca218klMMvXEJMmdkZlwy7mrEOJgijMxgLdCt8S6DtTUrImIouGCgk17x11SNVk3T5RPXoNLh7NIQke9CtZODHIOLGkk1tPu3V7Qh4GYdxw0nDHAqRQqwTEOfR37O3yRbrXdGKYbf3-qAuOBBECVdCPO63irF66A6yrUfj8IKC3wLRLsWdhx4M5vYSeyIqglr-tdlws-fGLLHWxWBVY3FAzmtIiKYwy6x-1OMRpeYctzxCaKg4VDKe4F5goGvpwRJiWbSgBvmN7zt1ThT3EuuF5fbAActWkqavrQtURLmdHVS1_RaVMezxxT88Tbk_NjAfbDYSJ2_vjS7qje5tf7xmS-vujrtcRciCjvEv9T3ARuCNR6qtalsahcuvruqize_cQ3FrslWYCDPlQMuenlyvF0TeVw6hdD5jc3RYR4BKFMjExkLXj5RoSTpA1mR_zdh_SVrjNEfs7SQzoHewTy7UlmYgMDjAn74purjPj-Rk5vdx6OHUx_HkyB5lo- -8jLEa61Pr9weW0-lM4gyFp49hjpCGvNf9SsZ6cReOQKaTV_3aiFPJ-G6NcK9wCuWBXJHauTvW3VgDU7MilzLqkdGkjt6_dsPkMSoPqAk-gnuFlKouVh6IYNyrxBqVPhFwFV3Nzc5IVjjxuKalYYPH58SFu-W9U_emF3vv74KddP14uVHvONIE_MSLszbF]--></g></svg>