<svg xmlns="http://www.w3.org/2000/svg" xmlns:xlink="http://www.w3.org/1999/xlink" contentStyleType="text/css" data-diagram-type="CLASS" height="289px" preserveAspectRatio="none" style="width:565px;height:289px;background:#FFFFFF;" version="1.1" viewBox="0 0 565 289" width="565px" zoomAndPan="magnify"><defs/><g><!--class org.quurz.plugins.internal.PluginFactory--><g class="entity" data-entity="org.quurz.plugins.internal.PluginFactory" data-source-line="13" data-uid="ent0002" id="entity_org.quurz.plugins.internal.PluginFactory"><a href="PluginFactory.html" target="_top" title="PluginFactory.html" xlink:actuate="onRequest" xlink:href="PluginFactory.html" xlink:show="new" xlink:title="PluginFactory.html" xlink:type="simple"><rect fill="#F1F1F1" height="78.9375" rx="2.5" ry="2.5" style="stroke:#181818;stroke-width:0.5;" width="548.457" x="6" y="111"/><ellipse cx="215.2402" cy="130.0625" fill="#B4A7E5" rx="11" ry="11" style="stroke:#181818;stroke-width:1;"/><path d="M211.5059,136.0625 L219.1777,136.0625 L219.1777,133.9531 L216.5996,133.9531 L216.5996,127.0938 L219.1777,127.0938 L219.1777,124.9844 L211.5059,124.9844 L211.5059,127.0938 L214.084,127.0938 L214.084,133.9531 L211.5059,133.9531 L211.5059,136.0625 Z " fill="#000000"/><text fill="#000000" font-family="sans-serif" font-size="14" font-style="italic" lengthAdjust="spacing" textLength="83.002" x="249.1807" y="128.9883">PluginFactory</text><text fill="#000000" font-family="sans-serif" font-size="10" font-style="italic" lengthAdjust="spacing" textLength="109.8828" x="235.7402" y="141.6836">org.quurz.plugins.internal</text><rect fill="#FFFFFF" height="16.0625" style="stroke:#181818;stroke-width:1;stroke-dasharray:2,2;" width="9.5938" x="547.8633" y="108"/><text fill="#000000" font-family="sans-serif" font-size="12" font-style="italic" lengthAdjust="spacing" textLength="7.5938" x="548.8633" y="120.1328">A</text><line style="stroke:#181818;stroke-width:0.5;" x1="7" x2="553.457" y1="149.125" y2="149.125"/><ellipse cx="17" cy="162.8281" fill="#84BE84" rx="3" ry="3" style="stroke:#038048;stroke-width:1;"/><text fill="#000000" font-family="sans-serif" font-size="14" lengthAdjust="spacing" text-decoration="underline" textLength="522.457" x="26" y="166.1133">pluginFactory(Class&lt;A&gt;, Class&lt;? extends A&gt;, String, ClassLoader): PluginFactory&lt;A&gt;</text><ellipse cx="17" cy="179.2344" fill="#84BE84" rx="3" ry="3" style="stroke:#038048;stroke-width:1;"/><text fill="#000000" font-family="sans-serif" font-size="14" font-style="italic" lengthAdjust="spacing" textLength="236.8242" x="26" y="182.5195">construct(TypedValue&lt;?&gt;...): NonNull A</text></a></g><!--class org.quurz.plugins.PluginConstructor--><g class="entity" data-entity="org.quurz.plugins.PluginConstructor" data-source-line="18" data-uid="ent0003" id="entity_org.quurz.plugins.PluginConstructor"><a href="../PluginConstructor.html" target="_top" title="../PluginConstructor.html" xlink:actuate="onRequest" xlink:href="../PluginConstructor.html" xlink:show="new" xlink:title="../PluginConstructor.html" xlink:type="simple"><rect fill="#F1F1F1" height="62.5313" rx="2.5" ry="2.5" style="stroke:#181818;stroke-width:0.5;" width="262.8242" x="148.5" y="12"/><ellipse cx="215.2153" cy="31.0625" fill="#B4A7E5" rx="11" ry="11" style="stroke:#181818;stroke-width:1;"/><path d="M211.481,37.0625 L219.1528,37.0625 L219.1528,34.9531 L216.5747,34.9531 L216.5747,28.0938 L219.1528,28.0938 L219.1528,25.9844 L211.481,25.9844 L211.481,28.0938 L214.0591,28.0938 L214.0591,34.9531 L211.481,34.9531 L211.481,37.0625 Z " fill="#000000"/><text fill="#000000" font-family="sans-serif" font-size="14" font-style="italic" lengthAdjust="spacing" textLength="109.2998" x="235.7153" y="29.9883">PluginConstructor</text><text fill="#000000" font-family="sans-serif" font-size="10" font-style="italic" lengthAdjust="spacing" textLength="75.0146" x="252.8579" y="42.6836">org.quurz.plugins</text><rect fill="#FFFFFF" height="16.0625" style="stroke:#181818;stroke-width:1;stroke-dasharray:2,2;" width="9.5938" x="404.7305" y="9"/><text fill="#000000" font-family="sans-serif" font-size="12" font-style="italic" lengthAdjust="spacing" textLength="7.5938" x="405.7305" y="21.1328">A</text><line style="stroke:#181818;stroke-width:0.5;" x1="149.5" x2="410.3242" y1="50.125" y2="50.125"/><ellipse cx="159.5" cy="63.8281" fill="#84BE84" rx="3" ry="3" style="stroke:#038048;stroke-width:1;"/><text fill="#000000" font-family="sans-serif" font-size="14" font-style="italic" lengthAdjust="spacing" textLength="236.8242" x="168.5" y="67.1133">construct(TypedValue&lt;?&gt;...): NonNull A</text></a></g><!--class org.quurz.plugins.internal.PluginFactory.LockedDelegator--><g class="entity" data-entity="org.quurz.plugins.internal.PluginFactory.LockedDelegator" data-source-line="21" data-uid="ent0004" id="entity_org.quurz.plugins.internal.PluginFactory.LockedDelegator"><a href="PluginFactory.LockedDelegator.html" target="_top" title="PluginFactory.LockedDelegator.html" xlink:actuate="onRequest" xlink:href="PluginFactory.LockedDelegator.html" xlink:show="new" xlink:title="PluginFactory.LockedDelegator.html" xlink:type="simple"><rect fill="#F1F1F1" height="38.125" rx="2.5" ry="2.5" style="stroke:#181818;stroke-width:0.5;" width="226.749" x="166.5" y="226"/><ellipse cx="181.5" cy="245.0625" fill="#ADD1B2" rx="11" ry="11" style="stroke:#181818;stroke-width:1;"/><path d="M181.5469,251.2656 C183.0469,251.2656 184.2813,250.7031 185.1875,249.6406 L183.8125,248.125 C183.2656,248.7188 182.6094,249.1094 181.8125,249.1094 C180.1406,249.1094 178.9844,247.7813 178.9844,245.5 C178.9844,243.2813 180.1406,241.9375 181.7031,241.9375 C182.5156,241.9375 183.1094,242.25 183.6406,242.7344 L185.0156,241.1875 C184.2656,240.4531 183.1094,239.7813 181.7031,239.7813 C178.75,239.7813 176.4219,241.9219 176.4219,245.5938 C176.4219,249.3125 178.7969,251.2656 181.5469,251.2656 Z " fill="#000000"/><text fill="#000000" font-family="sans-serif" font-size="14" lengthAdjust="spacing" textLength="194.749" x="195.5" y="243.9883">PluginFactory.LockedDelegator</text><text fill="#000000" font-family="sans-serif" font-size="10" lengthAdjust="spacing" textLength="113.2764" x="236.2363" y="256.6836">org.quurz.plugins.internal</text></a></g><g class="link" data-entity-1="org.quurz.plugins.PluginConstructor" data-entity-2="org.quurz.plugins.internal.PluginFactory" data-uid="lnk5" id="link_org.quurz.plugins.PluginConstructor_org.quurz.plugins.internal.PluginFactory"><polygon fill="none" points="280,75.1526,274,93.1526,286,93.1526,280,75.1526" style="stroke:#181818;stroke-width:1;"/><path d="M280,93.1526 C280,104.2904 280,99.0249 280,110.7701" fill="none" style="stroke:#181818;stroke-width:1;"/></g><g class="link" data-entity-1="org.quurz.plugins.internal.PluginFactory" data-entity-2="org.quurz.plugins.internal.PluginFactory.LockedDelegator" data-uid="lnk6" id="link_org.quurz.plugins.internal.PluginFactory_org.quurz.plugins.internal.PluginFactory.LockedDelegator"><ellipse cx="280" cy="198.1924" fill="#FFFFFF" rx="8" ry="8" style="stroke:#181818;stroke-width:1;"/><line style="stroke:#181818;stroke-width:1;" x1="280" x2="280" y1="206.1924" y2="190.1924"/><line style="stroke:#181818;stroke-width:1;" x1="272" x2="288" y1="198.1924" y2="198.1924"/><path d="M280,206.1924 C280,218.47 280,215.478 280,225.6282" fill="none" style="stroke:#181818;stroke-width:1;"/></g><g class="footer" data-source-line="32"><text fill="#888888" font-family="sans-serif" font-size="10" lengthAdjust="spacing" textLength="2.4805" x="275.2598" y="267.2773">&#160;</text><a href="https://github.com/talsma-ict/umldoclet" target="_top" title="https://github.com/talsma-ict/umldoclet" xlink:actuate="onRequest" xlink:href="https://github.com/talsma-ict/umldoclet" xlink:show="new" xlink:title="https://github.com/talsma-ict/umldoclet" xlink:type="simple"><text fill="#888888" font-family="sans-serif" font-size="10" lengthAdjust="spacing" textLength="73.7207" x="239.6396" y="278.9961">UMLDoclet 2.2.4</text></a></g><!--SRC=[dLJ9Kjj04BtdApha42ZmM5POWijboZ5Pow6eO78n7CQZjZJ5Q4RCGc88_vwMPC0O70Wws58lhr-_xce0WBVGDyNKoZJpu0tuJ3eu_Zu0hXD8KQFb7XEGEK_HmHYLqQch0n5uy9cnO2RLbp3MeYkCJgHEuHk_uE1Ci08TU_KAgbB36_HVtCsXZwUbSTy8XHvM-sjpbEAejTs8etWRXbovdCFN_f3DqEvoOXQpJI1i9GLgHv119sWhMhs22_eRr9uDk43hfD6K4yrmobQ5qPvBxQ3WrhkofKF5jI-vjXZLtsAj25PxHuFxvABTYjm6zApc8O4VvZpSzlkwi3mboefFJV3WSlHSyzhdYBNcEUd51HuXLUMUfDH6O-NFP8A0UU6dC96e4hTe9R3CaBcoI-tHJWW9LZfENcAxjTazL26L-XCNX3izqJDxr3KsPUSXs4jML16ELTcQgnMWgIntitk8dLuNHgDx9fRvN9sUmbN5gNokdETUYcjOB-O3L_kAEqS86r2_xG7-zgWJ1wNjo5lQe9blO3XDSgqDYzNlYl2nyvRiL8R6IEz1-DNXjC3a9rS1EtjTnXWX71Xz49I2NfLw_PHq_HiiO_ybtnBL7c3KWZ7MVE1vHBUNjbJ-YbAsPOl01aQSORAF2bF-H6SlMup52W-sPC4_wxwUnZDqXCwVHkFPR9QWFXuCw_-1lDX7tK37-Qd2k-MS64F9SwCjdoyqI3kG-gnl53NqvltZtkFoXYcfaSwcEDD8Kurk8-jPTvfpzMQrJlHeb7bVk7QpcKgVXJ4J9c_wwdusfF3DaAkaFfmB9vJ6K9_4pxUtkJnlZMYp4SV3E6v7xzhnBcljREt4SRmLhKTaYaOVWpK5DZzKR4__0W00]--></g></svg>