<svg xmlns="http://www.w3.org/2000/svg" xmlns:xlink="http://www.w3.org/1999/xlink" contentStyleType="text/css" data-diagram-type="CLASS" height="227px" preserveAspectRatio="none" style="width:279px;height:227px;background:#FFFFFF;" version="1.1" viewBox="0 0 279 227" width="279px" zoomAndPan="magnify"><defs/><g><!--cluster org.quurz.plugins.test.implementation--><g class="cluster" data-entity="org.quurz.plugins.test.implementation" data-source-line="10" data-uid="ent0002" id="cluster_org.quurz.plugins.test.implementation"><path d="M16.5,111 L260.0391,111 A3.75,3.75 0 0 1 262.5391,113.5 L269.5391,133.4063 L269.5,133.4063 A2.5,2.5 0 0 1 272,135.9063 L272,191.5 A2.5,2.5 0 0 1 269.5,194 L16.5,194 A2.5,2.5 0 0 1 14,191.5 L14,113.5 A2.5,2.5 0 0 1 16.5,111" fill="none" style="stroke:#000000;stroke-width:1.5;"/><line style="stroke:#000000;stroke-width:1.5;" x1="14" x2="269.5391" y1="133.4063" y2="133.4063"/><text fill="#000000" font-family="sans-serif" font-size="14" font-weight="bold" lengthAdjust="spacing" textLength="242.5391" x="18" y="125.9883">org.quurz.plugins.test.implementation</text></g><!--cluster org.quurz.plugins.test.contract--><g class="cluster" data-entity="org.quurz.plugins.test.contract" data-source-line="16" data-uid="ent0004" id="cluster_org.quurz.plugins.test.contract"><path d="M30.5,4 L227.5342,4 A3.75,3.75 0 0 1 230.0342,6.5 L237.0342,26.4063 L237.5,26.4063 A2.5,2.5 0 0 1 240,28.9063 L240,100.5 A2.5,2.5 0 0 1 237.5,103 L30.5,103 A2.5,2.5 0 0 1 28,100.5 L28,6.5 A2.5,2.5 0 0 1 30.5,4" fill="none" style="stroke:#000000;stroke-width:1.5;"/><line style="stroke:#000000;stroke-width:1.5;" x1="28" x2="237.0342" y1="26.4063" y2="26.4063"/><text fill="#000000" font-family="sans-serif" font-size="14" font-weight="bold" lengthAdjust="spacing" textLength="196.0342" x="32" y="18.9883">org.quurz.plugins.test.contract</text></g><!--class TestImplementation2--><g class="entity" data-entity="TestImplementation2" data-source-line="12" data-uid="ent0003" id="entity_TestImplementation2"><a href="TestImplementation2.html" target="_top" title="TestImplementation2.html" xlink:actuate="onRequest" xlink:href="TestImplementation2.html" xlink:show="new" xlink:title="TestImplementation2.html" xlink:type="simple"><rect fill="#F1F1F1" height="48" rx="2.5" ry="2.5" style="stroke:#181818;stroke-width:0.5;" width="165.5537" x="40" y="138"/><ellipse cx="55" cy="154" fill="#ADD1B2" rx="11" ry="11" style="stroke:#181818;stroke-width:1;"/><path d="M55.0469,160.2031 C56.5469,160.2031 57.7813,159.6406 58.6875,158.5781 L57.3125,157.0625 C56.7656,157.6563 56.1094,158.0469 55.3125,158.0469 C53.6406,158.0469 52.4844,156.7188 52.4844,154.4375 C52.4844,152.2188 53.6406,150.875 55.2031,150.875 C56.0156,150.875 56.6094,151.1875 57.1406,151.6719 L58.5156,150.125 C57.7656,149.3906 56.6094,148.7188 55.2031,148.7188 C52.25,148.7188 49.9219,150.8594 49.9219,154.5313 C49.9219,158.25 52.2969,160.2031 55.0469,160.2031 Z " fill="#000000"/><text fill="#000000" font-family="sans-serif" font-size="14" lengthAdjust="spacing" textLength="133.5537" x="69" y="158.7852">TestImplementation2</text><line style="stroke:#181818;stroke-width:0.5;" x1="41" x2="204.5537" y1="170" y2="170"/><line style="stroke:#181818;stroke-width:0.5;" x1="41" x2="204.5537" y1="178" y2="178"/></a></g><!--class TestContract--><g class="entity" data-entity="TestContract" data-source-line="17" data-uid="ent0005" id="entity_TestContract"><rect fill="#F1F1F1" height="64.4063" rx="2.5" ry="2.5" style="stroke:#181818;stroke-width:0.5;" width="146.2441" x="50" y="31"/><ellipse cx="80.9416" cy="47" fill="#B4A7E5" rx="11" ry="11" style="stroke:#181818;stroke-width:1;"/><path d="M77.2072,53 L84.8791,53 L84.8791,50.8906 L82.301,50.8906 L82.301,44.0313 L84.8791,44.0313 L84.8791,41.9219 L77.2072,41.9219 L77.2072,44.0313 L79.7854,44.0313 L79.7854,50.8906 L77.2072,50.8906 L77.2072,53 Z " fill="#000000"/><text fill="#000000" font-family="sans-serif" font-size="14" font-style="italic" lengthAdjust="spacing" textLength="78.8184" x="98.4842" y="51.7852">TestContract</text><line style="stroke:#181818;stroke-width:0.5;" x1="51" x2="195.2441" y1="63" y2="63"/><line style="stroke:#181818;stroke-width:0.5;" x1="51" x2="195.2441" y1="71" y2="71"/><ellipse cx="61" cy="84.7031" fill="#84BE84" rx="3" ry="3" style="stroke:#038048;stroke-width:1;"/><text fill="#000000" font-family="sans-serif" font-size="14" lengthAdjust="spacing" textLength="120.2441" x="70" y="87.9883">echo(String): String</text></g><g class="link" data-entity-1="TestContract" data-entity-2="TestImplementation2" data-uid="lnk6" id="link_TestContract_TestImplementation2"><polygon fill="none" points="123,95.2253,117,113.2253,129,113.2253,123,95.2253" style="stroke:#181818;stroke-width:1;"/><path d="M123,113.2253 C123,127.0711 123,125.0775 123,137.8335" fill="none" style="stroke:#181818;stroke-width:1;stroke-dasharray:7,7;"/></g><g class="footer" data-source-line="30"><text fill="#888888" font-family="sans-serif" font-size="10" lengthAdjust="spacing" textLength="2.4805" x="130.2598" y="205.2773">&#160;</text><a href="https://github.com/talsma-ict/umldoclet" target="_top" title="https://github.com/talsma-ict/umldoclet" xlink:actuate="onRequest" xlink:href="https://github.com/talsma-ict/umldoclet" xlink:show="new" xlink:title="https://github.com/talsma-ict/umldoclet" xlink:type="simple"><text fill="#888888" font-family="sans-serif" font-size="10" lengthAdjust="spacing" textLength="73.7207" x="94.6396" y="216.9961">UMLDoclet 2.2.4</text></a></g><!--SRC=[ZLDTRzCm57tVhxY81pfjTJxQJX1LIAKW62eIOjrJwOFht2PM7JkphuSAxB_Z95rfooJcboJtwvnpVG80y0gcfjvQMPG4P81AwU3somoupg50ZPOJvY0hNg235IgZ2zSL8d1FfR5WrksNCDQYgutEfIxWCx_du8ot0XqxEuCMQluu_GTt1zDNsoRutWY51Btf-G6bD4wk-ccSNi6SArTnk9xEsMxQtvwKfMm8ORQI0hKB8xtEqRQq9ZKNuJ7hCfTmZzP9eqDFl9lJI1L64vVQGSqjkKRILyKrDLmJ5l17B8cXDxcP7PEBtxJaBc5YDVSvV3DtVg_tHMrv4IWhlZMUm5L8NFCsvG9fXm6BKrXWbdKDWUacx1cCBTYTz_OdgvKl0Yj6w8Z9gbPOOI1AZO1VNLDpXEBEmJmKNH_LfB1OF15b9LLgkUpw7vw5tUp7Sa41zH5KQaAxvW9RuEc_1SsvG56QtWtPu8dp3BgNVSN38OF_86VP4SpuDsFFMrJNUBA23dBiQAlmxPxFsfYWwKJ2fssDTYRrPcfKkAoNhv_EtZQEKr9ZCBdOQ0mN4fy87KS7U3kixtgnA8bgbqLH8Qdqgw2uYgXrUryAYdobyixc9uOFDzWP-EF-JshCs8-7_JITfsaM3x91mf9qD4f6Wy7m8WwXUF71MrDZzAvbk_m3]--></g></svg>