<svg xmlns="http://www.w3.org/2000/svg" xmlns:xlink="http://www.w3.org/1999/xlink" contentStyleType="text/css" data-diagram-type="CLASS" height="149px" preserveAspectRatio="none" style="width:214px;height:149px;background:#FFFFFF;" version="1.1" viewBox="0 0 214 149" width="214px" zoomAndPan="magnify"><defs/><g><!--class org.quurz.plugins.test.implementation.TestImplementation2--><g class="entity" data-entity="org.quurz.plugins.test.implementation.TestImplementation2" data-source-line="13" data-uid="ent0002" id="entity_org.quurz.plugins.test.implementation.TestImplementation2"><a href="TestImplementation2.html" target="_top" title="TestImplementation2.html" xlink:actuate="onRequest" xlink:href="TestImplementation2.html" xlink:show="new" xlink:title="TestImplementation2.html" xlink:type="simple"><rect fill="#F1F1F1" height="38.125" rx="2.5" ry="2.5" style="stroke:#181818;stroke-width:0.5;" width="201.3945" x="6" y="86"/><ellipse cx="21" cy="105.0625" fill="#ADD1B2" rx="11" ry="11" style="stroke:#181818;stroke-width:1;"/><path d="M21.0469,111.2656 C22.5469,111.2656 23.7813,110.7031 24.6875,109.6406 L23.3125,108.125 C22.7656,108.7188 22.1094,109.1094 21.3125,109.1094 C19.6406,109.1094 18.4844,107.7813 18.4844,105.5 C18.4844,103.2813 19.6406,101.9375 21.2031,101.9375 C22.0156,101.9375 22.6094,102.25 23.1406,102.7344 L24.5156,101.1875 C23.7656,100.4531 22.6094,99.7813 21.2031,99.7813 C18.25,99.7813 15.9219,101.9219 15.9219,105.5938 C15.9219,109.3125 18.2969,111.2656 21.0469,111.2656 Z " fill="#000000"/><text fill="#000000" font-family="sans-serif" font-size="14" lengthAdjust="spacing" textLength="133.5537" x="52.9204" y="103.9883">TestImplementation2</text><text fill="#000000" font-family="sans-serif" font-size="10" lengthAdjust="spacing" textLength="169.3945" x="35" y="116.6836">org.quurz.plugins.test.implementation</text></a></g><!--class org.quurz.plugins.test.contract.TestContract--><g class="entity" data-entity="org.quurz.plugins.test.contract.TestContract" data-source-line="15" data-uid="ent0003" id="entity_org.quurz.plugins.test.contract.TestContract"><rect fill="#F1F1F1" height="38.125" rx="2.5" ry="2.5" style="stroke:#181818;stroke-width:0.5;" width="164.583" x="24" y="12"/><ellipse cx="39" cy="31.0625" fill="#B4A7E5" rx="11" ry="11" style="stroke:#181818;stroke-width:1;"/><path d="M35.2656,37.0625 L42.9375,37.0625 L42.9375,34.9531 L40.3594,34.9531 L40.3594,28.0938 L42.9375,28.0938 L42.9375,25.9844 L35.2656,25.9844 L35.2656,28.0938 L37.8438,28.0938 L37.8438,34.9531 L35.2656,34.9531 L35.2656,37.0625 Z " fill="#000000"/><text fill="#000000" font-family="sans-serif" font-size="14" font-style="italic" lengthAdjust="spacing" textLength="78.8184" x="79.8823" y="29.9883">TestContract</text><text fill="#000000" font-family="sans-serif" font-size="10" font-style="italic" lengthAdjust="spacing" textLength="132.583" x="53" y="42.6836">org.quurz.plugins.test.contract</text></g><g class="link" data-entity-1="org.quurz.plugins.test.contract.TestContract" data-entity-2="org.quurz.plugins.test.implementation.TestImplementation2" data-uid="lnk4" id="link_org.quurz.plugins.test.contract.TestContract_org.quurz.plugins.test.implementation.TestImplementation2"><polygon fill="none" points="106.5,50.1686,100.5,68.1686,112.5,68.1686,106.5,50.1686" style="stroke:#181818;stroke-width:1;"/><path d="M106.5,68.1686 C106.5,79 106.5,74.7124 106.5,85.5867" fill="none" style="stroke:#181818;stroke-width:1;stroke-dasharray:7,7;"/></g><g class="footer" data-source-line="25"><text fill="#888888" font-family="sans-serif" font-size="10" lengthAdjust="spacing" textLength="2.4805" x="101.7598" y="127.2773">&#160;</text><a href="https://github.com/talsma-ict/umldoclet" target="_top" title="https://github.com/talsma-ict/umldoclet" xlink:actuate="onRequest" xlink:href="https://github.com/talsma-ict/umldoclet" xlink:show="new" xlink:title="https://github.com/talsma-ict/umldoclet" xlink:type="simple"><text fill="#888888" font-family="sans-serif" font-size="10" lengthAdjust="spacing" textLength="73.7207" x="66.1396" y="138.9961">UMLDoclet 2.2.4</text></a></g><!--SRC=[dLDBRzD04BxtLmpbG17DPkCwBKHHf19GAGeIekafpM5ZJ-nLrxlkxhWe1VuxOpiDQHJnyiNsFBx7x0u0m0iOktBbTPOJa0FATO3hJnDGDeKCBNf5c88kL8O15cYSpK9RYA0gofq7jsp-4kSzXjBPLDiCFgfx1S5LFi4W3WwWePe-edzLOGjziQg3xrnYaE1e_79BKYHxfvr8HgSmLIOK2Yx7Kx56-zKJYKZ4mDX69sW3GrOsHT_8EYzLmgz9cpc6U_H1EyizSerJMqsS9QLjW59v2hMbpqPPghNs1FFtHK_2qVdLvAau-QOHTmpdtgegXI_khjhuVLPwbR5aerQk8WW5ahAgpGLMRLN1yr89NY6pAk9HMcUnoUSwHS2Yf1KiDPeqx4OPB7SSRkA9KI70uJ3e1npquj4K0rqMfS42sHQntUZ6hhDov7mcxghAFuZIL1cR5iJrGZzfE0G-eh-g57lOO3RR4nKv5MO-RpLhI-YNx7v7zvXFmgk4_YmuMLV-JkfZZTY6RWNyImSClmln_-De2OU1LWP7pNVzB9tZ4S2tJQ1-FgnAz1DjRyVEy8Lu_df_zhg-tqPRv9LARYtoySjDvO-Mhhl5j-QwiRDPJbI6GRURQSgh1VijkjJiLaSdrAqAaxPBjRDUV6xjkbnizhQ- -XqPTw9e6aK3UJ8uwOb-t8_Fv5aiNqaEoTdxohiIksyRjVEV]--></g></svg>